<?xml version="1.0" encoding="UTF-8" standalone="no"?>
<!-- Created with Inkscape (http://www.inkscape.org/) -->

<svg
   width="80"
   height="80"
   viewBox="0 0 21.166666 21.166666"
   version="1.1"
   id="svg5"
   inkscape:version="1.2.2 (732a01da63, 2022-12-09)"
   sodipodi:docname="23.svg"
   xmlns:inkscape="http://www.inkscape.org/namespaces/inkscape"
   xmlns:sodipodi="http://sodipodi.sourceforge.net/DTD/sodipodi-0.dtd"
   xmlns="http://www.w3.org/2000/svg"
   xmlns:svg="http://www.w3.org/2000/svg">
  <sodipodi:namedview
     id="namedview7"
     pagecolor="#ffffff"
     bordercolor="#000000"
     borderopacity="0.25"
     inkscape:showpageshadow="2"
     inkscape:pageopacity="0.0"
     inkscape:pagecheckerboard="0"
     inkscape:deskcolor="#d1d1d1"
     inkscape:document-units="mm"
     showgrid="true"
     inkscape:zoom="5.6050184"
     inkscape:cx="84.923896"
     inkscape:cy="50.758085"
     inkscape:window-width="1258"
     inkscape:window-height="1290"
     inkscape:window-x="-11"
     inkscape:window-y="-11"
     inkscape:window-maximized="1"
     inkscape:current-layer="layer1">
    <inkscape:grid
       type="xygrid"
       id="grid175" />
  </sodipodi:namedview>
  <defs
     id="defs2" />
  <g
     inkscape:label="Layer 1"
     inkscape:groupmode="layer"
     id="layer1">
    <path
       style="fill:#000000;stroke-width:0.264583"
       id="path704"
       d="m 4.046007,17.42971 c 0.3499495,-0.343105 0.7111161,-0.674271 1.0628174,-1.01562 0.1041943,-0.104292 0.2089378,-0.208039 0.312583,-0.312876 0.2433622,-0.246163 0.34852,-0.352421 0.5778847,-0.610875 C 6.2607687,15.1957 6.5087764,14.888981 6.7660162,14.590635 6.8702144,14.467297 6.9741284,14.343718 7.0786111,14.220621 7.2879142,13.974028 7.6957824,13.498884 7.8960172,13.255694 8.3789524,12.669159 8.8417698,12.066146 9.3095113,11.467541 10.17243,10.356623 11.072375,9.2752504 11.99985,8.2178267 12.614164,7.5183338 13.299321,6.8869612 13.972936,6.24607 14.554563,5.6915772 15.148234,5.1499597 15.730844,4.596521 16.092065,4.2605586 16.415581,3.8883907 16.74654,3.5235689 16.884607,3.37543 16.817812,3.4463005 16.94675,3.3107934 17.434564,2.7979206 16.709252,2.1080482 16.221439,2.620921 v 0 c -0.139117,0.1463182 -0.06694,0.069671 -0.216328,0.2301284 -0.314249,0.3464946 -0.62075,0.7006016 -0.963705,1.0197468 -0.58275,0.553653 -1.176743,1.0952935 -1.75845,1.6500644 C 12.587502,6.1825322 11.880925,6.8351344 11.24726,7.5578194 10.30747,8.6295898 9.3952236,9.7253228 8.5207506,10.851216 8.0606108,11.440094 7.6056034,12.033628 7.130552,12.610664 6.9320115,12.851827 6.5206392,13.331112 6.313925,13.574667 6.2115948,13.695235 6.1098405,13.81629 6.0077982,13.937101 c -0.250843,0.291117 -0.4928656,0.59032 -0.7475358,0.878081 -0.2183823,0.24676 -0.3123176,0.341055 -0.5470956,0.578645 -0.1000101,0.101208 -0.2010725,0.201371 -0.3016086,0.302056 -0.357278,0.346965 -0.7248636,0.682889 -1.0796646,1.032369 -0.4960056,0.504954 0.2181075,1.206412 0.7141134,0.701458 z" />
    <path
       style="fill:#000000;stroke-width:0.264583"
       id="path706"
       d="m 2.1797053,17.816029 c 0.3978672,-0.05476 0.8012358,-0.04917 1.2019977,-0.05944 0.6012797,-5.56e-4 1.1994915,-0.04592 1.7964661,-0.113081 0.2911178,-0.03338 0.5821172,-0.06802 0.8739899,-0.09423 0.029793,-0.0027 0.059633,-0.0053 0.089556,-0.0058 0.7075297,-0.02006 0.6791624,-1.020656 -0.028367,-1.000598 v 0 c -0.050372,0.0016 -0.1006843,0.0045 -0.1508538,0.0094 -0.2993136,0.02696 -0.5977765,0.0621 -0.8963083,0.09649 -0.5683046,0.06403 -1.137671,0.10731 -1.7101381,0.107126 -0.4326347,0.01109 -0.8678355,0.0068 -1.2973133,0.06645 -0.7026262,0.08554 -0.5816558,1.079202 0.1209704,0.993663 z" />
    <path
       style="fill:#000000;stroke-width:0.264583"
       id="path710"
       d="m 13.99411,3.3609719 c 0.350522,-0.015264 0.698916,-0.054132 1.046737,-0.098673 0.50296,-0.056428 1.008988,-0.079324 1.513605,-0.1175731 0.421017,-0.029498 0.841576,-0.066891 1.26386,-0.068655 0.162848,0.00153 0.324611,0.022744 0.486143,0.041493 0.703096,0.081591 0.818483,-0.9127362 0.115387,-0.9943273 v 0 c -0.201557,-0.023385 -0.403521,-0.048055 -0.606776,-0.048151 -0.445789,0.00274 -0.889872,0.039064 -1.334288,0.071506 -0.52189,0.039577 -1.04528,0.062963 -1.565329,0.1228487 -0.334006,0.042949 -0.668528,0.079464 -1.005131,0.094217 -0.70521,0.060665 -0.619417,1.0579813 0.08579,0.9973166 z" />
    <path
       style="fill:#000000;stroke-width:0.264583"
       id="path731"
       d="m 14.252666,17.532954 c 0.47274,0.08501 0.954282,0.09906 1.43225,0.136294 0.601051,0.065 1.20301,0.106051 1.807567,0.106099 0.379248,7.15e-4 0.756494,-0.0404 1.134565,-0.06242 0.02091,-7.93e-4 0.04182,-0.0016 0.06273,-0.0024 0.707263,-0.02791 0.667796,-1.028129 -0.03947,-1.000221 v 0 c -0.02766,0.0011 -0.05532,0.0022 -0.08297,0.0034 -0.358384,0.02185 -0.716068,0.05934 -1.07553,0.06063 -0.578472,8.73e-4 -1.154145,-0.04178 -1.729275,-0.103086 -0.440314,-0.03419 -0.883899,-0.04693 -1.319909,-0.121118 -0.694953,-0.134322 -0.884912,0.848489 -0.18996,0.98281 z" />
    <path
       style="fill:#000000;stroke-width:0.264583"
       id="path747"
       d="m 17.126646,16.814251 c -0.122915,-0.304347 -0.301211,-0.580423 -0.461522,-0.865226 -0.07166,-0.127313 -0.304933,-0.563877 -0.365234,-0.676276 -0.483753,-0.917016 -1.063328,-1.777346 -1.620921,-2.649847 -0.0856,-0.131542 -0.170011,-0.26386 -0.256791,-0.394624 -0.178318,-0.268695 -0.280911,-0.420187 -0.478009,-0.672409 -0.936171,-1.197991 0.420512,0.567353 -0.476055,-0.585922 -0.07402,-0.09521 -0.144635,-0.193023 -0.216952,-0.289535 C 12.825358,10.056878 12.357032,9.4654877 11.878564,8.8820452 11.38415,8.313984 10.889296,7.7418831 10.352098,7.2131649 10.220165,7.0833154 10.083249,6.9586289 9.9488248,6.8313611 9.1542718,6.0627743 8.28408,5.3760864 7.366315,4.7606823 7.174568,4.6321069 6.9780207,4.5108399 6.7838735,4.385919 6.1594735,4.0075402 5.5200078,3.6470666 4.840583,3.3758759 4.5353803,3.2540551 4.450313,3.2346315 4.1467836,3.1421752 3.8212175,3.0559414 3.4842145,2.9909592 3.1458463,3.0207124 c -0.064782,0.0057 -0.1316606,0.0071 -0.1929556,0.028826 C 2.8407278,3.089299 2.7381009,3.1520627 2.630706,3.2033249 2.1530401,3.603603 1.9849269,4.0099302 1.8462197,4.5997563 1.7479444,5.0558554 1.813483,5.5134512 1.9139223,5.9618855 2.0044177,6.3434197 2.1697955,6.6999921 2.3348485,7.0536511 2.4694677,7.3659496 2.6434953,7.6565206 2.8333747,7.9376949 3.230041,8.5239168 4.0590843,7.9629467 3.6624178,7.3767237 v 0 C 3.501504,7.1394705 3.3541245,6.8947101 3.2417996,6.6300468 3.1068235,6.341302 2.967778,6.0513893 2.8901969,5.7407772 2.8210883,5.4398864 2.761784,5.1321273 2.8217958,4.8239267 2.8660862,4.624543 2.9109326,4.4202709 3.0209003,4.2446659 c 0.025956,-0.041448 0.058276,-0.078571 0.086147,-0.1187556 0.014959,-0.021566 0.028193,-0.044278 0.042289,-0.066417 -0.010242,-0.00759 -0.040294,-0.014348 -0.030723,-0.022767 0.018095,-0.015917 0.17149,-0.024238 0.1779826,-0.024252 0.1901931,-4.498e-4 0.377553,0.040741 0.5606269,0.087908 0.2546919,0.076234 0.3323429,0.093996 0.5893388,0.1956853 0.6285311,0.2487006 1.2185268,0.5836436 1.7960985,0.9319278 0.1837388,0.1179521 0.3697756,0.2323989 0.5512165,0.3538561 0.8770829,0.5871229 1.7089916,1.2420939 2.4673083,1.9769405 0.1245952,0.117584 0.2515767,0.2326897 0.3737856,0.3527518 0.5174055,0.5083172 0.9931895,1.0593112 1.4696535,1.60534 0.469506,0.5722492 0.928346,1.1526822 1.345966,1.7644352 0.07937,0.105578 0.157012,0.212476 0.238108,0.316733 0.700471,0.900522 -0.197929,-0.271882 0.454167,0.557748 0.183108,0.232959 0.273187,0.366679 0.440329,0.618473 0.08527,0.128459 0.168209,0.258453 0.252313,0.387679 0.543914,0.851056 1.11006,1.689775 1.58232,2.58405 0.08685,0.161872 0.290245,0.543097 0.383818,0.70939 0.136478,0.24254 0.290337,0.47648 0.397221,0.734663 0.265732,0.656039 1.193511,0.280238 0.92778,-0.375801 z" />
  </g>
</svg>
