<?xml version="1.0" encoding="UTF-8" standalone="no"?>
<!-- Created with Inkscape (http://www.inkscape.org/) -->

<svg
   width="80"
   height="80"
   viewBox="0 0 21.166666 21.166666"
   version="1.1"
   id="svg5"
   inkscape:version="1.2.2 (732a01da63, 2022-12-09)"
   sodipodi:docname="0.svg"
   xmlns:inkscape="http://www.inkscape.org/namespaces/inkscape"
   xmlns:sodipodi="http://sodipodi.sourceforge.net/DTD/sodipodi-0.dtd"
   xmlns="http://www.w3.org/2000/svg"
   xmlns:svg="http://www.w3.org/2000/svg">
  <sodipodi:namedview
     id="namedview7"
     pagecolor="#ffffff"
     bordercolor="#000000"
     borderopacity="0.25"
     inkscape:showpageshadow="2"
     inkscape:pageopacity="0.0"
     inkscape:pagecheckerboard="0"
     inkscape:deskcolor="#d1d1d1"
     inkscape:document-units="mm"
     showgrid="true"
     inkscape:zoom="5.6050184"
     inkscape:cx="84.923896"
     inkscape:cy="49.955233"
     inkscape:window-width="1280"
     inkscape:window-height="1850"
     inkscape:window-x="-11"
     inkscape:window-y="-11"
     inkscape:window-maximized="1"
     inkscape:current-layer="layer1">
    <inkscape:grid
       type="xygrid"
       id="grid175" />
  </sodipodi:namedview>
  <defs
     id="defs2" />
  <g
     inkscape:label="Layer 1"
     inkscape:groupmode="layer"
     id="layer1">
    <path
       style="fill:#000000;stroke-width:0.264583"
       id="path179"
       d="m 10.222579,9.712939 c -0.136801,0.065938 -0.4251422,0.2237922 -0.495982,0.354517 -0.065745,0.121323 -0.1199234,0.251445 -0.1483741,0.386472 -0.018711,0.0888 0.00641,0.181391 0.00962,0.272087 0.026191,0.0876 0.042851,0.178641 0.078571,0.262809 0.1170656,0.275844 0.3458111,0.510956 0.6156281,0.638846 0.06007,0.02847 0.125045,0.04514 0.187565,0.06771 0.236328,0.04907 0.486113,0.06923 0.714749,-0.02815 0.154726,-0.0659 0.193756,-0.112769 0.313328,-0.21456 0.196072,-0.189632 0.300063,-0.429033 0.35194,-0.692085 0.03814,-0.224901 -0.0062,-0.442295 -0.08532,-0.652268 -0.08234,-0.2045237 -0.233961,-0.3629435 -0.39003,-0.5131917 -0.103167,-0.096311 -0.211121,-0.1910591 -0.343658,-0.2449597 -0.03641,-0.014809 -0.07478,-0.02426 -0.112171,-0.036391 -0.177764,-0.044732 -0.354706,-0.034338 -0.532001,0.0044 -0.214443,0.060248 -0.3912165,0.1921907 -0.5500369,0.343313 -0.1104955,0.1148781 -0.1964822,0.2495478 -0.2769158,0.3863104 -0.1127472,0.200309 -0.1381501,0.373989 -0.1225857,0.60073 0.037126,0.241922 0.1557136,0.451559 0.3084446,0.638214 0.1422001,0.154379 0.3194658,0.261053 0.5118368,0.340063 0.163745,0.06138 0.336901,0.07455 0.509928,0.07005 0.279785,-0.02924 0.457376,-0.148278 0.632593,-0.36079 0.13564,-0.196069 0.172959,-0.420902 0.166006,-0.653702 -0.03011,-0.260416 -0.140001,-0.425094 -0.336206,-0.590958 -0.204306,-0.1387345 -0.373888,-0.176935 -0.61552,-0.1738714 -0.28866,0.039406 -0.514081,0.2262704 -0.575325,0.5184404 -0.01052,0.0502 -0.0063,0.102388 -0.0095,0.153582 0.01734,0.707602 1.018039,0.683081 1.0007,-0.02452 v 0 c -0.02924,0.194396 -0.136696,0.334311 -0.341231,0.350709 -0.07282,-0.0064 -0.03135,0.0024 -0.07535,-0.03548 -0.02903,-0.03759 -0.05023,-0.08192 -0.04632,-0.130497 0.0016,-0.0075 0.0046,-0.02898 0.0044,-0.0045 -2.07e-4,0.02465 -0.0065,0.03068 0.01218,0.0072 0.0066,-0.0082 0.01373,-0.01595 0.0206,-0.02393 0.03234,-0.02265 0.07126,-0.037 0.111103,-0.03133 -0.02395,9.52e-4 -0.0625,5.82e-4 -0.09283,-0.0024 -0.04369,-0.01257 -0.08007,-0.0383 -0.118624,-0.06133 -0.03306,-0.02305 -0.04706,-0.08158 -0.0721,-0.09615 -0.0024,0.01519 -0.01855,0.05691 -0.0082,0.0159 0.035,-0.06035 0.07224,-0.119189 0.112718,-0.176032 0.02735,-0.02979 0.07188,-0.05745 0.09106,-0.08744 -0.02747,-0.01694 0.04925,0.0028 0.03009,-0.0096 -0.02962,-0.01356 -0.03431,-0.01383 -0.06017,-0.03275 -0.0029,-0.0021 -0.01047,-0.0095 -0.0074,-0.0078 0.03448,0.01966 0.05961,0.05413 0.09102,0.07747 0.0545,0.05218 0.117556,0.101984 0.155795,0.167434 0.02042,0.02457 0.02589,0.06682 0.02795,0.09785 -0.0054,0.04677 -0.01147,0.09171 -0.04119,0.130472 -0.02795,0.04917 0.03915,-0.01287 0.05184,0.01545 0.0062,0.01391 -0.081,0.0064 -0.100905,0.01364 -0.01647,-8.2e-4 -0.03423,0.0059 -0.04947,-3.7e-4 -0.05614,-0.02317 -0.09214,-0.07908 -0.140816,-0.113013 -0.06644,-0.04333 -0.0079,-0.01375 -0.124742,0.120913 -0.0043,0.0049 0.0028,-0.01338 0.0072,-0.01823 0.02168,-0.02398 0.06817,-0.05418 0.0944,-0.06924 0.01999,-0.01148 0.04108,-0.02094 0.06162,-0.03141 0.648853,-0.282827 0.248875,-1.2004425 -0.399977,-0.9176159 z" />
    <path
       style="fill:#000000;stroke-width:0.264583"
       id="path420"
       d="M 10.46223,2.1776156 C 10.085362,2.2088291 9.7101926,2.2546203 9.3384956,2.3241497 8.8241906,2.4311424 8.3454128,2.6482855 7.8847716,2.8944477 7.3449819,3.2096506 6.8311452,3.5675456 6.343475,3.9580274 6.2585525,4.0327079 6.1716422,4.1051868 6.0887075,4.1820684 6.0554266,4.2129201 5.6800022,4.5835913 5.6384285,4.6232725 5.4436152,4.8092158 5.2394664,4.9799467 5.0291475,5.147792 4.7684226,5.3486795 4.5154931,5.5607939 4.295676,5.8067151 4.1792487,5.9369684 4.1272235,6.0099849 4.0231507,6.146012 3.8270852,6.4216562 3.6095344,6.6833347 3.4327478,6.9723859 3.3848182,7.0507518 3.3416356,7.1319241 3.2960796,7.2116931 3.0223989,7.7494637 2.8484274,8.3302574 2.7071508,8.914726 2.6024155,9.4522 2.5531775,9.9991258 2.5347924,10.545876 c -0.015374,0.402228 0.050512,0.799681 0.1417138,1.189729 0.1095412,0.396171 0.2456085,0.784687 0.3985419,1.166042 0.1403008,0.330822 0.3163988,0.644065 0.4677436,0.969785 0.158143,0.361934 0.3265773,0.718995 0.5148358,1.066237 0.1765614,0.331179 0.4110061,0.624694 0.6455365,0.915729 0.2131832,0.262086 0.4246054,0.525459 0.6488009,0.778267 0.2534073,0.292975 0.5482317,0.49269 0.8786598,0.687016 0.285279,0.160919 0.5542267,0.348127 0.832962,0.519704 0.3165621,0.191946 0.6548853,0.342383 0.9997281,0.47506 0.288639,0.114116 0.588204,0.193475 0.8911392,0.258473 0.3532248,0.06813 0.7076583,0.128989 1.065304,0.168101 0.382719,0.03831 0.766849,0.04627 1.15045,0.02074 0.341797,-0.02156 0.662554,-0.131661 0.976225,-0.260939 0.318406,-0.141672 0.642613,-0.269443 0.965214,-0.401074 0.363402,-0.146207 0.71098,-0.325818 1.053131,-0.515521 0.262634,-0.15129 0.532439,-0.292491 0.780473,-0.467725 0.206912,-0.146183 0.237725,-0.182548 0.429562,-0.351394 0.295456,-0.273501 0.558893,-0.578746 0.845614,-0.860866 0.155699,-0.148389 0.333144,-0.272415 0.480614,-0.429746 0.03845,-0.04102 0.07384,-0.0848 0.110754,-0.127202 0.211688,-0.25874 0.377222,-0.549305 0.534775,-0.842815 0.141498,-0.268795 0.264047,-0.547004 0.383316,-0.826198 0.122746,-0.29339 0.245084,-0.587003 0.354205,-0.885769 0.123691,-0.337818 0.188788,-0.692092 0.251012,-1.045161 0.06994,-0.390768 0.134695,-0.782155 0.172302,-1.177456 0.02612,-0.338236 0.03448,-0.6776262 0.01953,-1.0165109 C 18.511059,9.1519025 18.378734,8.7724074 18.249223,8.3973605 18.129392,8.0317855 17.975692,7.6798357 17.80499,7.3355855 17.664414,7.055845 17.523555,6.7769612 17.346733,6.5182585 17.18269,6.2944551 16.995235,6.0894854 16.806452,5.8866407 16.64491,5.7190793 16.508077,5.5303798 16.367176,5.3457363 16.213167,5.1492599 16.075307,4.9412826 15.922546,4.7438936 15.73607,4.5049889 15.525237,4.2868349 15.312116,4.0719213 15.093807,3.8454528 14.86577,3.6299375 14.62266,3.4303702 14.284667,3.1525059 13.879641,2.9845529 13.478463,2.8211978 13.055117,2.6464437 12.615496,2.5192118 12.173014,2.4038349 11.800387,2.3060861 11.425232,2.2210916 11.04412,2.1645867 10.856041,2.1410818 10.667426,2.1224703 10.479222,2.1000346 9.7763691,2.016378 9.658061,3.0103619 10.360914,3.0940187 v 0 c 0.179161,0.021294 0.358639,0.039571 0.537789,0.060949 0.345298,0.050101 0.684414,0.1299946 1.022039,0.2175568 0.40012,0.1040623 0.797941,0.2178259 1.180695,0.3759555 0.308481,0.1252225 0.625118,0.2460149 0.887423,0.4566796 0.217066,0.1767887 0.417938,0.3707376 0.612671,0.5717936 0.18488,0.1862278 0.368585,0.3745879 0.530753,0.5813394 0.151888,0.1941991 0.28533,0.4018409 0.439123,0.5946941 0.1607,0.2105882 0.318195,0.4245478 0.502359,0.6156894 0.156693,0.1682927 0.31296,0.337638 0.451458,0.5215302 0.154194,0.2143157 0.25857,0.4589966 0.383286,0.6907181 0.152178,0.305707 0.288662,0.6184133 0.394654,0.943506 0.09836,0.2841585 0.208117,0.5704658 0.22382,0.8738629 0.01408,0.2923379 0.0047,0.5851697 -0.0162,0.8770307 -0.03407,0.368666 -0.09742,0.733184 -0.161555,1.09765 -0.05186,0.295551 -0.103369,0.592932 -0.205755,0.876128 -0.102228,0.281935 -0.219129,0.558196 -0.334177,0.835085 -0.107572,0.252034 -0.21774,0.503359 -0.344907,0.746254 -0.123573,0.230725 -0.250839,0.460577 -0.414177,0.66624 -0.154663,0.188823 -0.359307,0.324111 -0.533022,0.494197 -0.273492,0.270709 -0.528269,0.559779 -0.807337,0.82501 -0.132693,0.119477 -0.169946,0.159942 -0.31414,0.262947 -0.226854,0.162054 -0.476042,0.289387 -0.71657,0.429086 -0.307298,0.170615 -0.619086,0.332822 -0.945689,0.464021 -0.32415,0.132278 -0.649955,0.260599 -0.969878,0.40299 -0.213398,0.08881 -0.428917,0.172027 -0.662385,0.187213 -0.3247,0.02353 -0.64992,0.01337 -0.973984,-0.01734 C 9.8034164,17.710383 9.4829856,17.653121 9.1630753,17.592899 8.9109819,17.539633 8.6618687,17.473991 8.4218882,17.378872 8.1343197,17.268901 7.851895,17.144719 7.5876385,16.985524 7.3028433,16.810886 7.0289565,16.618728 6.7372332,16.455346 6.5035823,16.318594 6.2771683,16.176811 6.100323,15.966863 5.8862822,15.726401 5.6861114,15.474402 5.4824735,15.225164 5.2857373,14.981212 5.0858716,14.737286 4.9372146,14.459832 4.758246,14.13116 4.6008573,13.791803 4.4503919,13.44922 4.3062249,13.139648 4.1412972,12.840765 4.0037816,12.52821 3.8688816,12.193737 3.7504507,11.852599 3.6507978,11.505916 3.5784035,11.201984 3.5235549,10.8921 3.5352688,10.578255 3.5500669,10.099131 3.5942476,9.6200491 3.6805295,9.1482539 3.7980707,8.653967 3.9442509,8.1628691 4.1672057,7.7047862 4.2014925,7.6435005 4.2337918,7.5810593 4.2700664,7.5209285 4.4328357,7.2511133 4.6386871,7.0098739 4.819492,6.7525121 4.8912232,6.6577847 4.9447682,6.5835577 5.0234376,6.4940031 5.21052,6.2810342 5.430757,6.1022589 5.6544185,5.9294812 5.8907317,5.7400697 6.1201455,5.5471456 6.3393777,5.3378856 6.478626,5.2049708 6.6102115,5.0641114 6.7509074,4.9327302 6.8223677,4.8660007 6.8973151,4.8031066 6.9705193,4.7382951 7.4089698,4.384449 7.8741581,4.0642756 8.3585149,3.7762465 8.7280839,3.5764144 9.1121732,3.3983062 9.5248006,3.3076597 9.868056,3.241621 10.215529,3.2035988 10.563661,3.1734635 11.267832,3.1017408 11.166401,2.1058931 10.46223,2.1776158 Z" />
  </g>
</svg>
