<?xml version="1.0" encoding="UTF-8" standalone="no"?>
<!-- Created with Inkscape (http://www.inkscape.org/) -->

<svg
   width="80"
   height="80"
   viewBox="0 0 21.166666 21.166666"
   version="1.1"
   id="svg5"
   inkscape:version="1.2.2 (732a01da63, 2022-12-09)"
   sodipodi:docname="1.svg"
   xmlns:inkscape="http://www.inkscape.org/namespaces/inkscape"
   xmlns:sodipodi="http://sodipodi.sourceforge.net/DTD/sodipodi-0.dtd"
   xmlns="http://www.w3.org/2000/svg"
   xmlns:svg="http://www.w3.org/2000/svg">
  <sodipodi:namedview
     id="namedview7"
     pagecolor="#ffffff"
     bordercolor="#000000"
     borderopacity="0.25"
     inkscape:showpageshadow="2"
     inkscape:pageopacity="0.0"
     inkscape:pagecheckerboard="0"
     inkscape:deskcolor="#d1d1d1"
     inkscape:document-units="mm"
     showgrid="true"
     inkscape:zoom="5.6050184"
     inkscape:cx="84.923896"
     inkscape:cy="49.509204"
     inkscape:window-width="1280"
     inkscape:window-height="1850"
     inkscape:window-x="-11"
     inkscape:window-y="-11"
     inkscape:window-maximized="1"
     inkscape:current-layer="layer1">
    <inkscape:grid
       type="xygrid"
       id="grid175" />
  </sodipodi:namedview>
  <defs
     id="defs2" />
  <g
     inkscape:label="Layer 1"
     inkscape:groupmode="layer"
     id="layer1">
    <path
       style="fill:#000000;stroke-width:0.264583"
       id="path435"
       d="m 2.2955192,6.7956659 c 0.033883,0.4759077 0.049333,0.9532874 0.061476,1.4302322 0.0052,0.5923767 0.038827,1.1839906 0.049548,1.7761909 -0.00157,0.476292 0.00995,0.952236 0.024446,1.428226 0.0074,0.363899 0.00797,0.728097 -0.0026,1.091945 -0.020292,0.707523 0.9802968,0.73622 1.0005885,0.0287 v 0 c 0.010869,-0.383589 0.010769,-0.76752 0.00254,-1.151156 C 3.4171021,10.927846 3.4058784,10.455942 3.4073654,9.9836855 3.3962741,9.3890869 3.3632887,8.7950677 3.3576592,8.2002973 3.3445544,7.6904772 3.3292078,7.1799388 3.2887813,6.6715099 3.2009896,5.9691616 2.2077191,6.0933176 2.2955107,6.7956659 Z" />
    <path
       style="fill:#000000;stroke-width:0.264583"
       id="path437"
       d="M 3.3658585,10.092551 C 3.7775139,10.02818 4.191364,9.9792749 4.6045664,9.926163 5.2533991,9.8405774 5.9035886,9.7666081 6.5549112,9.7029316 7.2164553,9.6320408 7.8784208,9.5654986 8.5409258,9.5042483 c 0.6622751,-0.061357 1.3265849,-0.095813 1.9906452,-0.130996 0.675384,-0.017418 1.350762,-0.038188 2.026287,-0.049786 0.474632,-0.00593 0.949305,-0.0057 1.42396,-0.00876 0.447237,0.00146 0.894386,-0.00534 1.341621,-0.00374 0.444867,-0.00365 0.889434,0.015822 1.334191,0.019018 0.476643,-0.00396 0.953312,-0.00183 1.429962,-6.086e-4 0.336996,9.261e-4 0.673992,0.00132 1.010989,0.00153 0.156931,7.78e-5 0.313862,9.79e-5 0.470793,1.082e-4 0.707814,4.58e-5 0.707879,-1.0009541 6.5e-5,-1.0009999 v 0 C 19.41268,8.3300037 19.255921,8.3299836 19.099162,8.329906 18.762826,8.3297105 18.42649,8.3293239 18.090155,8.328396 17.614879,8.327176 17.139584,8.324996 16.664317,8.329031 16.218524,8.326301 15.77291,8.305822 15.327002,8.309997 14.87643,8.308407 14.425945,8.315147 13.975371,8.313747 13.49712,8.316827 13.01885,8.316577 12.540622,8.322637 11.853177,8.334511 11.165866,8.355321 10.478582,8.373678 9.8014482,8.4095991 9.1240688,8.4448712 8.4487617,8.5075296 7.7845009,8.5689584 7.1207693,8.6355845 6.4574755,8.7067145 5.7960796,8.7714253 5.135818,8.8464545 4.4769449,8.9333611 4.0528478,8.9878785 3.628091,9.0381287 3.2056236,9.1044886 2.5069371,9.2177916 2.6671719,10.205884 3.3658585,10.092581 Z" />
    <path
       style="fill:#000000;stroke-width:0.264583"
       id="path439"
       d="M 10.664448,4.351501 C 10.207903,4.3268709 9.7646079,4.4498127 9.333608,4.5846888 8.6886147,4.8143821 8.0935596,5.1801365 7.600607,5.6564206 7.4816861,5.7713205 7.3732749,5.8966224 7.2596088,6.0167231 6.7949968,6.5289053 6.4397635,7.128892 6.2002111,7.7774355 6.0462183,8.1943426 6.0281454,8.3425521 5.9340371,8.7684593 c -0.053148,0.3782624 -0.090547,0.5453856 -0.087839,0.9309994 0.00347,0.4939473 0.070129,1.0068323 0.2016921,1.4832853 0.046965,0.170081 0.1107813,0.335054 0.1661719,0.502581 0.245224,0.625557 0.5645031,1.226944 0.9874789,1.751551 0.064254,0.07969 0.133862,0.154918 0.2007928,0.232376 0.2529097,0.277473 0.5541492,0.502473 0.8834438,0.681174 0.081353,0.04415 0.162347,0.08978 0.2479101,0.125088 0.1217083,0.05022 0.2484292,0.0873 0.3726436,0.130954 0.7729334,0.234174 1.5811447,0.288461 2.3840127,0.294722 0.113707,-0.0049 0.228316,4.24e-4 0.341122,-0.01469 0.640888,-0.08583 1.260859,-0.32951 1.820933,-0.64568 0.142,-0.08016 0.277652,-0.171079 0.416478,-0.256618 0.437137,-0.289504 0.84775,-0.621394 1.20414,-1.006981 0.189245,-0.204749 0.219367,-0.256671 0.384024,-0.476819 0.198531,-0.300511 0.386189,-0.616278 0.499652,-0.96044 0.104607,-0.317299 0.116777,-0.451074 0.179062,-0.787248 0.1253,-0.742259 0.13575,-1.4945193 0.0874,-2.2436798 C 16.193294,8.1433423 16.126232,7.7809444 15.999782,7.4357496 15.926476,7.2356339 15.892283,7.1779669 15.799422,6.9879685 15.623246,6.6383145 15.397662,6.3194861 15.139569,6.026337 14.927408,5.7959122 14.680866,5.601372 14.432272,5.4122944 14.0439,5.1152131 13.628823,4.8573962 13.200339,4.6229746 12.869689,4.445305 12.517439,4.3195261 12.151576,4.2396298 c -0.373803,-0.069621 -0.755241,-0.066065 -1.1335,-0.050807 -0.08296,0.00478 -0.165914,0.00957 -0.248871,0.014351 -0.70663,0.040921 -0.648758,1.040247 0.05787,0.9993257 v 0 c 0.07781,-0.00453 0.155619,-0.00905 0.233428,-0.013578 0.293953,-0.013219 0.590528,-0.018084 0.88198,0.029625 0.27217,0.056149 0.53218,0.1533474 0.778238,0.2830438 0.385023,0.2096389 0.757336,0.4413459 1.106057,0.7078093 0.196809,0.1492793 0.393326,0.3014279 0.563808,0.481035 0.201258,0.2247329 0.373755,0.4721381 0.511483,0.7411101 0.06598,0.1314336 0.09517,0.181151 0.147396,0.3186909 0.100457,0.2645629 0.151543,0.5431345 0.174852,0.8245205 0.04489,0.667448 0.03599,1.3377815 -0.07352,1.9994479 -0.03993,0.226567 -0.05911,0.38545 -0.125887,0.599988 -0.08152,0.261894 -0.225308,0.500659 -0.371968,0.730026 -0.124892,0.17039 -0.149456,0.213137 -0.295153,0.372675 -0.29984,0.328325 -0.647255,0.609905 -1.016341,0.856528 -0.278404,0.17383 -0.421519,0.274715 -0.719245,0.414633 -0.235471,0.110661 -0.480966,0.195653 -0.731111,0.265865 -0.100514,0.02821 -0.201351,0.05758 -0.304664,0.07259 -0.09554,0.01388 -0.19288,0.0091 -0.289319,0.0137 -0.696287,-0.0039 -1.3980783,-0.04595 -2.0702925,-0.242053 -0.081772,-0.02596 -0.165536,-0.04633 -0.2453164,-0.07789 -0.066815,-0.02643 -0.1297374,-0.0619 -0.1932133,-0.09557 C 8.5541928,13.360528 8.3371528,13.207852 8.15722,13.01187 8.1047483,12.952216 8.0500383,12.894459 7.9998053,12.832907 7.6419783,12.394458 7.3729537,11.889578 7.1628147,11.366153 7.116823,11.232314 7.0636994,11.100716 7.0248395,10.964635 6.8412595,10.321761 6.8015058,9.6390763 6.9122522,8.9808144 6.9834071,8.6458347 7.0037345,8.494987 7.1214503,8.1689926 7.316399,7.6291143 7.6031269,7.1272706 7.9894614,6.7017867 8.0815105,6.6027238 8.1695106,6.4997382 8.2656086,6.404598 8.6527358,6.021329 9.1250438,5.7257648 9.635905,5.5389486 9.9462277,5.4391292 10.266127,5.3412789 10.595911,5.350149 c 0.706153,0.048462 0.77469,-0.9501883 0.06854,-0.998651 z" />
  </g>
</svg>
