<?xml version="1.0" encoding="UTF-8" standalone="no"?>
<!-- Created with Inkscape (http://www.inkscape.org/) -->

<svg
   width="80"
   height="80"
   viewBox="0 0 21.166666 21.166666"
   version="1.1"
   id="svg5"
   inkscape:version="1.2.2 (732a01da63, 2022-12-09)"
   sodipodi:docname="2.svg"
   xmlns:inkscape="http://www.inkscape.org/namespaces/inkscape"
   xmlns:sodipodi="http://sodipodi.sourceforge.net/DTD/sodipodi-0.dtd"
   xmlns="http://www.w3.org/2000/svg"
   xmlns:svg="http://www.w3.org/2000/svg">
  <sodipodi:namedview
     id="namedview7"
     pagecolor="#ffffff"
     bordercolor="#000000"
     borderopacity="0.25"
     inkscape:showpageshadow="2"
     inkscape:pageopacity="0.0"
     inkscape:pagecheckerboard="0"
     inkscape:deskcolor="#d1d1d1"
     inkscape:document-units="mm"
     showgrid="true"
     inkscape:zoom="5.6050184"
     inkscape:cx="84.923896"
     inkscape:cy="49.509204"
     inkscape:window-width="1280"
     inkscape:window-height="1850"
     inkscape:window-x="-11"
     inkscape:window-y="-11"
     inkscape:window-maximized="1"
     inkscape:current-layer="layer1">
    <inkscape:grid
       type="xygrid"
       id="grid175" />
  </sodipodi:namedview>
  <defs
     id="defs2" />
  <g
     inkscape:label="Layer 1"
     inkscape:groupmode="layer"
     id="layer1">
    <path
       style="fill:#000000;stroke-width:0.264583"
       id="path451"
       d="M 10.701861,4.0404359 C 10.232953,3.9966648 9.7707113,4.0811595 9.3150334,4.1820533 8.8609725,4.2880708 8.4110718,4.4227202 7.9848132,4.6137142 7.6803715,4.7501256 7.529651,4.8394426 7.2384938,4.9980802 6.7199819,5.3047793 6.2268112,5.6555735 5.7819268,6.0624894 5.5061942,6.3146894 5.4074491,6.4285277 5.1546204,6.6960249 4.7724946,7.1540845 4.4294615,7.6525786 4.1838821,8.1983976 4.0268442,8.5474259 3.9676985,8.7538096 3.8473414,9.1140144 3.6725608,9.6929455 3.5552623,10.289818 3.5177706,10.893921 c -0.020037,0.322863 -0.011687,0.448918 -0.00589,0.765941 0.031909,0.498343 0.1145963,1.003551 0.300841,1.469992 0.1594692,0.399383 0.2636608,0.551071 0.4768313,0.923582 0.388711,0.617923 0.8660424,1.173038 1.3991217,1.670383 0.2769981,0.25843 0.378746,0.331346 0.6660914,0.560996 0.097168,0.07007 0.1907498,0.145404 0.2915037,0.210213 0.535945,0.344743 1.1287921,0.617136 1.7278857,0.830659 0.1647624,0.05872 0.3324937,0.108756 0.4987407,0.163134 0.6416947,0.182947 1.2974539,0.329621 1.9611929,0.405771 0.394931,0.04531 0.499442,0.03969 0.899607,0.05135 0.586936,-0.01177 1.197698,-0.0056 1.761427,-0.19711 0.105603,-0.03587 0.206737,-0.08376 0.310106,-0.125633 0.740283,-0.374761 1.362285,-0.92634 1.961822,-1.490711 0.396673,-0.382749 0.768535,-0.790755 1.024729,-1.283435 0.179381,-0.344961 0.243066,-0.558708 0.373818,-0.921307 0.15487,-0.476423 0.288483,-0.962551 0.343676,-1.46178 0.02952,-0.266998 0.0254,-0.358359 0.03073,-0.625226 -0.0028,-0.497581 -0.04083,-0.994071 -0.103207,-1.48748 C 17.388037,9.8916383 17.265358,9.4458813 17.110664,9.0099149 16.870111,8.3778917 16.527324,7.7934353 16.166718,7.2239414 15.796149,6.6539662 15.370327,6.1235806 14.898099,5.6352955 14.55142,5.2715961 14.148707,4.9739692 13.725525,4.7065218 13.388261,4.4952306 13.02466,4.3346687 12.647347,4.2109241 12.398399,4.1311986 12.142559,4.0800654 11.883345,4.0494693 c -0.225232,-0.024995 -0.45186,-0.02164 -0.677973,-0.016711 -0.104461,-0.0031 -0.208904,-0.00665 -0.313367,-0.0097 -0.707515,-0.020582 -0.736621,0.9799955 -0.02911,1.0005769 v 0 c 0.121474,0.00353 0.242909,0.00848 0.364436,0.00988 0.1805,-0.00399 0.361441,-0.00851 0.541369,0.010366 0.193337,0.021532 0.383677,0.060555 0.569442,0.1190893 0.299494,0.095966 0.586829,0.2245849 0.854408,0.390865 0.356809,0.2231368 0.69544,0.4727482 0.987002,0.7783769 0.426114,0.4378621 0.807207,0.9166052 1.141981,1.4280742 0.321997,0.506177 0.628666,1.0254834 0.846494,1.5864374 0.132342,0.367247 0.235327,0.743186 0.275763,1.132818 0.05707,0.445722 0.09086,0.894326 0.09536,1.343833 -0.003,0.211943 5.82e-4,0.293234 -0.02128,0.504342 -0.04471,0.431644 -0.163045,0.851104 -0.29486,1.263096 -0.102633,0.290134 -0.15864,0.477044 -0.294698,0.75186 -0.204175,0.412401 -0.52188,0.74299 -0.847816,1.061361 -0.512096,0.483287 -1.039538,0.958457 -1.662709,1.296183 -0.06256,0.02778 -0.123289,0.06012 -0.187687,0.08333 -0.467061,0.168304 -0.981849,0.145186 -1.469,0.161763 -0.33913,-0.0086 -0.450746,-0.0039 -0.785072,-0.04161 C 10.369363,16.835287 9.769835,16.70218 9.1829021,16.537034 9.0327725,16.488366 8.8813763,16.443445 8.732513,16.391031 8.3219736,16.246483 7.9279651,16.067877 7.5449538,15.861487 7.4386892,15.804225 7.3322796,15.746803 7.2303673,15.682111 7.1432461,15.626808 7.0625212,15.56202 6.9785981,15.501975 6.7249653,15.30053 6.6335907,15.235305 6.388868,15.008463 5.9210405,14.574818 5.5002353,14.091997 5.156727,13.553421 5.0008168,13.285443 4.8812193,13.102313 4.7637662,12.817569 4.6101399,12.44513 4.5410104,12.039283 4.5126851,11.639902 4.5067902,11.370136 4.4992046,11.256344 4.5148282,10.982604 4.5449185,10.455668 4.6467167,9.9349813 4.7972572,9.4296877 4.8920161,9.1427598 4.9561659,8.9247526 5.0779753,8.6484951 5.2804297,8.1893393 5.5672553,7.7704637 5.8828839,7.3827748 6.1111844,7.1400473 6.1915685,7.0463309 6.4394809,6.8172189 6.829177,6.4570757 7.2637919,6.1489637 7.7184601,5.8765045 7.959945,5.7441366 8.1136457,5.6539156 8.3638434,5.5401776 8.7377504,5.3702021 9.1338097,5.252489 9.5329189,5.1590521 c 0.3416707,-0.076843 0.6857691,-0.1474729 1.0383481,-0.12617 0.701764,0.09234 0.832352,-0.9001058 0.130587,-0.9924451 z" />
    <path
       style="fill:#000000;stroke-width:0.264583"
       id="path453"
       d="m 3.8217871,12.051406 c 0.3290525,0.257718 0.7391527,0.344304 1.1429728,0.404388 0.5740995,0.05718 1.150226,0.09011 1.7252717,0.135901 0.5853707,0.04101 1.1668127,0.121202 1.747367,0.204444 0.4045929,0.05748 0.8092789,0.119526 1.2174284,0.14604 0.2220372,0.01442 0.354967,0.01469 0.575527,0.01909 0.645735,0.01271 1.287738,-0.0593 1.926827,-0.142306 0.52777,-0.06935 1.052754,-0.156895 1.576045,-0.253949 0.37678,-0.07359 0.7549,-0.140876 1.129668,-0.224337 0.276444,-0.05479 0.536748,-0.161403 0.79519,-0.270549 0.265959,-0.115817 0.536568,-0.219969 0.811236,-0.313062 0.156646,-0.05246 0.311041,-0.111198 0.46608,-0.168121 0.01,-0.0036 0.02,-0.0072 0.02999,-0.01081 0.66581,-0.240204 0.32611,-1.181801 -0.3397,-0.941597 v 0 c -0.01185,0.0043 -0.0237,0.0086 -0.03555,0.01284 -0.147159,0.05411 -0.29373,0.109876 -0.442413,0.159759 -0.29775,0.1011 -0.591304,0.213684 -0.879722,0.339129 -0.202826,0.08601 -0.405667,0.173497 -0.623194,0.215462 -0.362889,0.08122 -0.729359,0.145286 -1.094172,0.217085 -0.50553,0.09381 -1.012682,0.178483 -1.522544,0.245515 -0.589855,0.0768 -1.182268,0.145379 -1.77834,0.134137 -0.188573,-0.0035 -0.323623,-0.004 -0.5122326,-0.01586 C 9.3491909,11.920254 8.9643716,11.859361 8.5794375,11.805268 7.9780608,11.719083 7.375712,11.636512 6.7693748,11.593845 6.2156363,11.549875 5.6610479,11.516698 5.1079212,11.465085 4.8936198,11.435384 4.678077,11.401818 4.4837519,11.300537 3.9528077,10.832457 3.290843,11.583326 3.8217871,12.051406 Z" />
  </g>
</svg>
