<?xml version="1.0" encoding="UTF-8" standalone="no"?>
<!-- Created with Inkscape (http://www.inkscape.org/) -->

<svg
   width="80"
   height="80"
   viewBox="0 0 21.166666 21.166666"
   version="1.1"
   id="svg5"
   inkscape:version="1.2.2 (732a01da63, 2022-12-09)"
   sodipodi:docname="3.svg"
   xmlns:inkscape="http://www.inkscape.org/namespaces/inkscape"
   xmlns:sodipodi="http://sodipodi.sourceforge.net/DTD/sodipodi-0.dtd"
   xmlns="http://www.w3.org/2000/svg"
   xmlns:svg="http://www.w3.org/2000/svg">
  <sodipodi:namedview
     id="namedview7"
     pagecolor="#ffffff"
     bordercolor="#000000"
     borderopacity="0.25"
     inkscape:showpageshadow="2"
     inkscape:pageopacity="0.0"
     inkscape:pagecheckerboard="0"
     inkscape:deskcolor="#d1d1d1"
     inkscape:document-units="mm"
     showgrid="true"
     inkscape:zoom="5.6050184"
     inkscape:cx="84.923896"
     inkscape:cy="49.509204"
     inkscape:window-width="1280"
     inkscape:window-height="1850"
     inkscape:window-x="-11"
     inkscape:window-y="-11"
     inkscape:window-maximized="1"
     inkscape:current-layer="layer1">
    <inkscape:grid
       type="xygrid"
       id="grid175" />
  </sodipodi:namedview>
  <defs
     id="defs2" />
  <g
     inkscape:label="Layer 1"
     inkscape:groupmode="layer"
     id="layer1">
    <path
       style="fill:#000000;stroke-width:0.264583"
       id="path466"
       d="M 15.657942,6.2036282 C 15.509277,5.9123518 15.309465,5.6521513 15.109705,5.3948237 15.036409,5.3004045 14.96491,5.2044583 14.88752,5.1133642 14.796681,5.0064386 14.699371,4.9051831 14.605297,4.8010926 14.005035,4.2033806 13.289662,3.7262726 12.466308,3.4985711 12.289684,3.449725 12.1074,3.42432 11.927946,3.3871942 11.065763,3.29664 10.201339,3.4248852 9.3792729,3.6896611 9.2308057,3.7374803 9.0855397,3.7947211 8.9386732,3.8472512 8.157488,4.1635952 7.4673012,4.6514996 6.8617525,5.2335787 6.7413472,5.3493175 6.6285472,5.4727165 6.5119442,5.5922857 6.0160368,6.152399 5.5611841,6.7533048 5.1979226,7.4087947 5.1272228,7.5363699 5.0637894,7.6678384 4.9967226,7.7973604 4.6937289,8.4164399 4.4732987,9.0781321 4.3743665,9.7616472 4.3540703,9.901879 4.3434632,10.043343 4.3280115,10.184192 c -0.07244,0.89296 3.44e-4,1.768572 0.1282917,2.651797 0.081043,0.511412 0.2199436,1.010356 0.431899,1.483099 0.1125492,0.251028 0.1734232,0.350574 0.3044044,0.588681 0.2007558,0.336327 0.416071,0.667253 0.6763906,0.96126 0.1669733,0.188581 0.2133584,0.221679 0.398821,0.390398 0.3368569,0.285465 0.716307,0.513511 1.0879736,0.74965 0.3216036,0.215201 0.6559975,0.408469 1.003927,0.577493 0.3973557,0.194002 0.8299191,0.282381 1.2617527,0.359959 0.5269525,0.101047 1.0629425,0.08717 1.5959165,0.06354 0.700778,-0.0166 1.321644,-0.23658 1.965611,-0.488725 0.537546,-0.212162 1.061548,-0.456795 1.562424,-0.745046 0.415579,-0.242312 0.743804,-0.588316 1.048005,-0.954791 0.221318,-0.273285 0.410557,-0.569441 0.582487,-0.87555 0.161703,-0.284237 0.293544,-0.583069 0.40274,-0.890941 0.03742,-0.107618 0.0659,-0.217746 0.08776,-0.329433 0.128499,-0.696052 -0.855868,-0.877776 -0.984366,-0.181724 v 0 c -0.0082,0.06102 -0.03082,0.119479 -0.04747,0.178392 -0.08889,0.254292 -0.198809,0.50005 -0.331973,0.734482 -0.141836,0.253984 -0.298085,0.499653 -0.480554,0.726817 -0.227009,0.275706 -0.466156,0.541667 -0.777003,0.725781 -0.456948,0.264621 -0.937168,0.485393 -1.427788,0.680219 -0.533686,0.210036 -1.062914,0.409572 -1.644689,0.420522 -0.458943,0.0208 -0.920763,0.03805 -1.3747933,-0.04889 C 9.4558624,16.900273 9.1112114,16.837532 8.7956452,16.685477 8.4817737,16.534409 8.1823731,16.35752 7.8925885,16.164181 7.5679982,15.95796 7.2360308,15.759865 6.9378633,15.51576 6.8026575,15.395522 6.7611394,15.365288 6.639339,15.229831 6.4186757,14.984426 6.2391133,14.705104 6.0687513,14.42365 5.9561242,14.22089 5.9088488,14.144849 5.8114355,13.932253 5.6306767,13.537763 5.5154221,13.119984 5.4468709,12.691849 5.3305707,11.896458 5.2609863,11.094357 5.3233859,10.290167 5.3353345,10.173663 5.3430683,10.056648 5.3592309,9.9406529 5.4409088,9.3545024 5.627626,8.7868362 5.8864793,8.2559823 5.9443508,8.1431158 5.9989579,8.0285147 6.0600941,7.9173826 6.383076,7.3302724 6.7896199,6.7930347 7.2300049,6.2897022 7.3313294,6.184893 7.4293144,6.0767494 7.5339783,5.975275 8.0431261,5.4816422 8.6201765,5.0614976 9.2779341,4.7890064 9.4040821,4.7431846 9.5288104,4.693249 9.6563777,4.6515414 10.325424,4.4328 11.029231,4.3151673 11.733515,4.3691299 c 0.135377,0.025212 0.272906,0.040797 0.40613,0.07564 0.664437,0.1737746 1.238974,0.5530201 1.724931,1.0296225 0.331827,0.3625565 0.652785,0.7447992 0.896401,1.1735941 0.314209,0.6342501 1.211174,0.189892 0.896965,-0.4443583 z" />
    <path
       style="fill:#000000;stroke-width:0.264583"
       id="path478"
       d="M 14.033388,8.3034755 C 14.410424,8.0860134 14.767917,7.8329347 15.115721,7.5714991 15.477246,7.293661 15.832414,7.0075313 16.180171,6.7126497 16.379789,6.5347653 16.591505,6.3712933 16.795693,6.1989371 16.844991,6.1561 16.894441,6.1135188 16.94284,6.0696726 17.465758,5.5926434 16.791137,4.8531253 16.268218,5.3301545 v 0 c -0.03911,0.036177 -0.08037,0.069866 -0.120045,0.1054219 -0.203141,0.1735272 -0.416754,0.3349156 -0.615549,0.5137361 -0.332985,0.2826023 -0.673377,0.5564542 -1.019457,0.8228558 -0.297889,0.2252998 -0.605873,0.4395578 -0.924379,0.6344618 -0.634165,0.3143798 -0.189565,1.2112252 0.4446,0.8968454 z" />
    <path
       style="fill:#000000;stroke-width:0.264583"
       id="path480"
       d="m 14.707188,13.240902 c 0.343199,0.03975 0.6695,0.156059 0.992218,0.273534 0.362162,0.134719 0.718669,0.284803 1.053388,0.479009 0.129646,0.07522 0.25072,0.156349 0.376024,0.238107 0.140089,0.10035 0.283247,0.196423 0.423153,0.297021 0.575155,0.41255 1.158588,-0.400842 0.583434,-0.813392 v 0 C 17.98308,13.60612 17.828038,13.500848 17.67505,13.392725 17.516858,13.289892 17.398107,13.209982 17.231697,13.114438 16.852245,12.896577 16.449699,12.725093 16.039966,12.57315 c -0.396228,-0.142604 -0.797385,-0.280126 -1.218371,-0.326689 -0.703175,-0.0809 -0.817582,0.913543 -0.114407,0.994441 z" />
  </g>
</svg>
