<?xml version="1.0" encoding="UTF-8" standalone="no"?>
<!-- Created with Inkscape (http://www.inkscape.org/) -->

<svg
   width="80"
   height="80"
   viewBox="0 0 21.166666 21.166666"
   version="1.1"
   id="svg5"
   inkscape:version="1.2.2 (732a01da63, 2022-12-09)"
   sodipodi:docname="4.svg"
   xmlns:inkscape="http://www.inkscape.org/namespaces/inkscape"
   xmlns:sodipodi="http://sodipodi.sourceforge.net/DTD/sodipodi-0.dtd"
   xmlns="http://www.w3.org/2000/svg"
   xmlns:svg="http://www.w3.org/2000/svg">
  <sodipodi:namedview
     id="namedview7"
     pagecolor="#ffffff"
     bordercolor="#000000"
     borderopacity="0.25"
     inkscape:showpageshadow="2"
     inkscape:pageopacity="0.0"
     inkscape:pagecheckerboard="0"
     inkscape:deskcolor="#d1d1d1"
     inkscape:document-units="mm"
     showgrid="true"
     inkscape:zoom="5.6050184"
     inkscape:cx="84.923896"
     inkscape:cy="49.776822"
     inkscape:window-width="1258"
     inkscape:window-height="1290"
     inkscape:window-x="-11"
     inkscape:window-y="-11"
     inkscape:window-maximized="1"
     inkscape:current-layer="layer1">
    <inkscape:grid
       type="xygrid"
       id="grid175" />
  </sodipodi:namedview>
  <defs
     id="defs2" />
  <g
     inkscape:label="Layer 1"
     inkscape:groupmode="layer"
     id="layer1">
    <path
       style="fill:#000000;stroke-width:0.264583"
       id="path466"
       d="M 5.731476,6.032168 C 5.880141,5.7408916 6.079953,5.4806911 6.279713,5.2233635 6.353009,5.1289445 6.424508,5.0329981 6.501898,4.941904 6.592737,4.8349784 6.690047,4.7337229 6.784121,4.6296324 7.384383,4.0319204 8.099756,3.5548124 8.9231105,3.3271109 9.0997345,3.2782649 9.2820185,3.2528599 9.4614725,3.215734 10.323655,3.12518 11.188079,3.253425 12.010145,3.5182009 c 0.148467,0.047819 0.293733,0.10506 0.440599,0.1575901 0.781186,0.316344 1.471372,0.8042484 2.076921,1.3863275 0.120405,0.1157388 0.233205,0.2391378 0.349808,0.358707 0.495908,0.5601133 0.95076,1.1610191 1.314022,1.816509 0.0707,0.1275752 0.134133,0.2590437 0.2012,0.3885657 0.302994,0.6190795 0.523424,1.2807717 0.622356,1.9642868 0.0203,0.1402318 0.0309,0.2816958 0.04636,0.422545 0.07244,0.89296 -3.44e-4,1.768572 -0.128292,2.651797 -0.08104,0.511412 -0.219943,1.010356 -0.431899,1.483099 -0.112549,0.251028 -0.173423,0.350574 -0.304404,0.588681 -0.200756,0.336327 -0.416071,0.667253 -0.676391,0.96126 -0.166973,0.188581 -0.213358,0.221679 -0.398821,0.390398 -0.336857,0.285465 -0.716307,0.513511 -1.087973,0.74965 -0.321604,0.215201 -0.655998,0.408469 -1.003927,0.577493 -0.397356,0.194002 -0.829919,0.282381 -1.261753,0.359959 -0.526952,0.101047 -1.062942,0.08717 -1.595916,0.06354 C 9.4712575,17.822009 8.8503915,17.602029 8.206424,17.349884 7.668878,17.137722 7.144876,16.893089 6.644,16.604838 6.228421,16.362526 5.900196,16.016522 5.595995,15.650047 5.374677,15.376762 5.185438,15.080606 5.013508,14.774497 4.851805,14.49026 4.719964,14.191428 4.610768,13.883556 4.573348,13.775938 4.544868,13.66581 4.523008,13.554123 4.394509,12.858071 5.378876,12.676347 5.507374,13.372399 v 0 c 0.0082,0.06102 0.03082,0.119479 0.04747,0.178392 0.08889,0.254292 0.198809,0.50005 0.331973,0.734482 0.141836,0.253984 0.298085,0.499653 0.480554,0.726817 0.227009,0.275706 0.466156,0.541667 0.777003,0.725781 0.456948,0.264621 0.937168,0.485393 1.427788,0.680219 0.5336865,0.210036 1.0629145,0.409572 1.644689,0.420522 0.458943,0.0208 0.920763,0.03805 1.374793,-0.04889 0.341916,-0.06091 0.686567,-0.12365 1.002133,-0.275705 0.313872,-0.151068 0.613272,-0.327957 0.903057,-0.521296 0.32459,-0.206221 0.656558,-0.404316 0.954725,-0.648421 0.135206,-0.120238 0.176724,-0.150472 0.298525,-0.285929 0.220663,-0.245405 0.400225,-0.524727 0.570587,-0.806181 0.112627,-0.20276 0.159903,-0.278801 0.257316,-0.491397 0.180759,-0.39449 0.296013,-0.812269 0.364565,-1.240404 0.1163,-0.795391 0.185884,-1.597492 0.123485,-2.401682 -0.01195,-0.116504 -0.01968,-0.2335192 -0.03584,-0.3495143 C 15.948509,9.1830422 15.761792,8.615376 15.502938,8.0845221 15.445067,7.9716556 15.39046,7.8570545 15.329323,7.7459224 15.006342,7.1588122 14.599798,6.6215745 14.159413,6.118242 14.058088,6.0134328 13.960103,5.9052892 13.855439,5.8038148 13.346291,5.310182 12.769241,4.8900374 12.111483,4.6175462 11.985335,4.5717244 11.860607,4.5217888 11.73304,4.4800812 11.063994,4.2613398 10.360187,4.1437071 9.6559035,4.1976697 c -0.135377,0.025212 -0.272906,0.040797 -0.40613,0.07564 C 8.585336,4.4470843 8.010799,4.8263298 7.524842,5.3029322 7.193015,5.6654887 6.872057,6.0477314 6.628441,6.4765263 6.314232,7.1107764 5.417267,6.6664183 5.731476,6.032168 Z" />
    <path
       style="fill:#000000;stroke-width:0.264583"
       id="path478"
       d="M 7.35603,8.1320153 C 6.978994,7.9145532 6.621501,7.6614745 6.273697,7.4000389 5.912172,7.1222008 5.557004,6.8360711 5.209247,6.5411895 5.009629,6.3633051 4.797913,6.1998331 4.593725,6.0274769 4.544427,5.9846398 4.494977,5.9420586 4.446578,5.8982124 3.92366,5.4211832 4.598281,4.6816651 5.1212,5.1586943 v 0 c 0.03911,0.036177 0.08037,0.069866 0.120045,0.1054219 0.203141,0.1735272 0.416754,0.3349156 0.615549,0.5137361 0.332985,0.2826023 0.673377,0.5564542 1.019457,0.8228558 0.297889,0.2252998 0.605873,0.4395578 0.924379,0.6344618 0.634165,0.3143798 0.189565,1.2112252 -0.4446,0.8968454 z" />
    <path
       style="fill:#000000;stroke-width:0.264583"
       id="path480"
       d="m 6.68223,13.069442 c -0.343199,0.03975 -0.6695,0.156059 -0.992218,0.273534 -0.362162,0.134719 -0.718669,0.284803 -1.053388,0.479009 -0.129646,0.07522 -0.25072,0.156349 -0.376024,0.238107 -0.140089,0.10035 -0.283247,0.196423 -0.423153,0.297021 -0.575155,0.41255 -1.158588,-0.400842 -0.583434,-0.813392 v 0 C 3.406338,13.43466 3.56138,13.329388 3.714368,13.221265 3.87256,13.118432 3.991311,13.038522 4.157721,12.942978 4.537173,12.725117 4.939719,12.553633 5.349452,12.40169 5.74568,12.259086 6.146837,12.121564 6.567823,12.075001 c 0.703175,-0.0809 0.817582,0.913543 0.114407,0.994441 z" />
  </g>
</svg>
