<?xml version="1.0" encoding="UTF-8" standalone="no"?>
<!-- Created with Inkscape (http://www.inkscape.org/) -->

<svg
   width="80"
   height="80"
   viewBox="0 0 21.166666 21.166666"
   version="1.1"
   id="svg5"
   inkscape:version="1.2.2 (732a01da63, 2022-12-09)"
   sodipodi:docname="5.svg"
   xmlns:inkscape="http://www.inkscape.org/namespaces/inkscape"
   xmlns:sodipodi="http://sodipodi.sourceforge.net/DTD/sodipodi-0.dtd"
   xmlns="http://www.w3.org/2000/svg"
   xmlns:svg="http://www.w3.org/2000/svg">
  <sodipodi:namedview
     id="namedview7"
     pagecolor="#ffffff"
     bordercolor="#000000"
     borderopacity="0.25"
     inkscape:showpageshadow="2"
     inkscape:pageopacity="0.0"
     inkscape:pagecheckerboard="0"
     inkscape:deskcolor="#d1d1d1"
     inkscape:document-units="mm"
     showgrid="true"
     inkscape:zoom="5.6050184"
     inkscape:cx="84.923896"
     inkscape:cy="49.509204"
     inkscape:window-width="1258"
     inkscape:window-height="1290"
     inkscape:window-x="-11"
     inkscape:window-y="-11"
     inkscape:window-maximized="1"
     inkscape:current-layer="layer1">
    <inkscape:grid
       type="xygrid"
       id="grid175" />
  </sodipodi:namedview>
  <defs
     id="defs2" />
  <g
     inkscape:label="Layer 1"
     inkscape:groupmode="layer"
     id="layer1">
    <path
       style="fill:#000000;stroke-width:0.264583"
       id="path498"
       d="m 8.1419011,4.6394216 c 0.516776,-0.036639 1.0301155,-0.1066625 1.5448076,-0.163766 0.6014453,-0.068946 1.2057493,-0.1036759 1.8094733,-0.1447712 0.562574,-0.041732 1.124601,-0.089107 1.688238,-0.1138725 0.252952,-0.0102 0.50606,-0.015158 0.759176,-0.018703 0.707744,-0.00995 0.693668,-1.0108541 -0.01408,-1.000901 v 0 c -0.263145,0.00371 -0.526282,0.00891 -0.789254,0.019579 -0.571585,0.025352 -1.141604,0.072451 -1.712093,0.1152112 C 10.81028,3.3742942 10.19181,3.4101272 9.5762563,3.4807686 9.0624111,3.5378522 8.549905,3.6074723 8.0339892,3.644256 7.3303005,3.7205613 7.4382124,4.7157274 8.1419011,4.6394216 Z" />
    <path
       style="fill:#000000;stroke-width:0.264583"
       id="path500"
       d="m 10.435783,4.1803775 c 0.0985,0.6890075 0.170846,1.3819227 0.234318,2.0750273 0.08844,0.8809921 0.11195,1.7661929 0.120636,2.6509873 0.0022,0.8317572 -0.0056,1.6636399 0.0083,2.4953079 0.02088,0.608195 0.01481,1.217035 0.03685,1.825133 0.03917,0.510778 0.05803,1.022459 0.08263,1.53405 0.037,0.492522 0.04659,0.986282 0.06873,1.4795 0.02618,0.378738 0.05902,0.757007 0.09087,1.13531 0.02022,0.254031 0.03641,0.508453 0.04557,0.763137 0.0024,0.0753 0.0035,0.150621 0.0041,0.225949 0.0061,0.707787 1.00707,0.699151 1.000963,-0.0086 v 0 c -7.41e-4,-0.08458 -0.002,-0.16915 -0.0048,-0.253688 C 12.11405,17.831918 12.0972,17.561604 12.07551,17.291727 12.04474,16.926348 12.01326,16.560991 11.98715,16.195252 11.96468,15.701056 11.95551,15.206266 11.91828,14.71276 11.89378,14.204948 11.87551,13.696984 11.83613,13.190008 11.81357,12.588634 11.82131,11.986406 11.79982,11.38493 11.78578,10.555558 11.79412,9.7259568 11.79162,8.8964944 11.78252,7.9845137 11.75784,7.0721336 11.666853,6.1640627 11.599213,5.4269872 11.525027,4.6891302 11.411616,3.9576594 11.254104,3.2675938 10.278204,3.4903486 10.435716,4.1804142 Z" />
    <path
       style="fill:#000000;stroke-width:0.264583"
       id="path504"
       d="m 11.276948,6.5428695 c -0.344192,-0.00867 -0.681434,0.05821 -1.011892,0.1473904 C 9.9001063,6.8163082 9.5332948,6.9586196 9.197941,7.1526867 9.1058057,7.2060048 9.0176428,7.2659096 8.927494,7.3225212 8.4817671,7.6401331 8.0416563,7.971552 7.6428192,8.3475988 7.5651499,8.4208299 7.491156,8.4978638 7.4153246,8.5729965 7.0860438,8.9084228 6.7974339,9.2839666 6.5839966,9.7039349 6.543164,9.7842794 6.5080694,9.8674133 6.4701059,9.9491524 6.2976698,10.379347 6.1733823,10.827981 6.0832404,11.282171 c -0.055056,0.298208 -0.061074,0.601205 -0.015655,0.901127 0.027623,0.182407 0.061024,0.300023 0.1050634,0.477401 0.093885,0.320233 0.2053431,0.639403 0.3804409,0.925572 0.1267315,0.207121 0.1798183,0.256484 0.3355822,0.442604 0.2900804,0.292103 0.5620371,0.60568 0.8746852,0.874668 0.060375,0.05194 0.1238882,0.100125 0.1858325,0.150187 0.3398311,0.250863 0.7311334,0.414827 1.129506,0.54699 0.3622188,0.111335 0.7375477,0.166983 1.1125314,0.213812 0.4044,0.0457 0.811622,0.05857 1.218276,0.05241 0.421587,-0.0171 0.840677,-0.07047 1.255839,-0.143915 0.437155,-0.08141 0.858553,-0.227051 1.271949,-0.387848 0.345854,-0.139151 0.667025,-0.30438 0.968567,-0.523452 0.28807,-0.235232 0.529276,-0.519579 0.748859,-0.818021 0.219648,-0.30676 0.392847,-0.640617 0.53022,-0.99107 0.142608,-0.397514 0.213658,-0.815186 0.258091,-1.23371 0.03759,-0.440095 -0.0011,-0.881646 -0.05863,-1.318093 C 16.287811,9.933707 16.045935,9.4650368 15.786748,9.0132304 15.620859,8.7238958 15.426499,8.4527593 15.212048,8.1977782 15.05066,8.0119227 14.868067,7.8462131 14.684489,7.6828355 14.472154,7.4975219 14.241981,7.3342388 14.012051,7.171796 13.810225,7.033805 13.604239,6.9021782 13.391544,6.7816068 13.127925,6.6282781 12.852756,6.5502329 12.55585,6.48987 12.218777,6.4298057 11.879653,6.3890141 11.537864,6.3707827 10.831003,6.3340686 10.779082,7.3337213 11.485943,7.3704354 v 0 c 0.29345,0.014745 0.584184,0.051079 0.873775,0.1010317 0.190972,0.037246 0.369772,0.081028 0.539192,0.181525 0.183845,0.1035831 0.360995,0.2181598 0.535695,0.3364571 0.199494,0.1408306 0.399719,0.281744 0.584757,0.441455 0.148142,0.1315767 0.296194,0.2643555 0.427918,0.4127309 0.176879,0.2083049 0.335132,0.4315923 0.471669,0.6685206 0.195174,0.3386121 0.38498,0.6871783 0.473264,1.0712103 0.04858,0.358102 0.08209,0.720744 0.05517,1.082196 -0.03333,0.330593 -0.08823,0.660785 -0.196073,0.976053 -0.102372,0.27006 -0.238566,0.5245 -0.404592,0.761214 -0.158346,0.218321 -0.333153,0.425406 -0.536035,0.604056 -0.223424,0.170338 -0.479743,0.286139 -0.737254,0.395765 -0.352114,0.137894 -0.711072,0.263638 -1.083375,0.334841 -0.362623,0.0649 -0.728771,0.111245 -1.096971,0.128582 -0.359886,0.0064 -0.720321,-0.0058 -1.078311,-0.04489 -0.310904,-0.03849 -0.6224379,-0.08232 -0.9236187,-0.17145 C 9.1058107,14.557196 8.8235408,14.443492 8.5752439,14.272669 8.2386801,14.005894 7.9509659,13.686555 7.6511168,13.380278 7.5541017,13.269007 7.5082658,13.224961 7.4292562,13.102191 7.2944928,12.892788 7.2165148,12.653227 7.1435676,12.417149 7.0645363,12.106078 6.9966254,11.79546 7.0655655,11.474618 7.1382304,11.097377 7.2438547,10.725823 7.3799368,10.366533 7.5650782,9.9560522 7.7986564,9.6003905 8.1212914,9.2826516 8.5338308,8.8702741 8.9874689,8.5022385 9.4648262,8.1670765 9.5298984,8.124931 9.5931745,8.0798743 9.6600427,8.0406406 9.9332808,7.8803221 10.233372,7.763984 10.529833,7.6556062 10.755838,7.592229 10.985495,7.5440759 11.22142,7.5423283 c 0.706724,0.039263 0.76225,-0.9601954 0.05553,-0.9994588 z" />
  </g>
</svg>
