<?xml version="1.0" encoding="UTF-8" standalone="no"?>
<!-- Created with Inkscape (http://www.inkscape.org/) -->

<svg
   width="80"
   height="80"
   viewBox="0 0 21.166666 21.166666"
   version="1.1"
   id="svg5"
   inkscape:version="1.2.2 (732a01da63, 2022-12-09)"
   sodipodi:docname="6.svg"
   xmlns:inkscape="http://www.inkscape.org/namespaces/inkscape"
   xmlns:sodipodi="http://sodipodi.sourceforge.net/DTD/sodipodi-0.dtd"
   xmlns="http://www.w3.org/2000/svg"
   xmlns:svg="http://www.w3.org/2000/svg">
  <sodipodi:namedview
     id="namedview7"
     pagecolor="#ffffff"
     bordercolor="#000000"
     borderopacity="0.25"
     inkscape:showpageshadow="2"
     inkscape:pageopacity="0.0"
     inkscape:pagecheckerboard="0"
     inkscape:deskcolor="#d1d1d1"
     inkscape:document-units="mm"
     showgrid="true"
     inkscape:zoom="5.6050184"
     inkscape:cx="84.923896"
     inkscape:cy="49.509204"
     inkscape:window-width="1258"
     inkscape:window-height="1290"
     inkscape:window-x="-11"
     inkscape:window-y="-11"
     inkscape:window-maximized="1"
     inkscape:current-layer="layer1">
    <inkscape:grid
       type="xygrid"
       id="grid175" />
  </sodipodi:namedview>
  <defs
     id="defs2" />
  <g
     inkscape:label="Layer 1"
     inkscape:groupmode="layer"
     id="layer1">
    <path
       style="fill:#000000;stroke-width:0.264583"
       id="path518"
       d="M 8.8448509,4.7161555 C 8.4879335,4.6396036 8.1114722,4.6661696 7.7580103,4.7522756 7.6386456,4.7813539 7.5224901,4.8223053 7.4047299,4.85732 6.6521554,5.134226 5.9996223,5.6100225 5.3767669,6.1043473 4.9248679,6.4767777 4.5204022,6.9041173 4.1624162,7.3672673 4.0788153,7.4754273 4.0004817,7.5875583 3.9195147,7.6977035 3.5544831,8.246244 3.3107931,8.7944446 3.1857262,9.4438665 3.1087158,9.8437492 3.1104437,10.016557 3.0850207,10.41927 c -0.020799,0.607524 0.062359,1.211784 0.2362798,1.793626 0.092149,0.308279 0.1411886,0.409334 0.2607442,0.70344 0.2190261,0.483556 0.5026973,0.941735 0.8520528,1.342781 0.063281,0.07264 0.1319922,0.140374 0.197988,0.210561 0.4896546,0.438236 1.0542008,0.667268 1.6667546,0.872899 0.3766545,0.128761 0.7574581,0.247522 1.1514471,0.310581 0.2565066,0.04106 0.3539384,0.04208 0.6108178,0.05978 0.4757492,0.02835 0.9506625,-0.0091 1.4218018,-0.07284 0.3541511,-0.05972 0.7145362,-0.09344 1.0626882,-0.185225 0.07555,-0.01992 0.149692,-0.04484 0.224539,-0.06727 0.39268,-0.127557 0.74148,-0.343735 1.065706,-0.594612 0.312055,-0.248162 0.577343,-0.543176 0.812847,-0.863224 0.283702,-0.410146 0.475925,-0.870507 0.640272,-1.338573 0.176448,-0.518584 0.234223,-1.064902 0.287178,-1.606972 0.04961,-0.491937 0.05095,-0.9858431 0.02167,-1.4788304 C 13.574393,9.1050598 13.513485,8.7090524 13.415474,8.3205158 13.315087,7.934739 13.132102,7.5814827 12.927463,7.2422368 12.666029,6.8646875 12.332895,6.5440758 12.017551,6.2122454 11.809769,5.9854644 11.586655,5.7743981 11.34226,5.5877256 11.12839,5.4330263 10.892846,5.3127229 10.662568,5.1850625 10.489573,5.0894895 10.317266,4.992684 10.144578,4.8965614 10.018853,4.8161064 9.8865271,4.7527593 9.7448218,4.7060953 9.5737549,4.6626073 9.3991527,4.6342519 9.2250246,4.6060746 9.1246043,4.5924591 9.02649,4.5676764 8.9284957,4.5426418 8.2425811,4.3679374 7.9955119,5.3379674 8.6814267,5.5126715 v 0 c 0.1269479,0.032254 0.2543535,0.062967 0.3841663,0.081625 0.1274027,0.020481 0.2543339,0.04345 0.3811146,0.067376 0.077635,0.017333 0.1398349,0.075416 0.21108,0.1095523 0.1732272,0.096394 0.3460414,0.1935295 0.5195724,0.2893793 0.18875,0.1045676 0.381881,0.2027256 0.56019,0.3248223 0.202777,0.151982 0.382263,0.3308065 0.554392,0.5163789 0.266249,0.280167 0.545539,0.5515763 0.779698,0.8596312 0.155218,0.2539921 0.296509,0.5178266 0.37407,0.8071866 0.08508,0.3263479 0.131508,0.6606167 0.152915,0.9971421 0.02713,0.4405018 0.02529,0.8818188 -0.01877,1.3214388 -0.04491,0.462691 -0.08881,0.9303 -0.235947,1.374041 -0.130325,0.375831 -0.281137,0.746563 -0.503869,1.078542 -0.178115,0.247018 -0.38245,0.471884 -0.619866,0.663939 -0.225751,0.178102 -0.468563,0.33311 -0.742621,0.426597 -0.367433,0.115538 -0.7497988,0.160386 -1.1296166,0.217918 -0.4043934,0.05543 -0.8119996,0.08921 -1.2205404,0.0659 -0.1976337,-0.0125 -0.2928609,-0.01409 -0.4887063,-0.04409 C 7.2881986,14.616367 6.9510785,14.507139 6.6163911,14.393282 6.1708365,14.244839 5.7269681,14.079628 5.3574526,13.779863 5.0067662,13.416845 4.716019,12.998162 4.508414,12.53707 4.4062541,12.28965 4.367707,12.212226 4.288034,11.953226 4.1411427,11.475711 4.0691149,10.979201 4.0842226,10.479254 4.1069265,10.07632 4.1339322,9.678618 4.2463487,9.2881528 4.349638,8.9293905 4.52966,8.6035178 4.7270521,8.2892148 5.1001257,7.7778096 5.505057,7.2876351 5.9997818,6.8878359 c 0.5243798,-0.4178726 1.0711863,-0.82566 1.6994293,-1.073812 0.079236,-0.025622 0.1570657,-0.056085 0.2377065,-0.076866 0.2090851,-0.05388 0.4357766,-0.08424 0.650649,-0.053632 0.6840339,0.181928 0.9413192,-0.7854423 0.2572843,-0.9673704 z" />
    <path
       style="fill:#000000;stroke-width:0.264583"
       id="path520"
       d="m 13.511243,10.102289 c 0.538821,0.02699 1.078004,0.01564 1.616802,-0.0039 0.614731,-0.03127 1.229047,-0.07427 1.841164,-0.1393444 0.171639,-0.01941 0.342585,-0.044089 0.513368,-0.069786 C 18.182485,9.7837611 18.033289,8.7939421 17.333381,8.89944 v 0 c -0.156433,0.023625 -0.31302,0.04627 -0.470227,0.064239 -0.588969,0.062905 -1.180133,0.1037103 -1.771606,0.1343755 -0.515271,0.01892 -1.030903,0.029948 -1.546199,0.00382 -0.707403,-0.024117 -0.741509,0.9763025 -0.03411,1.0004185 z" />
    <path
       style="fill:#000000;stroke-width:0.264583"
       id="path522"
       d="m 16.997046,7.1440965 c 0.0119,0.059107 0.02592,0.1178256 0.03569,0.1773206 0.04916,0.2992056 0.0767,0.5461008 0.110509,0.8524433 0.05597,0.5072179 0.102532,1.0154819 0.15244,1.5233176 0.07221,0.845671 0.149303,1.690943 0.219111,2.536818 0.0052,0.06607 0.0104,0.132129 0.0156,0.198193 0.05556,0.70563 1.053471,0.627057 0.997911,-0.07857 v 0 c -0.0053,-0.06732 -0.0106,-0.134644 -0.01591,-0.201966 C 18.442137,11.300591 18.364653,10.450127 18.291878,9.5992794 18.241358,9.0852093 18.194418,8.5706672 18.137423,8.0572589 18.100663,7.7261392 18.069013,7.4444497 18.01304,7.1189535 17.99941,7.0397205 17.97992,6.9616079 17.96336,6.8829351 17.778689,6.1996365 16.812359,6.4608009 16.99703,7.1440995 Z" />
  </g>
</svg>
