<?xml version="1.0" encoding="UTF-8" standalone="no"?>
<!-- Created with Inkscape (http://www.inkscape.org/) -->

<svg
   width="80"
   height="80"
   viewBox="0 0 21.166666 21.166666"
   version="1.1"
   id="svg5"
   inkscape:version="1.2.2 (732a01da63, 2022-12-09)"
   sodipodi:docname="7.svg"
   xmlns:inkscape="http://www.inkscape.org/namespaces/inkscape"
   xmlns:sodipodi="http://sodipodi.sourceforge.net/DTD/sodipodi-0.dtd"
   xmlns="http://www.w3.org/2000/svg"
   xmlns:svg="http://www.w3.org/2000/svg">
  <sodipodi:namedview
     id="namedview7"
     pagecolor="#ffffff"
     bordercolor="#000000"
     borderopacity="0.25"
     inkscape:showpageshadow="2"
     inkscape:pageopacity="0.0"
     inkscape:pagecheckerboard="0"
     inkscape:deskcolor="#d1d1d1"
     inkscape:document-units="mm"
     showgrid="true"
     inkscape:zoom="5.6050184"
     inkscape:cx="84.923896"
     inkscape:cy="49.687616"
     inkscape:window-width="1258"
     inkscape:window-height="1290"
     inkscape:window-x="-11"
     inkscape:window-y="-11"
     inkscape:window-maximized="1"
     inkscape:current-layer="layer1">
    <inkscape:grid
       type="xygrid"
       id="grid175" />
  </sodipodi:namedview>
  <defs
     id="defs2" />
  <g
     inkscape:label="Layer 1"
     inkscape:groupmode="layer"
     id="layer1">
    <path
       style="fill:#000000;stroke-width:0.264583"
       id="path540"
       d="M 10.752245,3.1089208 C 10.378438,2.9189389 9.9603022,2.9680656 9.5708593,3.0844468 9.4464263,3.1216319 9.3262459,3.1717929 9.2039391,3.2154661 8.5689526,3.4873096 7.9790368,3.8620586 7.4690157,4.3288174 7.3621859,4.4265855 7.2625838,4.5319687 7.159368,4.6335444 6.6335978,5.2087621 6.2018515,5.8700593 5.8953053,6.5874613 5.8287805,6.7431472 5.7742595,6.9036924 5.7137365,7.0618079 5.5215154,7.6231209 5.3836302,8.2121538 5.4111133,8.8097306 c 0.01533,0.3333401 0.055889,0.4549651 0.1262036,0.7770003 0.1841333,0.6771691 0.5217586,1.2933251 0.900625,1.8785781 0.2619525,0.386098 0.5605375,0.744964 0.9128331,1.051874 0.1989738,0.17334 0.2746975,0.219774 0.48788,0.372052 0.3038364,0.2025 0.6162596,0.396286 0.9552064,0.535197 0.2862726,0.117323 0.4116258,0.148039 0.7093204,0.239158 0.4375042,0.123867 0.8880122,0.203642 1.3436402,0.207509 0.261035,0.0022 0.355724,-0.01352 0.614748,-0.03815 0.464859,-0.06135 0.926643,-0.160135 1.371385,-0.310272 0.334933,-0.113066 0.442425,-0.167873 0.762767,-0.307514 0.62043,-0.31533 1.172868,-0.756303 1.625774,-1.284686 0.07679,-0.08959 0.146585,-0.184943 0.219877,-0.277415 0.242377,-0.334065 0.450319,-0.694036 0.579342,-1.087625 0.0809,-0.246797 0.10208,-0.381656 0.155345,-0.6348293 C 16.300957,9.2812176 16.285514,8.6220006 16.22357,7.9673793 16.180745,7.5877107 16.100947,7.212005 15.960502,6.8558618 15.880967,6.6541771 15.823168,6.5482239 15.727138,6.3551723 15.511958,5.9409435 15.274059,5.539228 14.992851,5.1664547 14.731,4.8548057 14.416186,4.5933611 14.101458,4.3373042 13.897129,4.1709236 13.686234,4.0131626 13.469012,3.8640906 13.275208,3.7364479 13.07048,3.6265392 12.867214,3.5149541 12.677797,3.4088728 12.485533,3.3081034 12.292116,3.2095564 12.081167,3.1048835 11.856398,3.0340382 11.628981,2.9756367 11.347863,2.9027138 11.058048,2.8822684 10.769144,2.868577 10.718164,2.8680478 10.66718,2.867497 10.616198,2.866967 9.9084076,2.861157 9.9001862,3.8621199 10.607998,3.8679333 v 0 c 0.03817,1.902e-4 0.07633,3.704e-4 0.114497,5.821e-4 0.221566,0.010157 0.444359,0.022061 0.66021,0.077374 0.155743,0.038886 0.309871,0.086097 0.455034,0.1556141 0.184258,0.093864 0.367422,0.1898325 0.547821,0.2909674 0.174377,0.095713 0.350135,0.1897004 0.517556,0.2973204 0.194923,0.1334043 0.383688,0.2752381 0.566967,0.424289 0.253243,0.2056535 0.506973,0.4145656 0.725517,0.6576762 0.246185,0.3215494 0.446971,0.6737093 0.636255,1.0311375 0.07206,0.1431965 0.126242,0.2435053 0.186481,0.3910539 0.113336,0.2775993 0.174582,0.5720472 0.208838,0.8691391 0.05416,0.5546442 0.07143,1.1133322 -0.03125,1.6643622 -0.03983,0.1957353 -0.05635,0.3024248 -0.114193,0.4912268 -0.09072,0.296138 -0.249462,0.56419 -0.42729,0.815784 -0.05704,0.07333 -0.111193,0.148991 -0.17112,0.219977 -0.358963,0.425207 -0.797217,0.783972 -1.289214,1.04386 -0.265746,0.117066 -0.374609,0.171703 -0.650831,0.266242 -0.382406,0.130882 -0.779837,0.217212 -1.179778,0.272251 -0.189791,0.0195 -0.284108,0.03422 -0.473828,0.03425 -0.371544,5.4e-5 -0.738627,-0.06468 -1.0954398,-0.165188 C 9.5493154,12.632078 9.4400588,12.605223 9.2068088,12.512602 8.925889,12.401052 8.6695575,12.238166 8.4179412,12.072907 8.2429209,11.94974 8.1917581,11.919761 8.0278903,11.77997 7.7363226,11.531242 7.493483,11.235599 7.2773732,10.920027 6.9612139,10.435292 6.6762716,9.9256166 6.5138032,9.366579 6.464796,9.1582273 6.4258128,9.0325849 6.412072,8.818945 6.3812477,8.3396967 6.4981266,7.8671604 6.6496728,7.4168322 6.6999542,7.2828197 6.7450263,7.1467349 6.8005173,7.0147944 7.0577249,6.4032341 7.4214463,5.8382561 7.863715,5.3448322 7.9488516,5.2598875 8.030914,5.1717463 8.1191242,5.0899983 8.5386221,4.7012328 9.024436,4.3876071 9.5466984,4.1559773 9.7349386,4.0854926 9.8333138,4.040066 10.021031,3.9972559 c 0.04219,-0.00962 0.08578,-0.011536 0.128512,-0.018365 0.01608,-0.00257 0.03157,-0.00929 0.04784,-0.00982 0.02162,-6.879e-4 0.04871,0.00897 0.06962,0.015396 0.619089,0.3431172 1.10433,-0.5324065 0.485241,-0.8755237 z" />
    <path
       style="fill:#000000;stroke-width:0.264583"
       id="path542"
       d="m 10.240373,13.653546 c 0.03457,0.417579 0.05115,0.83639 0.07336,1.254748 0.04078,0.546984 0.03445,1.095453 0.0439,1.643411 0.01392,0.417104 0.0041,0.834362 -0.0049,1.251438 -0.0024,0.072 -0.0057,0.143978 -0.01755,0.215081 -0.09976,0.700748 0.891245,0.841834 0.991008,0.141086 v 0 c 0.01478,-0.111024 0.026,-0.222307 0.02731,-0.334484 0.0093,-0.430077 0.01912,-0.860346 0.005,-1.290452 -0.0097,-0.559873 -0.0036,-1.120265 -0.04516,-1.679147 -0.02291,-0.431446 -0.04001,-0.863365 -0.07621,-1.293969 -0.06526,-0.704799 -1.061995,-0.612511 -0.996737,0.09229 z" />
    <path
       style="fill:#000000;stroke-width:0.264583"
       id="path544"
       d="m 8.0516962,18.6162 c 0.4304723,0.06942 0.8623186,0.129557 1.2947898,0.185069 0.5618038,0.06957 1.12699,0.10555 1.691908,0.138312 0.406135,0.02358 0.812787,0.03285 1.219389,0.0435 0.249982,0.0056 0.497228,0.04552 0.74419,0.08115 0.217273,0.03437 0.435731,0.05945 0.654772,0.0791 0.01572,0.0014 0.03144,0.0028 0.04716,0.0041 0.705118,0.06172 0.7924,-0.93547 0.08728,-0.997188 v 0 c -0.01504,-0.0013 -0.03008,-0.0026 -0.04512,-0.0039 -0.201123,-0.01799 -0.401682,-0.04104 -0.601147,-0.07283 -0.285668,-0.04122 -0.57181,-0.08526 -0.86098,-0.09107 -0.396017,-0.01034 -0.792084,-0.01924 -1.187649,-0.04216 -0.541704,-0.03136 -1.083695,-0.0655 -1.6224487,-0.131853 -0.43621,-0.05592 -0.8715621,-0.117755 -1.3059375,-0.186436 -0.7030278,-0.08217 -0.8192392,0.912057 -0.1162116,0.994231 z" />
  </g>
</svg>
