<?xml version="1.0" encoding="UTF-8" standalone="no"?>
<!-- Created with Inkscape (http://www.inkscape.org/) -->

<svg
   width="80"
   height="80"
   viewBox="0 0 21.166666 21.166666"
   version="1.1"
   id="svg5"
   inkscape:version="1.2.2 (732a01da63, 2022-12-09)"
   sodipodi:docname="8.svg"
   xmlns:inkscape="http://www.inkscape.org/namespaces/inkscape"
   xmlns:sodipodi="http://sodipodi.sourceforge.net/DTD/sodipodi-0.dtd"
   xmlns="http://www.w3.org/2000/svg"
   xmlns:svg="http://www.w3.org/2000/svg">
  <sodipodi:namedview
     id="namedview7"
     pagecolor="#ffffff"
     bordercolor="#000000"
     borderopacity="0.25"
     inkscape:showpageshadow="2"
     inkscape:pageopacity="0.0"
     inkscape:pagecheckerboard="0"
     inkscape:deskcolor="#d1d1d1"
     inkscape:document-units="mm"
     showgrid="true"
     inkscape:zoom="5.6050184"
     inkscape:cx="84.923896"
     inkscape:cy="50.133645"
     inkscape:window-width="1258"
     inkscape:window-height="1290"
     inkscape:window-x="-11"
     inkscape:window-y="-11"
     inkscape:window-maximized="1"
     inkscape:current-layer="layer1">
    <inkscape:grid
       type="xygrid"
       id="grid175" />
  </sodipodi:namedview>
  <defs
     id="defs2" />
  <g
     inkscape:label="Layer 1"
     inkscape:groupmode="layer"
     id="layer1">
    <path
       style="fill:#000000;stroke-width:0.264583"
       id="path518"
       d="m 13.758202,4.7161531 c -0.356918,-0.076552 -0.733379,-0.049986 -1.086841,0.03612 -0.119365,0.029078 -0.23552,0.07003 -0.353281,0.105044 -0.752574,0.276906 -1.405107,0.752703 -2.027962,1.247028 -0.4518993,0.37243 -0.8563653,0.79977 -1.2143513,1.26292 -0.0836,0.10816 -0.161935,0.220291 -0.242902,0.330436 -0.365031,0.54854 -0.608721,1.096741 -0.733788,1.746163 -0.07701,0.399883 -0.07528,0.5726899 -0.100706,0.9754029 -0.0208,0.607524 0.06236,1.211784 0.23628,1.793626 0.09215,0.308279 0.141189,0.409334 0.260744,0.70344 0.219027,0.483556 0.502698,0.941735 0.852053,1.342781 0.06328,0.07264 0.131992,0.140374 0.197988,0.210561 0.4896553,0.438236 1.0542013,0.667268 1.6667553,0.872899 0.376654,0.128761 0.757458,0.247522 1.151447,0.310581 0.256506,0.04106 0.353938,0.04208 0.610817,0.05978 0.47575,0.02835 0.950663,-0.0091 1.421803,-0.07284 0.354151,-0.05972 0.714536,-0.09344 1.062688,-0.185225 0.07555,-0.01992 0.149692,-0.04484 0.224539,-0.06727 0.39268,-0.127557 0.74148,-0.343735 1.065706,-0.594612 0.312055,-0.248162 0.577343,-0.543176 0.812847,-0.863224 0.283702,-0.410146 0.475925,-0.870507 0.640272,-1.338573 0.176448,-0.518584 0.234223,-1.064902 0.287178,-1.606972 0.04961,-0.491937 0.05095,-0.9858429 0.02167,-1.4788299 -0.02341,-0.400332 -0.08432,-0.796339 -0.182333,-1.184876 -0.100387,-0.385777 -0.283372,-0.739033 -0.488011,-1.078279 -0.261434,-0.377549 -0.594568,-0.698161 -0.909912,-1.029991 -0.207782,-0.226781 -0.430896,-0.437847 -0.675291,-0.62452 -0.21387,-0.154699 -0.449414,-0.275003 -0.679692,-0.402663 -0.172995,-0.09557 -0.345302,-0.192379 -0.51799,-0.288501 -0.125725,-0.08045 -0.258051,-0.143802 -0.399756,-0.190466 -0.171067,-0.04349 -0.34567,-0.07184 -0.519798,-0.100021 -0.10042,-0.01361 -0.198534,-0.0384 -0.296529,-0.06343 -0.685914,-0.174704 -0.932984,0.795326 -0.247069,0.97003 v 0 c 0.126948,0.03225 0.254354,0.06297 0.384167,0.08163 0.127402,0.02048 0.254334,0.04345 0.381114,0.06738 0.07763,0.01733 0.139835,0.07542 0.21108,0.109552 0.173228,0.09639 0.346042,0.19353 0.519573,0.28938 0.18875,0.104567 0.381881,0.202725 0.56019,0.324822 0.202777,0.151982 0.382263,0.330806 0.554392,0.516379 0.266249,0.280167 0.545539,0.551576 0.779698,0.859631 0.155218,0.253992 0.296509,0.517827 0.37407,0.807187 0.08508,0.326347 0.131508,0.660616 0.152915,0.997142 0.02713,0.4405009 0.02529,0.8818179 -0.01877,1.3214379 -0.04491,0.462691 -0.08881,0.9303 -0.235947,1.374041 -0.130325,0.375831 -0.281137,0.746563 -0.503869,1.078542 -0.178115,0.247018 -0.38245,0.471884 -0.619866,0.663939 -0.225751,0.178102 -0.468563,0.33311 -0.742621,0.426597 -0.367433,0.115538 -0.749799,0.160386 -1.129617,0.217918 -0.404393,0.05543 -0.811999,0.08921 -1.220541,0.0659 -0.197633,-0.0125 -0.29286,-0.01409 -0.488706,-0.04409 -0.35049,-0.05368 -0.68761,-0.162912 -1.022297,-0.276769 -0.445555,-0.148443 -0.889423,-0.313654 -1.258939,-0.613419 -0.3506863,-0.363018 -0.6414333,-0.781701 -0.8490383,-1.242793 -0.10216,-0.24742 -0.140707,-0.324844 -0.22038,-0.583844 -0.146892,-0.477515 -0.218919,-0.974025 -0.203812,-1.473972 0.0227,-0.402934 0.04971,-0.8006359 0.162126,-1.1911009 0.10329,-0.358762 0.283312,-0.684635 0.480704,-0.998938 0.3730733,-0.511405 0.7780053,-1.001579 1.2727303,-1.401379 0.524379,-0.417872 1.071186,-0.82566 1.699429,-1.073812 0.07924,-0.02562 0.157065,-0.05608 0.237706,-0.07687 0.209085,-0.05388 0.435777,-0.08424 0.650649,-0.05363 0.684034,0.181928 0.94132,-0.785442 0.257285,-0.96737 z" />
    <path
       style="fill:#000000;stroke-width:0.264583"
       id="path520"
       d="m 4.1874077,11.336695 c 0.538821,0.02699 1.078004,0.01564 1.616803,-0.0039 0.614731,-0.03127 1.229047,-0.07427 1.841164,-0.139344 0.171639,-0.01941 0.342585,-0.04409 0.513368,-0.06979 0.699908,-0.105497 0.550712,-1.095316 -0.149196,-0.989819 v 0 c -0.156433,0.02362 -0.31302,0.04627 -0.470227,0.06424 -0.588969,0.0629 -1.180133,0.103711 -1.771606,0.134376 -0.515272,0.01892 -1.030904,0.02995 -1.5462,0.0038 -0.707403,-0.02412 -0.741509,0.976302 -0.03411,1.000418 z" />
    <path
       style="fill:#000000;stroke-width:0.264583"
       id="path522"
       d="m 3.1052387,7.9817996 c 0.0119,0.05911 0.02592,0.117826 0.03569,0.177321 0.04916,0.299205 0.0767,0.5461 0.110509,0.852443 0.05597,0.507218 0.102532,1.0154824 0.15244,1.5233174 0.07221,0.845671 0.149303,1.690943 0.219111,2.536818 0.0052,0.06607 0.0104,0.132129 0.0156,0.198193 0.05556,0.70563 1.053471,0.627057 0.997911,-0.07857 v 0 c -0.0053,-0.06732 -0.0106,-0.134644 -0.01591,-0.201966 -0.07026,-0.851062 -0.147744,-1.701526 -0.220519,-2.552373 -0.05052,-0.5140704 -0.09746,-1.0286124 -0.154455,-1.5420214 -0.03676,-0.331119 -0.06841,-0.612809 -0.124383,-0.938305 -0.01363,-0.07923 -0.03312,-0.157346 -0.04968,-0.236018 -0.184671,-0.683299 -1.151001,-0.422135 -0.96633,0.261164 z" />
  </g>
</svg>
