<?xml version="1.0" encoding="UTF-8" standalone="no"?>
<!-- Created with Inkscape (http://www.inkscape.org/) -->

<svg
   width="80"
   height="80"
   viewBox="0 0 21.166666 21.166666"
   version="1.1"
   id="svg5"
   inkscape:version="1.2.2 (732a01da63, 2022-12-09)"
   sodipodi:docname="j.svg"
   xmlns:inkscape="http://www.inkscape.org/namespaces/inkscape"
   xmlns:sodipodi="http://sodipodi.sourceforge.net/DTD/sodipodi-0.dtd"
   xmlns="http://www.w3.org/2000/svg"
   xmlns:svg="http://www.w3.org/2000/svg">
  <sodipodi:namedview
     id="namedview7"
     pagecolor="#ffffff"
     bordercolor="#000000"
     borderopacity="0.25"
     inkscape:showpageshadow="2"
     inkscape:pageopacity="0.0"
     inkscape:pagecheckerboard="0"
     inkscape:deskcolor="#d1d1d1"
     inkscape:document-units="mm"
     showgrid="true"
     inkscape:zoom="5.6050184"
     inkscape:cx="85.013102"
     inkscape:cy="51.114908"
     inkscape:window-width="1258"
     inkscape:window-height="1290"
     inkscape:window-x="-11"
     inkscape:window-y="-11"
     inkscape:window-maximized="1"
     inkscape:current-layer="layer1">
    <inkscape:grid
       type="xygrid"
       id="grid175" />
  </sodipodi:namedview>
  <defs
     id="defs2" />
  <g
     inkscape:label="Layer 1"
     inkscape:groupmode="layer"
     id="layer1">
    <path
       style="fill:#000000;stroke-width:0.264583"
       id="path870"
       d="M 7.4801147,4.8591117 C 8.2411918,4.7049152 9.0167157,4.6380471 9.7878224,4.5545343 10.738619,4.4429693 11.691782,4.3529712 12.647462,4.296584 c 0.225808,-0.011758 0.451927,-0.01556 0.677962,-0.010713 0.707665,0.014481 0.728145,-0.9863093 0.02048,-1.0007907 v 0 c -0.252573,-0.00496 -0.505228,-0.0013 -0.757535,0.01225 C 11.616445,3.3549338 10.647006,3.4457735 9.6800365,3.5593549 8.8760386,3.6464367 8.0676215,3.7172217 7.2743437,3.8794901 6.5816463,4.0249916 6.7874162,5.0046138 7.4801136,4.8591125 Z" />
    <path
       style="fill:#000000;stroke-width:0.264583"
       id="path872"
       d="m 10.068006,4.4208131 c 0.08275,0.7447269 0.175034,1.4883659 0.265241,2.2322448 0.107409,0.9368054 0.203247,1.8752902 0.278686,2.8152531 0.0499,0.690996 0.09553,1.381996 0.114563,2.074574 0.02734,0.673374 0.03339,1.347152 0.04174,2.020929 0.0013,0.31818 4.5e-4,0.636979 -0.01552,0.954872 -0.0043,0.0854 -0.0067,0.171162 -0.01834,0.255873 -0.0248,0.180134 -0.07629,0.338411 -0.125521,0.512968 -0.03516,0.07152 -0.06216,0.147672 -0.105476,0.214569 -0.116737,0.18028 -0.342341,0.370898 -0.5299571,0.47211 -0.1465853,0.07908 -0.2406698,0.08645 -0.4012533,0.119938 -0.076721,0.002 -0.1535801,0.01102 -0.2301643,0.006 C 9.1786037,16.089474 8.910322,16.030473 8.7578699,15.992652 8.4505481,15.916409 8.1598401,15.811276 7.8665895,15.693665 7.6512887,15.583122 7.4589888,15.433669 7.3114801,15.239782 7.1023291,14.964872 6.9659147,14.634857 6.8208297,14.324586 6.6895281,14.021523 6.5601627,13.717632 6.4295744,13.414262 6.149713,12.764126 5.2302806,13.159909 5.5101421,13.810047 v 0 c 0.1349044,0.313387 0.2682941,0.627423 0.4046854,0.94017 0.1939962,0.411259 0.3822769,0.825901 0.6729318,1.181106 0.2453483,0.299836 0.5616482,0.52549 0.9083936,0.692276 0.3462616,0.137139 0.690639,0.26196 1.0538767,0.348238 0.272805,0.0648 0.5723409,0.124183 0.853785,0.127408 0.1369203,0.0016 0.2729431,-0.02237 0.4094147,-0.03356 0.3391657,-0.09155 0.4303387,-0.09189 0.7388087,-0.274654 0.348403,-0.206425 0.659509,-0.521208 0.861273,-0.871778 0.06641,-0.115383 0.107028,-0.243796 0.160543,-0.365694 0.0806,-0.29766 0.118308,-0.398526 0.15906,-0.708878 0.0128,-0.09745 0.0154,-0.195987 0.02029,-0.294148 0.01657,-0.332636 0.01733,-0.666192 0.01595,-0.999123 -0.0084,-0.678863 -0.01458,-1.357728 -0.04204,-2.036185 -0.01974,-0.710099 -0.06592,-1.418627 -0.117397,-2.1270922 C 11.533009,8.4347168 11.436133,7.4827621 11.326966,6.5325542 11.235849,5.781168 11.143125,5.029972 11.058739,4.2778248 10.95763,3.5772695 9.9668958,3.7202588 10.068005,4.4208141 Z" />
  </g>
</svg>
