<?xml version="1.0" encoding="UTF-8" standalone="no"?>
<!-- Created with Inkscape (http://www.inkscape.org/) -->

<svg
   width="80"
   height="80"
   viewBox="0 0 21.166666 21.166666"
   version="1.1"
   id="svg5"
   inkscape:version="1.2.2 (732a01da63, 2022-12-09)"
   sodipodi:docname="9.svg"
   xmlns:inkscape="http://www.inkscape.org/namespaces/inkscape"
   xmlns:sodipodi="http://sodipodi.sourceforge.net/DTD/sodipodi-0.dtd"
   xmlns="http://www.w3.org/2000/svg"
   xmlns:svg="http://www.w3.org/2000/svg">
  <sodipodi:namedview
     id="namedview7"
     pagecolor="#ffffff"
     bordercolor="#000000"
     borderopacity="0.25"
     inkscape:showpageshadow="2"
     inkscape:pageopacity="0.0"
     inkscape:pagecheckerboard="0"
     inkscape:deskcolor="#d1d1d1"
     inkscape:document-units="mm"
     showgrid="true"
     inkscape:zoom="5.6050184"
     inkscape:cx="84.923896"
     inkscape:cy="50.312056"
     inkscape:window-width="1258"
     inkscape:window-height="1290"
     inkscape:window-x="-11"
     inkscape:window-y="-11"
     inkscape:window-maximized="1"
     inkscape:current-layer="layer1">
    <inkscape:grid
       type="xygrid"
       id="grid175" />
  </sodipodi:namedview>
  <defs
     id="defs2" />
  <g
     inkscape:label="Layer 1"
     inkscape:groupmode="layer"
     id="layer1">
    <path
       style="fill:#000000;stroke-width:0.264583"
       id="path540"
       d="m 10.75224,8.3877973 c -0.373807,-0.189981 -0.7919429,-0.140855 -1.1813859,-0.02447 -0.124433,0.03719 -0.244613,0.08735 -0.36692,0.13102 -0.634986,0.271843 -1.224902,0.646592 -1.734923,1.113351 -0.10683,0.09777 -0.206432,0.203151 -0.309648,0.304727 -0.52577,0.5752177 -0.957516,1.2365147 -1.264063,1.9539167 -0.06652,0.155686 -0.121045,0.316231 -0.181568,0.474347 -0.192221,0.561313 -0.330107,1.150345 -0.302624,1.747922 0.01533,0.33334 0.05589,0.454965 0.126204,0.777001 0.184133,0.677165 0.521759,1.293321 0.900625,1.878574 0.261953,0.386098 0.560538,0.744964 0.912833,1.051874 0.198974,0.17334 0.274698,0.219774 0.48788,0.372052 0.303837,0.2025 0.61626,0.396286 0.955207,0.535197 0.286272,0.117323 0.411625,0.148039 0.70932,0.239158 0.437504,0.123867 0.8880119,0.203642 1.3436399,0.207509 0.261035,0.0022 0.355724,-0.01352 0.614748,-0.03815 0.464859,-0.06135 0.926643,-0.160135 1.371385,-0.310272 0.334933,-0.113066 0.442425,-0.167873 0.762767,-0.307514 0.62043,-0.31533 1.172868,-0.756303 1.625774,-1.284686 0.07679,-0.08959 0.146585,-0.184943 0.219877,-0.277415 0.242377,-0.334065 0.450319,-0.694036 0.579342,-1.087625 0.0809,-0.246797 0.10208,-0.381656 0.155345,-0.63483 0.124897,-0.64939 0.109454,-1.308607 0.04751,-1.963228 -0.04282,-0.379669 -0.122623,-0.755374 -0.263068,-1.111518 -0.07953,-0.201684 -0.137334,-0.307637 -0.233364,-0.500689 -0.21518,-0.414229 -0.453079,-0.815944 -0.734287,-1.188718 -0.261851,-0.311649 -0.576665,-0.5730927 -0.891393,-0.8291497 -0.204329,-0.166381 -0.415224,-0.324142 -0.632446,-0.473214 -0.193804,-0.127642 -0.398532,-0.237551 -0.601798,-0.349136 -0.189417,-0.106082 -0.381681,-0.206851 -0.575098,-0.305398 -0.210949,-0.104673 -0.435718,-0.175518 -0.663135,-0.23392 -0.281118,-0.07292 -0.570933,-0.09337 -0.859837,-0.107059 -0.05098,-5.3e-4 -0.101964,-0.0011 -0.152946,-0.0016 -0.7077899,-0.0058 -0.7160119,0.995153 -0.0082,1.000966 v 0 c 0.03817,1.9e-4 0.07633,3.7e-4 0.114497,5.82e-4 0.221566,0.01016 0.444359,0.02206 0.66021,0.07737 0.155743,0.03889 0.309871,0.0861 0.455034,0.155614 0.184258,0.09386 0.367422,0.189833 0.547821,0.290968 0.174377,0.09571 0.350135,0.1897 0.517556,0.29732 0.194923,0.1334037 0.383688,0.2752377 0.566967,0.4242887 0.253243,0.205653 0.506973,0.414566 0.725517,0.657676 0.246185,0.32155 0.446971,0.673709 0.636255,1.031138 0.07206,0.143196 0.126242,0.243505 0.186481,0.391054 0.113336,0.277599 0.174582,0.572047 0.208838,0.869139 0.05416,0.554644 0.07143,1.113332 -0.03125,1.664362 -0.03983,0.195735 -0.05635,0.302425 -0.114193,0.491227 -0.09072,0.296138 -0.249462,0.56419 -0.42729,0.815784 -0.05704,0.07333 -0.111193,0.148991 -0.17112,0.219977 -0.358963,0.425207 -0.797217,0.783972 -1.289214,1.04386 -0.265746,0.117066 -0.374609,0.171703 -0.650831,0.266242 -0.382406,0.130882 -0.779837,0.217212 -1.179778,0.272251 -0.189791,0.0195 -0.284108,0.03422 -0.473828,0.03425 -0.371544,5.4e-5 -0.738627,-0.06468 -1.0954399,-0.165188 -0.244914,-0.07377 -0.354171,-0.100629 -0.587421,-0.19325 -0.28092,-0.11155 -0.537251,-0.274436 -0.788868,-0.439695 -0.17502,-0.123167 -0.226183,-0.153146 -0.390051,-0.292937 -0.291567,-0.248728 -0.534407,-0.544371 -0.750517,-0.859943 -0.316159,-0.484735 -0.601101,-0.994411 -0.76357,-1.553448 -0.04901,-0.208352 -0.08799,-0.333994 -0.101731,-0.547634 -0.03082,-0.479249 0.08605,-0.951785 0.237601,-1.402113 0.05028,-0.134013 0.09535,-0.270097 0.150844,-0.402038 0.257208,-0.61156 0.620929,-1.176538 1.063198,-1.669962 0.08514,-0.08494 0.167199,-0.173086 0.255409,-0.254834 0.419498,-0.3887657 0.905312,-0.7023907 1.427575,-0.9340207 0.18824,-0.07048 0.286615,-0.115911 0.4743319,-0.158721 0.04219,-0.0096 0.08578,-0.01154 0.128512,-0.01836 0.01608,-0.0026 0.03157,-0.0093 0.04784,-0.0098 0.02162,-6.88e-4 0.04871,0.009 0.06962,0.0154 0.619089,0.343117 1.10433,-0.532407 0.485241,-0.875524 z" />
    <path
       style="fill:#000000;stroke-width:0.264583"
       id="path542"
       d="m 10.315478,3.9745113 c 0.03457,0.417579 0.05115,0.83639 0.07336,1.254748 0.04078,0.546984 0.03445,1.095453 0.0439,1.643411 0.01392,0.417104 0.0041,0.834362 -0.0049,1.251438 -0.0024,0.072 -0.0057,0.143978 -0.01755,0.215081 -0.09976,0.700748 0.891245,0.841834 0.991008,0.141086 v 0 c 0.01478,-0.111024 0.026,-0.222307 0.02731,-0.334484 0.0093,-0.430077 0.01912,-0.860346 0.005,-1.290452 -0.0097,-0.559873 -0.0036,-1.120265 -0.04516,-1.679147 -0.02291,-0.431446 -0.04001,-0.863365 -0.07621,-1.293969 -0.06526,-0.704799 -1.061995,-0.612511 -0.996737,0.09229 z" />
    <path
       style="fill:#000000;stroke-width:0.264583"
       id="path544"
       d="m 7.8723661,3.8659743 c 0.430472,0.06942 0.862319,0.129557 1.29479,0.185069 0.561804,0.06957 1.1269899,0.10555 1.6919079,0.138312 0.406135,0.02358 0.812787,0.03285 1.219389,0.0435 0.249982,0.0056 0.497228,0.04552 0.74419,0.08115 0.217273,0.03437 0.435731,0.05945 0.654772,0.0791 0.01572,0.0014 0.03144,0.0028 0.04716,0.0041 0.705118,0.06172 0.7924,-0.93547 0.08728,-0.997188 v 0 c -0.01504,-0.0013 -0.03008,-0.0026 -0.04512,-0.0039 -0.201123,-0.01799 -0.401682,-0.04104 -0.601147,-0.07283 -0.285668,-0.04122 -0.57181,-0.08526 -0.86098,-0.09107 -0.396017,-0.01034 -0.792084,-0.01924 -1.187649,-0.04216 -0.541704,-0.03136 -1.0836949,-0.0655 -1.6224489,-0.131853 -0.43621,-0.05592 -0.871562,-0.117755 -1.305937,-0.186436 -0.703028,-0.08217 -0.81924,0.912057 -0.116212,0.994231 z" />
  </g>
</svg>
