<?xml version="1.0" encoding="UTF-8" standalone="no"?>
<!-- Created with Inkscape (http://www.inkscape.org/) -->

<svg
   width="80"
   height="80"
   viewBox="0 0 21.166666 21.166666"
   version="1.1"
   id="svg5"
   inkscape:version="1.2.2 (732a01da63, 2022-12-09)"
   sodipodi:docname="10.svg"
   xmlns:inkscape="http://www.inkscape.org/namespaces/inkscape"
   xmlns:sodipodi="http://sodipodi.sourceforge.net/DTD/sodipodi-0.dtd"
   xmlns="http://www.w3.org/2000/svg"
   xmlns:svg="http://www.w3.org/2000/svg">
  <sodipodi:namedview
     id="namedview7"
     pagecolor="#ffffff"
     bordercolor="#000000"
     borderopacity="0.25"
     inkscape:showpageshadow="2"
     inkscape:pageopacity="0.0"
     inkscape:pagecheckerboard="0"
     inkscape:deskcolor="#d1d1d1"
     inkscape:document-units="mm"
     showgrid="true"
     inkscape:zoom="5.6050184"
     inkscape:cx="84.923896"
     inkscape:cy="49.866027"
     inkscape:window-width="1258"
     inkscape:window-height="1290"
     inkscape:window-x="-11"
     inkscape:window-y="-11"
     inkscape:window-maximized="1"
     inkscape:current-layer="layer1">
    <inkscape:grid
       type="xygrid"
       id="grid175" />
  </sodipodi:namedview>
  <defs
     id="defs2" />
  <g
     inkscape:label="Layer 1"
     inkscape:groupmode="layer"
     id="layer1">
    <path
       style="fill:#000000;stroke-width:0.264583"
       id="path564"
       d="M 10.596635,2.468459 C 10.242199,2.4612629 9.8870012,2.5135216 9.5483663,2.6187551 9.4485403,2.6497769 9.351126,2.6880841 9.2525058,2.7227487 8.6676258,2.9556696 8.1129745,3.2758477 7.6189492,3.6671723 7.5068119,3.7559977 7.4021602,3.853884 7.2937657,3.9472399 6.9124877,4.3079349 6.5683857,4.7058349 6.2882655,5.1504013 6.1081517,5.4362519 6.0562547,5.5534266 5.9025551,5.8527962 5.6503527,6.3813038 5.4599053,6.9412971 5.3973655,7.5258752 5.3855122,7.6366655 5.382361,7.7482146 5.3748574,7.8593841 5.3640598,8.3073234 5.4279828,8.7536 5.5419534,9.1861943 c 0.064732,0.2456992 0.1115613,0.3701973 0.1929837,0.6103572 0.2036466,0.5550605 0.4687017,1.0847635 0.7741435,1.5902015 0.2059017,0.344593 0.4929767,0.621634 0.792199,0.883798 0.2726606,0.246466 0.584141,0.43244 0.9173668,0.583202 0.4086177,0.173495 0.8426482,0.267081 1.278826,0.338372 0.444578,0.06902 0.8939066,0.08863 1.3431076,0.08498 0.42956,-0.0021 0.857893,-0.03275 1.284377,-0.0823 0.359993,-0.04238 0.715096,-0.114908 1.065766,-0.205464 0.380099,-0.09287 0.71761,-0.281263 1.034735,-0.504464 0.259848,-0.18269 0.478254,-0.410274 0.681908,-0.651933 0.246823,-0.288064 0.417751,-0.626708 0.579973,-0.966698 C 15.67764,10.458049 15.827928,10.033698 15.96005,9.6036965 16.089842,9.1625421 16.182205,8.7117564 16.264315,8.259688 16.330188,7.8729352 16.38442,7.4832823 16.389716,7.0906644 16.373127,6.7289751 16.32337,6.3652534 16.211935,6.0195748 16.18762,5.94415 16.157479,5.87073 16.130251,5.7963074 15.967099,5.4033848 15.717497,5.0575106 15.448336,4.7314217 15.205943,4.4469264 14.935014,4.1889918 14.65421,3.9430518 14.419395,3.7462848 14.182898,3.551437 13.941295,3.3630404 13.732196,3.2005026 13.513597,3.0521312 13.28092,2.9257839 13.031814,2.8032823 12.768889,2.7131639 12.508148,2.6193797 12.309485,2.5439524 12.103456,2.4946701 11.894917,2.4564696 c -0.121218,-0.020213 -0.237261,-0.061576 -0.354185,-0.098079 -0.21836,-0.067829 -0.447324,-0.07905 -0.674109,-0.08769 -0.243286,-0.015805 -0.483685,0.020042 -0.720176,0.073492 -0.141345,0.038057 -0.0718,0.01797 -0.2086913,0.060097 -0.6759017,0.210136 -0.3787246,1.1660056 0.2971773,0.9558695 v 0 c 0.0908,-0.028659 0.04504,-0.015065 0.137277,-0.040758 0.14993,-0.036103 0.302286,-0.059936 0.457059,-0.048398 0.138146,0.00503 0.279038,0.00593 0.4132,0.042918 0.155777,0.048616 0.311053,0.100738 0.472589,0.1272566 0.154563,0.028133 0.307395,0.062833 0.454301,0.1201262 0.215629,0.077555 0.433043,0.1516168 0.641201,0.2480865 0.184185,0.094502 0.349852,0.2197997 0.515445,0.343218 0.226936,0.1767187 0.448673,0.3599874 0.669538,0.5442056 0.241134,0.2101408 0.473424,0.4310317 0.682353,0.6736866 0.199325,0.2387806 0.386732,0.4913106 0.514795,0.7764938 0.116157,0.3003953 0.181926,0.6156071 0.196042,0.9379382 0.0024,0.3344328 -0.06018,0.6664785 -0.109354,0.9961414 -0.07484,0.4133982 -0.1587,0.8257095 -0.276406,1.2293576 -0.117113,0.3833897 -0.250805,0.7615934 -0.419535,1.1257364 -0.124956,0.263485 -0.252044,0.529115 -0.44251,0.7529 -0.148304,0.177233 -0.304625,0.346088 -0.495071,0.479679 -0.216304,0.155597 -0.444632,0.288691 -0.70657,0.351684 -0.30607,0.07989 -0.616348,0.142625 -0.930669,0.180154 -0.390758,0.0461 -0.783335,0.07347 -1.176963,0.07556 -0.392634,0.0039 -0.785373,-0.01265 -1.1741034,-0.07214 C 9.3066281,12.147754 8.9568535,12.075686 8.6267966,11.939743 8.3828646,11.832909 8.1583114,11.696722 7.9600636,11.51689 7.7376747,11.323034 7.5187132,11.123446 7.3651046,10.867885 7.0957802,10.425136 6.8639742,9.9598513 6.6825322,9.4739602 6.5108674,8.9720628 6.3617191,8.4583946 6.3738971,7.922004 6.3872612,7.6848958 6.3824008,7.6488231 6.4234358,7.4137358 6.4906289,7.0288019 6.6283384,6.6609504 6.7939102,6.3083034 6.9274337,6.045601 6.965139,5.9577467 7.1200475,5.7073035 7.3498508,5.3357758 7.636394,5.0055049 7.9503856,4.7027869 8.0359265,4.6276 8.118018,4.548297 8.2070082,4.4772265 8.6250827,4.1433387 9.0939502,3.8664507 9.5892743,3.665398 9.8892245,3.5559074 10.195698,3.4651465 10.518363,3.466394 11.22401,3.52174 11.302281,2.5238051 10.596633,2.468459 Z" />
    <path
       style="fill:#000000;stroke-width:0.264583"
       id="path566"
       d="m 10.175169,13.164961 c 0.09531,0.871197 0.138326,1.746854 0.183633,2.62173 0.03831,0.713736 0.05772,1.42815 0.06528,2.142803 0.0077,0.356667 -0.002,0.713186 -0.01242,1.069662 -0.0038,0.124843 -8.73e-4,0.06951 -0.0074,0.166089 -0.04477,0.706396 0.954223,0.769714 0.998995,0.06332 v 0 c 0.0078,-0.129578 0.0047,-0.06289 0.009,-0.200092 0.01083,-0.369781 0.02057,-0.739616 0.01279,-1.109592 -0.0077,-0.72838 -0.02754,-1.45652 -0.06656,-2.183966 -0.04629,-0.893573 -0.09066,-1.787907 -0.18811,-2.677708 -0.0762,-0.703701 -1.071378,-0.595945 -0.995183,0.107756 z" />
    <path
       style="fill:#000000;stroke-width:0.264583"
       id="path568"
       d="m 7.6118701,16.758852 c 0.3537428,-0.0112 0.706742,-0.03113 1.0597176,-0.05738 0.467356,-0.04634 0.9363744,-0.06991 1.4056433,-0.08471 0.411,-0.0025 0.820917,-0.02795 1.230071,-0.06496 0.346217,-0.03068 0.691113,-0.07398 1.036963,-0.108314 0.3142,-0.02107 0.626369,-0.06173 0.939188,-0.09642 0.22124,-0.0259 0.444079,-0.02762 0.66648,-0.03204 0.167515,-0.002 0.332648,-0.03097 0.498592,-0.05003 0.01917,-0.002 0.03842,-0.0029 0.05766,-0.0036 0.707065,-0.03255 0.661033,-1.03249 -0.04603,-0.99994 v 0 c -0.04226,0.0021 -0.08453,0.0044 -0.126589,0.0092 -0.134404,0.01562 -0.268088,0.03953 -0.403586,0.04361 -0.252676,0.005 -0.505771,0.0084 -0.757091,0.03797 -0.308963,0.0344 -0.617296,0.07443 -0.927645,0.0952 -0.342945,0.03413 -0.684979,0.0768 -1.028268,0.107488 -0.389657,0.03537 -0.780018,0.05933 -1.171453,0.06138 -0.4834679,0.01539 -0.9667135,0.03939 -1.44823,0.08697 -0.3566229,0.02657 -0.7132719,0.04485 -1.0705674,0.05824 -0.7052487,0.0602 -0.6201053,1.057577 0.085144,0.997372 z" />
  </g>
</svg>
