<?xml version="1.0" encoding="UTF-8" standalone="no"?>
<!-- Created with Inkscape (http://www.inkscape.org/) -->

<svg
   width="80"
   height="80"
   viewBox="0 0 21.166666 21.166666"
   version="1.1"
   id="svg5"
   inkscape:version="1.2.2 (732a01da63, 2022-12-09)"
   sodipodi:docname="11.svg"
   xmlns:inkscape="http://www.inkscape.org/namespaces/inkscape"
   xmlns:sodipodi="http://sodipodi.sourceforge.net/DTD/sodipodi-0.dtd"
   xmlns="http://www.w3.org/2000/svg"
   xmlns:svg="http://www.w3.org/2000/svg">
  <sodipodi:namedview
     id="namedview7"
     pagecolor="#ffffff"
     bordercolor="#000000"
     borderopacity="0.25"
     inkscape:showpageshadow="2"
     inkscape:pageopacity="0.0"
     inkscape:pagecheckerboard="0"
     inkscape:deskcolor="#d1d1d1"
     inkscape:document-units="mm"
     showgrid="true"
     inkscape:zoom="5.6050184"
     inkscape:cx="84.923896"
     inkscape:cy="50.490468"
     inkscape:window-width="1258"
     inkscape:window-height="1290"
     inkscape:window-x="-11"
     inkscape:window-y="-11"
     inkscape:window-maximized="1"
     inkscape:current-layer="layer1">
    <inkscape:grid
       type="xygrid"
       id="grid175" />
  </sodipodi:namedview>
  <defs
     id="defs2" />
  <g
     inkscape:label="Layer 1"
     inkscape:groupmode="layer"
     id="layer1">
    <path
       style="fill:#000000;stroke-width:0.264583"
       id="path580"
       d="m 5.8033782,9.4522536 c 0.451865,0.3225885 1.0249003,0.3938465 1.5603546,0.4711595 0.6627836,0.06487 1.3332721,0.06816 1.9960508,-7.94e-4 0.119728,-0.01246 0.238774,-0.03076 0.358161,-0.04614 0.4255464,-0.07704 0.8498874,-0.168014 1.2634784,-0.295754 0.258825,-0.07994 0.347718,-0.1187993 0.599916,-0.215476 0.457617,-0.1908288 0.911432,-0.4013985 1.321816,-0.6823739 0.08593,-0.058829 0.168024,-0.1230587 0.252036,-0.1845881 0.396108,-0.3237693 0.750596,-0.7032561 1.031999,-1.1316377 0.04863,-0.074034 0.09196,-0.15142 0.137941,-0.2271303 0.191115,-0.3613816 0.338072,-0.7553822 0.380096,-1.1646709 0.0068,-0.066355 0.007,-0.1332238 0.01053,-0.1998358 C 14.713429,5.4392484 14.603546,5.1214153 14.410163,4.8477279 14.370325,4.791347 14.324736,4.7392582 14.282022,4.6850234 14.086417,4.477271 13.871311,4.2816177 13.618994,4.144178 13.426435,4.0392893 13.336681,4.0138795 13.13466,3.938868 12.638637,3.7842947 12.118949,3.7372417 11.602222,3.7213559 11.105982,3.7099074 10.620674,3.811007 10.144659,3.939975 9.5418276,4.1195657 8.964324,4.372074 8.4012677,4.6500616 7.819128,4.9430964 7.2883702,5.3209203 6.7841489,5.7309258 6.5013133,5.9629363 6.2431345,6.2247227 6.0214248,6.5159999 5.886219,6.6936297 5.8451242,6.76627 5.7263231,6.9523975 5.4023707,7.4748898 5.1984439,8.0539952 5.0214649,8.6390186 4.7991556,9.4199061 4.6808631,10.224628 4.6053457,11.031441 c -0.036883,0.593119 -0.032421,1.192751 0.053273,1.781933 0.01578,0.108493 0.037587,0.216023 0.05638,0.324034 0.1086618,0.571007 0.2792048,1.125322 0.5046935,1.660299 0.1464379,0.315434 0.3163279,0.620966 0.5230506,0.901228 0.1404771,0.190451 0.1914289,0.239563 0.3482054,0.415633 0.260872,0.264614 0.5307137,0.528093 0.8415099,0.734743 0.061689,0.04102 0.1261904,0.07764 0.1892853,0.116455 0.2737117,0.15139 0.5606209,0.280528 0.8594707,0.373992 0.2116904,0.0662 0.3363105,0.09175 0.5521676,0.142955 0.495636,0.116037 0.9933259,0.217266 1.5020283,0.247506 0.419773,0.01046 0.839258,0.01648 1.257983,-0.01786 0.361486,-0.03468 0.712873,-0.12715 1.059771,-0.230542 0.316009,-0.09164 0.617988,-0.220354 0.91105,-0.368573 0.315456,-0.160142 0.603872,-0.363442 0.876245,-0.587756 0.252583,-0.215425 0.486796,-0.451205 0.712124,-0.69466 0.206021,-0.228827 0.385808,-0.479107 0.557567,-0.734119 0.07551,-0.114876 0.0388,-0.05734 0.110207,-0.17257 0.371633,-0.602403 -0.480293,-1.127972 -0.851927,-0.525569 v 0 c -0.05403,0.08814 -0.02462,0.04159 -0.08876,0.139297 -0.142941,0.212644 -0.291675,0.422004 -0.462298,0.613647 -0.194708,0.211149 -0.39748,0.415331 -0.615228,0.6029 -0.214249,0.178558 -0.442213,0.339015 -0.691156,0.466313 -0.239262,0.12211 -0.486141,0.227258 -0.744688,0.302074 -0.280797,0.08435 -0.564909,0.161715 -0.857449,0.192134 -0.371868,0.03284 -0.74476,0.02172 -1.117657,0.01584 C 9.6409256,16.707837 9.2020626,16.606813 8.7631502,16.508442 8.3743929,16.417388 7.9892879,16.311202 7.6406478,16.109766 7.3396631,15.93142 7.0784148,15.698198 6.8363549,15.446461 6.7173517,15.314805 6.6715013,15.270199 6.5652068,15.128364 6.3975255,14.904617 6.2610383,14.659418 6.1413916,14.407232 5.9433145,13.942534 5.7973293,13.459651 5.7007548,12.963382 5.6847343,12.874189 5.6660563,12.785432 5.6526898,12.695803 5.5752278,12.176374 5.571477,11.647269 5.6020499,11.124081 5.6703505,10.383529 5.7780486,9.6447761 5.9799709,8.9275809 6.1291031,8.4294646 6.2986621,7.9351042 6.5714419,7.488846 6.8037525,7.1203267 7.0703109,6.7771658 7.4164187,6.5069667 7.8618974,6.1432141 8.3308086,5.807651 8.8453891,5.5471462 9.3501316,5.2964895 9.8684586,5.0699496 10.408398,4.9056076 c 0.380288,-0.1048777 0.768211,-0.1901597 1.165226,-0.1836581 0.409859,0.010628 0.822388,0.0457 1.21848,0.1574823 0.09483,0.03356 0.209319,0.070229 0.300446,0.1161347 0.156745,0.078961 0.286963,0.1994648 0.41211,0.3201011 0.10456,0.1211125 0.200457,0.2535912 0.210927,0.4186131 -0.0054,0.3123708 -0.106173,0.6135595 -0.248532,0.889771 -0.239523,0.4047667 -0.541044,0.7700007 -0.906102,1.0687032 -0.06598,0.049118 -0.130362,0.1004562 -0.197936,0.1473559 -0.353066,0.2450431 -0.746799,0.4243856 -1.141251,0.5909493 -0.203901,0.078851 -0.304123,0.1216263 -0.512339,0.186327 C 10.342333,8.7314569 9.9657396,8.8125824 9.5883896,8.8838982 8.8979131,8.9753747 8.1993126,9.0033213 7.5050361,8.9324468 7.233902,8.8943516 6.9651544,8.8566834 6.7012582,8.7813713 6.6277844,8.7604031 6.5536437,8.7393579 6.4844657,8.7069157 6.4678816,8.6991396 6.453333,8.6876091 6.4377668,8.6779555 5.8902481,8.2293759 5.2558606,9.0036843 5.8033793,9.4522639 Z" />
  </g>
</svg>
