<?xml version="1.0" encoding="UTF-8" standalone="no"?>
<!-- Created with Inkscape (http://www.inkscape.org/) -->

<svg
   width="80"
   height="80"
   viewBox="0 0 21.166666 21.166666"
   version="1.1"
   id="svg5"
   inkscape:version="1.2.2 (732a01da63, 2022-12-09)"
   sodipodi:docname="12.svg"
   xmlns:inkscape="http://www.inkscape.org/namespaces/inkscape"
   xmlns:sodipodi="http://sodipodi.sourceforge.net/DTD/sodipodi-0.dtd"
   xmlns="http://www.w3.org/2000/svg"
   xmlns:svg="http://www.w3.org/2000/svg">
  <sodipodi:namedview
     id="namedview7"
     pagecolor="#ffffff"
     bordercolor="#000000"
     borderopacity="0.25"
     inkscape:showpageshadow="2"
     inkscape:pageopacity="0.0"
     inkscape:pagecheckerboard="0"
     inkscape:deskcolor="#d1d1d1"
     inkscape:document-units="mm"
     showgrid="true"
     inkscape:zoom="5.6050184"
     inkscape:cx="84.923896"
     inkscape:cy="50.044439"
     inkscape:window-width="1258"
     inkscape:window-height="1290"
     inkscape:window-x="-11"
     inkscape:window-y="-11"
     inkscape:window-maximized="1"
     inkscape:current-layer="layer1">
    <inkscape:grid
       type="xygrid"
       id="grid175" />
  </sodipodi:namedview>
  <defs
     id="defs2" />
  <g
     inkscape:label="Layer 1"
     inkscape:groupmode="layer"
     id="layer1">
    <path
       style="fill:#000000;stroke-width:0.264583"
       id="path588"
       d="M 5.9771779,5.8794438 C 6.1283283,5.7321484 6.30767,5.6198648 6.4867575,5.5102918 6.8368306,5.3058036 7.2262195,5.1848334 7.6137491,5.0739 8.1606995,4.925647 8.7244575,4.8654795 9.2890606,4.8432082 c 0.4053433,0.0041 0.8120514,0.026946 1.2119834,0.096432 0.249979,0.043432 0.327256,0.068486 0.573551,0.1316702 0.408771,0.1118404 0.810147,0.2486257 1.193203,0.4308112 0.205301,0.097643 0.313505,0.1605351 0.51125,0.2689209 0.530662,0.2745388 0.996304,0.6443409 1.438657,1.0417339 0.442572,0.4523856 0.873167,0.9240258 1.230087,1.448457 0.05845,0.085882 0.112287,0.1748154 0.168431,0.2622235 0.219737,0.3433844 0.378438,0.7223413 0.477657,1.1173737 0.06557,0.2610557 0.07068,0.3334152 0.112042,0.5985594 0.07867,0.550389 0.05264,1.106041 0.0025,1.657317 -0.03959,0.435566 -0.137608,0.861366 -0.250084,1.282926 -0.08377,0.342124 -0.23535,0.65872 -0.404505,0.965528 -0.177537,0.332322 -0.453421,0.586575 -0.734145,0.830444 -0.336373,0.269498 -0.696394,0.507598 -1.061701,0.735609 -0.415076,0.260864 -0.877815,0.42341 -1.344155,0.564782 -0.436901,0.12907 -0.882465,0.219587 -1.335057,0.268588 -0.489856,0.04682 -0.982373,0.0432 -1.4737042,0.03138 -0.4797369,-0.006 -0.9543055,-0.06359 -1.4221076,-0.167188 C 7.8143726,16.331702 7.4730591,16.176665 7.137515,16.011304 6.8852583,15.891611 6.6450484,15.750323 6.4078812,15.603628 6.2911031,15.536217 6.1811989,15.459823 6.0769835,15.374578 5.5256411,14.930706 4.8979118,15.710422 5.4492543,16.154294 v 0 c 0.1375603,0.109655 0.2796135,0.212509 0.4321646,0.300709 0.2646021,0.163582 0.5331007,0.320388 0.8141673,0.454465 0.4080701,0.200501 0.8255394,0.383043 1.2729768,0.477084 0.5307992,0.115386 1.0687,0.183638 1.6127093,0.190128 0.5358637,0.01257 1.0730057,0.01545 1.6071227,-0.03712 0.514025,-0.05749 1.02086,-0.15792 1.516979,-0.305971 0.54998,-0.168114 1.093788,-0.364965 1.582995,-0.67346 0.410016,-0.256436 0.81421,-0.52428 1.18938,-0.830265 0.36825,-0.322469 0.720995,-0.666385 0.953741,-1.103401 0.206466,-0.378173 0.390133,-0.768986 0.494106,-1.189271 0.126652,-0.476544 0.23535,-0.958242 0.279729,-1.450447 0.05683,-0.633778 0.0822,-1.272444 -0.01084,-1.904669 C 17.144676,9.774121 17.134324,9.663581 17.054719,9.3601285 16.926896,8.8728776 16.728867,8.4055285 16.457297,7.9806865 16.391467,7.8790847 16.32825,7.7757419 16.259807,7.6758812 15.860529,7.0933177 15.38254,6.5669567 14.885617,6.0671905 14.384997,5.619846 13.857629,5.2037519 13.259257,4.8927472 13.030386,4.7678898 12.913875,4.7001234 12.674586,4.5875032 12.23962,4.382789 11.784725,4.227056 11.321158,4.1011509 11.026808,4.0269421 10.94291,3.9995951 10.643582,3.9488398 10.182856,3.8707173 9.7145942,3.8441394 9.247847,3.843057 8.6035596,3.8705914 7.9603369,3.9400427 7.3367399,4.1119927 6.8626153,4.2492358 6.3884915,4.4025777 5.9624687,4.6575786 5.7224583,4.8057307 5.4846669,4.9604657 5.2823424,5.1588876 4.7728322,5.6502122 5.4676698,6.3707684 5.97718,5.8794438 Z" />
    <path
       style="fill:#000000;stroke-width:0.264583"
       id="path590"
       d="m 8.3758909,11.352566 c 0.4466352,-0.03787 0.8944221,-0.06118 1.3418622,-0.08747 0.7229439,-0.03704 1.4466019,0.0013 2.1700879,-0.01239 0.494482,-0.02269 0.990111,-0.02562 1.48417,-0.05669 0.258421,-0.02738 0.518023,-0.03627 0.777541,-0.04504 0.216873,-0.0073 0.433872,-0.0073 0.650669,0.0024 0.188192,0.0075 0.376111,0.01826 0.564013,0.03092 0.169032,0.01099 0.338443,0.01446 0.507779,0.01696 0.07819,0.0011 0.15638,0.0011 0.234572,10e-4 0.09524,0.0047 0.188563,-0.01287 0.281634,-0.03028 0.02809,-0.0054 0.05637,-0.0092 0.08492,-0.01062 0.706629,-0.04095 0.64872,-1.040272 -0.05791,-0.999324 v 0 c -0.0713,0.0044 -0.142251,0.01275 -0.212437,0.02627 -0.150886,0.02859 0.0385,0.0046 -0.09733,0.01295 -0.07293,8.2e-5 -0.14586,8.8e-5 -0.218784,-9e-4 -0.151787,-0.0022 -0.303652,-0.0051 -0.455176,-0.0148 -0.195796,-0.01319 -0.391627,-0.02433 -0.587719,-0.03224 -0.242585,-0.01028 -0.48538,-0.01128 -0.728048,-0.0028 -0.269692,0.0091 -0.539509,0.01834 -0.808074,0.04653 -0.478942,0.03175 -0.959837,0.03094 -1.439202,0.05481 -0.736558,0.01464 -1.473407,-0.02693 -2.209411,0.01392 -0.470164,0.02762 -0.9408268,0.05129 -1.4099214,0.0938 -0.7021155,0.08963 -0.5753542,1.082575 0.1267613,0.992941 z" />
  </g>
</svg>
