<?xml version="1.0" encoding="UTF-8" standalone="no"?>
<!-- Created with Inkscape (http://www.inkscape.org/) -->

<svg
   width="80"
   height="80"
   viewBox="0 0 21.166666 21.166666"
   version="1.1"
   id="svg5"
   inkscape:version="1.2.2 (732a01da63, 2022-12-09)"
   sodipodi:docname="13.svg"
   xmlns:inkscape="http://www.inkscape.org/namespaces/inkscape"
   xmlns:sodipodi="http://sodipodi.sourceforge.net/DTD/sodipodi-0.dtd"
   xmlns="http://www.w3.org/2000/svg"
   xmlns:svg="http://www.w3.org/2000/svg">
  <sodipodi:namedview
     id="namedview7"
     pagecolor="#ffffff"
     bordercolor="#000000"
     borderopacity="0.25"
     inkscape:showpageshadow="2"
     inkscape:pageopacity="0.0"
     inkscape:pagecheckerboard="0"
     inkscape:deskcolor="#d1d1d1"
     inkscape:document-units="mm"
     showgrid="true"
     inkscape:zoom="5.6050184"
     inkscape:cx="84.923896"
     inkscape:cy="50.22285"
     inkscape:window-width="1258"
     inkscape:window-height="1290"
     inkscape:window-x="-11"
     inkscape:window-y="-11"
     inkscape:window-maximized="1"
     inkscape:current-layer="layer1">
    <inkscape:grid
       type="xygrid"
       id="grid175" />
  </sodipodi:namedview>
  <defs
     id="defs2" />
  <g
     inkscape:label="Layer 1"
     inkscape:groupmode="layer"
     id="layer1">
    <path
       style="fill:#000000;stroke-width:0.264583"
       id="path605"
       d="M 3.750538,13.488072 C 3.8327951,13.08097 3.9432208,12.682453 4.0694231,12.28694 4.2401212,11.745499 4.48931,11.235151 4.7504098,10.732796 4.9560217,10.348647 5.1448686,9.9560104 5.3377864,9.5654478 5.555027,9.1533399 5.8450575,8.7872463 6.1272414,8.4188101 6.3443172,8.1435873 6.5664659,7.8694581 6.8354161,7.6424228 6.9748015,7.5247602 7.0789667,7.458195 7.2295434,7.3539923 7.5993674,7.1160494 7.9744056,6.8862209 8.3612457,6.6769783 8.7068122,6.482367 9.0799199,6.3528521 9.4612242,6.2497048 9.8505707,6.1439512 10.247152,6.0768494 10.649001,6.0457571 c 0.516527,-0.024522 1.021087,0.1235168 1.5095,0.2748045 0.52758,0.1673479 1.017108,0.4231751 1.480811,0.7217217 0.310388,0.1993315 0.58358,0.4476715 0.855838,0.6947206 0.223246,0.1910866 0.430994,0.3976905 0.628111,0.615355 0.253896,0.2981555 0.503686,0.5992683 0.766189,0.8899887 0.222078,0.2435254 0.455493,0.4777859 0.661824,0.735298 0.138966,0.1734374 0.193404,0.2602444 0.321503,0.4464444 0.324668,0.469903 0.563455,0.988829 0.788002,1.511698 0.142299,0.330045 0.258426,0.669932 0.361965,1.013785 0.05744,0.187959 0.112368,0.376845 0.145375,0.570794 0.03247,0.168935 0.07113,0.335871 0.09183,0.50678 0.0025,0.02423 0.0049,0.04846 0.0074,0.07268 0.0725,0.704091 1.068235,0.60156 0.995735,-0.102531 v 0 c -0.0032,-0.03109 -0.0065,-0.06219 -0.0097,-0.09328 -0.02361,-0.187377 -0.0612,-0.37151 -0.09924,-0.556354 C 19.112564,13.114785 19.05183,12.886409 18.981154,12.66069 18.866506,12.280681 18.737596,11.905151 18.580361,11.540349 18.329153,10.956885 18.059427,10.37925 17.696412,9.8552073 17.534321,9.6213302 17.489758,9.5478289 17.3136,9.3289087 17.100534,9.0641201 16.861591,8.8215448 16.63219,8.5712751 16.368911,8.2800768 16.120038,7.9770411 15.864249,7.6793523 15.644864,7.4384023 15.41527,7.2078833 15.167707,6.9956068 14.85416,6.7112506 14.537406,6.4281631 14.179527,6.1995676 13.638287,5.8538877 13.067651,5.5569341 12.452713,5.3637751 11.842505,5.1773158 11.213628,5.0065667 10.569327,5.0479332 10.105508,5.0859076 9.6469757,5.1609156 9.1975701,5.2840511 8.7428169,5.4091517 8.2973713,5.5650399 7.8845232,5.7967874 7.4649871,6.0242828 7.0574222,6.2728183 6.6572007,6.5327587 6.4506046,6.6775697 6.3488355,6.7413856 6.1562971,6.9070333 5.846115,7.1738944 5.5840476,7.4891119 5.3325206,7.8101895 5.010858,8.2302447 4.6835692,8.6499098 4.4402988,9.1221464 4.2503701,9.506678 4.0645537,9.8933033 3.8620475,10.27148 3.5750709,10.824576 3.3031628,11.387259 3.1156203,11.983196 2.985752,12.391744 2.8681526,12.802963 2.7850433,13.223837 2.598201,13.906545 3.5636962,14.17078 3.7505386,13.488072 Z" />
    <path
       style="fill:#000000;stroke-width:0.264583"
       id="path607"
       d="m 10.576675,6.068792 c 0.09797,0.3252528 0.114436,0.6691548 0.143509,1.0057363 0.05048,0.5143135 0.08672,1.0298475 0.133033,1.5445171 0.05509,0.4859176 0.11868,0.9704668 0.155062,1.4582616 0.01583,0.318679 0.05004,0.63578 0.08398,0.952892 0.02738,0.319286 0.02453,0.640208 0.03337,0.96036 0.01095,0.273962 0.03789,0.546857 0.05172,0.820676 0.0088,0.1804 0.01004,0.361015 0.01201,0.541577 0.0032,0.139681 0.01285,0.279074 0.02055,0.418544 0.002,0.03921 0.003,0.07848 0.0033,0.117739 1.26e-4,0.02758 -1.6e-5,-0.0062 2.5e-5,0.0096 3.7e-4,0.707814 1.001372,0.707287 1.001,-5.29e-4 v 0 c -1.5e-5,-0.01171 5e-6,-0.0054 -7.3e-5,-0.01892 -5.56e-4,-0.05441 -0.0019,-0.108812 -0.0048,-0.163151 -0.0069,-0.124708 -0.01546,-0.249345 -0.01908,-0.374215 -0.0021,-0.193876 -0.0036,-0.387805 -0.01324,-0.581499 -0.01362,-0.266096 -0.0386,-0.53136 -0.05082,-0.797504 -0.0096,-0.346477 -0.0063,-0.693824 -0.03867,-1.039217 -0.03282,-0.306537 -0.0661,-0.613021 -0.08109,-0.921102 C 11.969443,9.5097345 11.907235,9.0199431 11.850174,8.5291503 11.803785,8.0157113 11.767884,7.5013636 11.717461,6.9882683 11.67968,6.5520156 11.65305,6.1063451 11.503581,5.6908369 11.236328,5.0354163 10.309423,5.4133688 10.576676,6.0687896 Z" />
    <path
       style="fill:#000000;stroke-width:0.264583"
       id="path619"
       d="m 1.8830152,14.266601 c 0.2608118,-0.01346 0.5220789,-0.01172 0.7831442,-0.01131 0.2508631,0.0051 0.5012692,0.02397 0.7514219,0.04269 0.1794677,0.0088 0.3574278,0.03395 0.5366989,0.04454 0.164153,0.0053 0.3269501,-0.01773 0.4899284,-0.03309 0.027979,-0.0025 0.056018,-0.0041 0.08406,-0.0057 0.7066745,-0.04015 0.6498995,-1.039535 -0.056775,-0.999389 v 0 c -0.040553,0.0023 -0.0811,0.0048 -0.1215557,0.0085 -0.1141153,0.01083 -0.2279173,0.02627 -0.3425576,0.03005 -0.172076,-0.0072 -0.3427211,-0.03816 -0.5151022,-0.04316 -0.2744891,-0.02053 -0.5492803,-0.04104 -0.8245835,-0.04548 -0.2795957,-4.24e-4 -0.559398,-0.0019 -0.8387094,0.01277 -0.706782,0.0382 -0.6527516,1.037746 0.05403,0.999541 z" />
    <path
       style="fill:#000000;stroke-width:0.264583"
       id="path621"
       d="m 9.9804338,14.357183 c 0.2931852,0.05259 0.5881162,0.09454 0.8833722,0.133503 0.246274,0.02599 0.488431,0.07714 0.731506,0.122545 0.250504,0.04569 0.504446,0.06806 0.758396,0.0831 0.08482,0.008 0.178739,0.0038 0.259138,0.03792 0.04644,0.01495 0.02404,0.0077 0.06722,0.02186 0.672476,0.220854 0.984811,-0.730171 0.312335,-0.951025 v 0 c -0.05255,-0.01724 -0.02488,-0.0083 -0.08303,-0.0269 -0.161772,-0.04758 -0.327991,-0.07731 -0.497018,-0.08113 -0.212113,-0.01232 -0.424326,-0.03021 -0.633635,-0.06788 -0.260531,-0.04843 -0.520133,-0.102743 -0.783999,-0.130893 -0.273931,-0.03613 -0.547534,-0.07499 -0.819676,-0.123001 -0.6943076,-0.137613 -0.8889226,0.844286 -0.1946152,0.9819 z" />
    <path
       style="fill:#000000;stroke-width:0.264583"
       id="path625"
       d="m 17.75898,15.091937 c 0.209269,-0.04852 0.423352,-0.07273 0.635426,-0.105695 0.313258,-0.0536 0.625622,-0.110843 0.941954,-0.142959 0.205485,-0.01351 0.409564,-0.02035 0.612998,-0.05476 0.02343,-0.0046 0.04687,-0.0091 0.07031,-0.01367 0.69454,-0.136434 0.501593,-1.118662 -0.192947,-0.982228 v 0 c -0.01575,0.0031 -0.0315,0.0063 -0.04725,0.0094 -0.180652,0.03198 -0.363127,0.02675 -0.545451,0.04548 -0.333541,0.03463 -0.663479,0.09167 -0.993657,0.149638 -0.278326,0.04344 -0.562001,0.07056 -0.831319,0.156932 -0.663151,0.24745 -0.313204,1.185288 0.349946,0.937838 z" />
  </g>
</svg>
