<?xml version="1.0" encoding="UTF-8" standalone="no"?>
<!-- Created with Inkscape (http://www.inkscape.org/) -->

<svg
   width="80"
   height="80"
   viewBox="0 0 21.166666 21.166666"
   version="1.1"
   id="svg5"
   inkscape:version="1.2.2 (732a01da63, 2022-12-09)"
   sodipodi:docname="14.svg"
   xmlns:inkscape="http://www.inkscape.org/namespaces/inkscape"
   xmlns:sodipodi="http://sodipodi.sourceforge.net/DTD/sodipodi-0.dtd"
   xmlns="http://www.w3.org/2000/svg"
   xmlns:svg="http://www.w3.org/2000/svg">
  <sodipodi:namedview
     id="namedview7"
     pagecolor="#ffffff"
     bordercolor="#000000"
     borderopacity="0.25"
     inkscape:showpageshadow="2"
     inkscape:pageopacity="0.0"
     inkscape:pagecheckerboard="0"
     inkscape:deskcolor="#d1d1d1"
     inkscape:document-units="mm"
     showgrid="true"
     inkscape:zoom="5.6050184"
     inkscape:cx="84.923896"
     inkscape:cy="50.22285"
     inkscape:window-width="1258"
     inkscape:window-height="1290"
     inkscape:window-x="-11"
     inkscape:window-y="-11"
     inkscape:window-maximized="1"
     inkscape:current-layer="layer1">
    <inkscape:grid
       type="xygrid"
       id="grid175" />
  </sodipodi:namedview>
  <defs
     id="defs2" />
  <g
     inkscape:label="Layer 1"
     inkscape:groupmode="layer"
     id="layer1">
    <path
       style="fill:#000000;stroke-width:0.264583"
       id="path639"
       d="M 4.3645108,5.8024894 C 4.1142507,6.1181485 3.9009484,6.4588069 3.7098599,6.8127241 3.4975934,7.2232297 3.3503907,7.6623642 3.2611041,8.1153933 c -0.022654,0.114939 -0.039343,0.2309733 -0.059015,0.34646 -0.1068858,0.6869398 -0.1289449,1.3835014 -0.081699,2.0766507 0.00992,0.14553 0.026141,0.290561 0.039212,0.435842 0.085122,0.754467 0.2733974,1.495207 0.5367372,2.206817 0.050896,0.137534 0.1085715,0.272463 0.1628571,0.408695 0.196768,0.478759 0.4689858,0.920641 0.7856582,1.328887 0.1839598,0.237157 0.284711,0.344084 0.4810689,0.565991 0.42247,0.474643 0.9074274,0.885914 1.4158473,1.264666 0.4358195,0.332896 0.9462182,0.525566 1.4642195,0.687679 0.4798999,0.118749 0.9648301,0.236958 1.4570204,0.293043 0.1253101,0.01428 0.2513267,0.02147 0.37699,0.03221 0.5063013,0.03446 1.0146943,0.03312 1.5201743,-0.01365 0.33769,-0.03124 0.427318,-0.05069 0.764004,-0.10324 0.765483,-0.111734 1.480619,-0.404955 2.178106,-0.726236 0.401466,-0.187595 0.796548,-0.391146 1.166696,-0.635721 0.211934,-0.140035 0.252217,-0.177179 0.447823,-0.329369 0.382015,-0.31936 0.710652,-0.696703 1.025466,-1.080834 0.275367,-0.336656 0.498783,-0.709532 0.69671,-1.095565 0.158962,-0.311122 0.240132,-0.651613 0.310915,-0.991348 0.06779,-0.339564 0.09077,-0.685333 0.104111,-1.030616 0.01926,-0.383693 6.61e-4,-0.766104 -0.03308,-1.148301 -0.03806,-0.359206 -0.08178,-0.7190844 -0.16679,-1.07075 C 17.793216,9.2846749 17.7664,9.2182875 17.686509,8.9727158 17.487814,8.4321681 17.195842,7.9335801 16.919528,7.4304127 16.771482,7.1771176 16.646218,6.9105052 16.494883,6.6590954 16.388248,6.4819434 16.368574,6.4626727 16.247952,6.2977704 16.086536,6.0824657 15.887899,5.9030946 15.672533,5.7439647 15.101372,5.3259029 14.510144,6.1336464 15.081305,6.5517082 v 0 c 0.135238,0.09745 0.260115,0.2073106 0.361504,0.3408272 0.237444,0.3169846 0.405506,0.6755339 0.599312,1.019705 0.246568,0.4489995 0.508326,0.8931037 0.693175,1.3722368 0.06559,0.1983433 0.09004,0.2594039 0.140148,0.462366 0.07691,0.3115038 0.113859,0.6310078 0.148429,0.9493878 0.03056,0.339991 0.04749,0.679975 0.02986,1.021379 -0.01089,0.289918 -0.02833,0.580427 -0.08404,0.865782 -0.05181,0.252084 -0.106433,0.506939 -0.222084,0.738853 -0.164457,0.323189 -0.350291,0.635402 -0.580068,0.917165 -0.267478,0.327539 -0.546093,0.650021 -0.867451,0.926248 -0.434472,0.342087 -0.912096,0.618826 -1.41709,0.844591 -0.61333,0.283359 -1.240401,0.548046 -1.914274,0.646335 -0.682491,0.108155 -1.35434,0.165936 -2.0458592,0.108182 -0.1058905,-0.0085 -0.2120736,-0.01391 -0.3176714,-0.0255 C 9.1654385,16.691043 8.7328456,16.5832 8.3033395,16.481263 7.8925522,16.354379 7.4846621,16.21001 7.1389657,15.946057 6.6849944,15.609388 6.2521652,15.243191 5.874917,14.820648 5.44377,14.335461 5.0325117,13.827187 4.7885865,13.218055 4.7399699,13.097061 4.6882782,12.977259 4.6427368,12.855074 4.4058387,12.219493 4.2344522,11.557864 4.1564795,10.883588 4.086965,10.129872 4.0638642,9.3781212 4.1892259,8.6278698 4.2660998,8.1637554 4.3669786,7.7045025 4.5918395,7.2861278 4.7530157,6.9836413 4.9361568,6.6944149 5.1485275,6.4248368 5.588595,5.8704535 4.8045785,5.2481037 4.3645108,5.8024873 Z" />
    <path
       style="fill:#000000;stroke-width:0.264583"
       id="path641"
       d="m 3.2613623,4.9687694 c 0.030251,0.022767 0.061893,0.043795 0.090753,0.068301 0.1493483,0.1268185 0.2890671,0.2645601 0.4340037,0.396398 0.3228927,0.2937103 0.6512818,0.580757 0.9810077,0.8667335 C 5.1541859,6.6459321 5.5677855,6.9669135 5.9144661,7.3549816 6.3878126,7.881236 7.1320484,7.2118227 6.658702,6.6855686 v 0 C 6.2818964,6.2687832 5.8449344,5.9133231 5.4229661,5.5439772 5.1003893,5.2642407 4.7790861,4.9835016 4.4631951,4.6961967 4.3087149,4.5556961 4.1168505,4.3734386 3.9529064,4.2364136 3.9173456,4.2066916 3.8787011,4.1808667 3.8415986,4.1530934 3.2648286,3.7428045 2.6845926,4.5584805 3.2613623,4.9687694 Z" />
    <path
       style="fill:#000000;stroke-width:0.264583"
       id="path643"
       d="M 14.302958,7.3638769 C 14.673264,6.9609834 15.039261,6.5548099 15.424354,6.1658555 15.773857,5.815503 16.144015,5.4867341 16.49763,5.1407059 16.558364,5.0808135 16.618292,5.020107 16.676795,4.9580334 17.161756,4.4424626 16.432629,3.756624 15.947668,4.2721948 v 0 c -0.04895,0.05219 -0.0995,0.102843 -0.150297,0.153222 -0.357292,0.3499567 -0.732172,0.6816138 -1.084731,1.0365459 -0.385756,0.3904303 -0.754731,0.7959268 -1.124616,1.2012938 -0.495414,0.5055354 0.219521,1.2061558 0.714934,0.7006204 z" />
  </g>
</svg>
