<?xml version="1.0" encoding="UTF-8" standalone="no"?>
<!-- Created with Inkscape (http://www.inkscape.org/) -->

<svg
   width="80"
   height="80"
   viewBox="0 0 21.166666 21.166666"
   version="1.1"
   id="svg5"
   inkscape:version="1.2.2 (732a01da63, 2022-12-09)"
   sodipodi:docname="15.svg"
   xmlns:inkscape="http://www.inkscape.org/namespaces/inkscape"
   xmlns:sodipodi="http://sodipodi.sourceforge.net/DTD/sodipodi-0.dtd"
   xmlns="http://www.w3.org/2000/svg"
   xmlns:svg="http://www.w3.org/2000/svg">
  <sodipodi:namedview
     id="namedview7"
     pagecolor="#ffffff"
     bordercolor="#000000"
     borderopacity="0.25"
     inkscape:showpageshadow="2"
     inkscape:pageopacity="0.0"
     inkscape:pagecheckerboard="0"
     inkscape:deskcolor="#d1d1d1"
     inkscape:document-units="mm"
     showgrid="true"
     inkscape:zoom="5.6050184"
     inkscape:cx="84.923896"
     inkscape:cy="50.847291"
     inkscape:window-width="1258"
     inkscape:window-height="1290"
     inkscape:window-x="-11"
     inkscape:window-y="-11"
     inkscape:window-maximized="1"
     inkscape:current-layer="layer1">
    <inkscape:grid
       type="xygrid"
       id="grid175" />
  </sodipodi:namedview>
  <defs
     id="defs2" />
  <g
     inkscape:label="Layer 1"
     inkscape:groupmode="layer"
     id="layer1">
    <path
       style="fill:#000000;stroke-width:0.264583"
       id="path639"
       d="m 16.720441,16.024543 c 0.25026,-0.315659 0.463562,-0.656317 0.654651,-1.010234 0.212266,-0.410506 0.359469,-0.84964 0.448756,-1.302669 0.02265,-0.114939 0.03934,-0.230974 0.05901,-0.34646 0.106885,-0.68694 0.128945,-1.383502 0.0817,-2.076651 -0.0099,-0.14553 -0.02614,-0.290561 -0.03921,-0.435842 -0.08512,-0.754467 -0.273398,-1.4952072 -0.536738,-2.2068172 -0.0509,-0.137534 -0.108571,-0.272463 -0.162857,-0.408695 -0.196768,-0.478759 -0.468985,-0.920641 -0.785658,-1.328887 -0.18396,-0.237157 -0.284711,-0.344084 -0.481069,-0.565991 -0.42247,-0.474643 -0.907427,-0.885914 -1.415847,-1.264666 -0.43582,-0.332896 -0.946218,-0.525566 -1.46422,-0.687679 -0.479899,-0.118749 -0.96483,-0.236958 -1.45702,-0.293043 -0.12531,-0.01428 -0.251327,-0.02147 -0.37699,-0.03221 -0.506301,-0.03446 -1.014694,-0.03312 -1.5201743,0.01365 -0.33769,0.03124 -0.427318,0.05069 -0.764004,0.10324 -0.765483,0.111734 -1.480619,0.404955 -2.178106,0.726236 -0.401466,0.187595 -0.796548,0.391146 -1.166696,0.635721 -0.211934,0.140035 -0.252217,0.177179 -0.447823,0.329369 -0.382015,0.31936 -0.710652,0.696703 -1.025466,1.080834 -0.275367,0.336656 -0.498783,0.709532 -0.69671,1.095565 -0.158962,0.311122 -0.240132,0.651613 -0.310915,0.991348 -0.06779,0.339564 -0.09077,0.685333 -0.104111,1.0306162 -0.01926,0.383693 -6.61e-4,0.766104 0.03308,1.148301 0.03806,0.359206 0.08178,0.719084 0.16679,1.07075 0.06092,0.252029 0.08774,0.318416 0.167627,0.563988 0.198695,0.540548 0.490667,1.039136 0.766981,1.542303 0.148046,0.253295 0.27331,0.519908 0.424645,0.771317 0.106635,0.177152 0.126309,0.196423 0.246931,0.361325 0.161416,0.215305 0.360053,0.394676 0.575419,0.553806 0.571161,0.418062 1.162389,-0.389682 0.591228,-0.807743 v 0 c -0.135238,-0.09745 -0.260115,-0.207311 -0.361504,-0.340828 -0.237444,-0.316984 -0.405506,-0.675533 -0.599312,-1.019705 -0.246568,-0.448999 -0.508326,-0.893103 -0.693175,-1.372236 -0.06559,-0.198344 -0.09004,-0.259404 -0.140148,-0.462366 -0.07691,-0.311504 -0.113859,-0.631008 -0.148429,-0.949388 -0.03056,-0.339991 -0.04749,-0.679975 -0.02986,-1.021379 0.01089,-0.2899182 0.02833,-0.5804272 0.08404,-0.8657822 0.05181,-0.252084 0.106433,-0.506939 0.222084,-0.738853 0.164457,-0.323189 0.350291,-0.635402 0.580068,-0.917165 0.267478,-0.327539 0.546093,-0.650021 0.867451,-0.926248 0.434472,-0.342087 0.912096,-0.618826 1.41709,-0.844591 0.61333,-0.283359 1.240401,-0.548046 1.914274,-0.646335 0.682491,-0.108155 1.3543403,-0.165936 2.0458593,-0.108182 0.10589,0.0085 0.212074,0.01391 0.317671,0.0255 0.439757,0.048223 0.87235,0.156066 1.301856,0.258003 0.410788,0.126884 0.818678,0.271253 1.164374,0.535206 0.453971,0.336669 0.886801,0.702866 1.264049,1.125409 0.431147,0.485187 0.842405,0.993461 1.08633,1.602593 0.04862,0.120994 0.100309,0.240796 0.14585,0.362981 0.236898,0.635581 0.408285,1.2972102 0.486257,1.9714862 0.06951,0.753716 0.09262,1.505467 -0.03275,2.255718 -0.07687,0.464114 -0.177752,0.923367 -0.402613,1.341742 -0.161177,0.302487 -0.344318,0.591713 -0.556688,0.861291 -0.440068,0.554383 0.343949,1.176733 0.784016,0.62235 z" />
    <path
       style="fill:#000000;stroke-width:0.264583"
       id="path641"
       d="m 17.823589,16.858263 c -0.03025,-0.02277 -0.06189,-0.04379 -0.09075,-0.0683 -0.149348,-0.126818 -0.289067,-0.26456 -0.434003,-0.396398 -0.322893,-0.29371 -0.651282,-0.580757 -0.981008,-0.866733 -0.387059,-0.34573 -0.800659,-0.666712 -1.147339,-1.05478 -0.473347,-0.526254 -1.217583,0.143159 -0.744236,0.669413 v 0 c 0.376805,0.416786 0.813767,0.772246 1.235736,1.141592 0.322576,0.279736 0.64388,0.560475 0.959771,0.84778 0.15448,0.140501 0.346344,0.322758 0.510288,0.459783 0.03556,0.02972 0.0742,0.05555 0.111308,0.08332 0.57677,0.410289 1.157006,-0.405387 0.580236,-0.815676 z" />
    <path
       style="fill:#000000;stroke-width:0.264583"
       id="path643"
       d="m 6.7819937,14.463156 c -0.370306,0.402893 -0.736303,0.809067 -1.121396,1.198021 -0.349503,0.350353 -0.719661,0.679122 -1.073276,1.02515 -0.06073,0.05989 -0.120662,0.120599 -0.179165,0.182672 -0.484961,0.515571 0.244166,1.20141 0.729127,0.685839 v 0 c 0.04895,-0.05219 0.0995,-0.102843 0.150297,-0.153222 0.357292,-0.349957 0.732172,-0.681614 1.084731,-1.036546 0.385756,-0.39043 0.754731,-0.795927 1.124616,-1.201294 0.495414,-0.505535 -0.219521,-1.206155 -0.714934,-0.70062 z" />
  </g>
</svg>
