<?xml version="1.0" encoding="UTF-8" standalone="no"?>
<!-- Created with Inkscape (http://www.inkscape.org/) -->

<svg
   width="80"
   height="80"
   viewBox="0 0 21.166666 21.166666"
   version="1.1"
   id="svg5"
   inkscape:version="1.2.2 (732a01da63, 2022-12-09)"
   sodipodi:docname="16.svg"
   xmlns:inkscape="http://www.inkscape.org/namespaces/inkscape"
   xmlns:sodipodi="http://sodipodi.sourceforge.net/DTD/sodipodi-0.dtd"
   xmlns="http://www.w3.org/2000/svg"
   xmlns:svg="http://www.w3.org/2000/svg">
  <sodipodi:namedview
     id="namedview7"
     pagecolor="#ffffff"
     bordercolor="#000000"
     borderopacity="0.25"
     inkscape:showpageshadow="2"
     inkscape:pageopacity="0.0"
     inkscape:pagecheckerboard="0"
     inkscape:deskcolor="#d1d1d1"
     inkscape:document-units="mm"
     showgrid="true"
     inkscape:zoom="5.6050184"
     inkscape:cx="84.923896"
     inkscape:cy="50.401262"
     inkscape:window-width="1258"
     inkscape:window-height="1290"
     inkscape:window-x="-11"
     inkscape:window-y="-11"
     inkscape:window-maximized="1"
     inkscape:current-layer="layer1">
    <inkscape:grid
       type="xygrid"
       id="grid175" />
  </sodipodi:namedview>
  <defs
     id="defs2" />
  <g
     inkscape:label="Layer 1"
     inkscape:groupmode="layer"
     id="layer1">
    <path
       style="fill:#000000;stroke-width:0.264583"
       id="path667"
       d="m 2.49629,10.817881 c 0.059141,0.03494 0.1157048,0.07467 0.1774238,0.104834 0.353174,0.172579 0.839747,0.205138 1.226009,0.24335 0.5576925,0.04501 1.1174537,0.05454 1.6767069,0.05561 0.4261742,-0.0044 0.8518922,-0.02514 1.277739,-0.04067 0.4060026,-0.005 0.8115679,3.44e-4 1.2172334,-0.01902 0.4504817,-0.03286 0.9014224,-0.0577 1.3515451,-0.09531 0.4666236,-0.04257 0.9347938,-0.06359 1.4031788,-0.07149 0.468507,-0.01022 0.936936,0.0039 1.405282,0.01443 0.406019,0.0038 0.812022,0.0092 1.218039,0.01322 0.321729,0.002 0.643538,-0.0021 0.965232,-0.0072 0.445744,-0.01537 0.891176,-0.03839 1.336816,-0.05663 0.414842,-0.02016 0.830198,-0.01877 1.245378,-0.02207 0.273994,-0.0037 0.547987,-0.0074 0.821953,-0.01276 0.176065,-0.0038 0.352159,-0.0058 0.528258,-0.0069 0.707798,-0.0048 0.701062,-1.0057407 -0.0067,-1.0009777 v 0 c -0.180439,0.00122 -0.360873,0.00328 -0.541277,0.00712 -0.270047,0.00533 -0.540122,0.00893 -0.810197,0.012597 -0.426163,0.00342 -0.852502,0.00217 -1.278318,0.022876 -0.437269,0.017899 -0.874342,0.040204 -1.311689,0.055922 -0.313101,0.005 -0.626323,0.0089 -0.939458,0.0071 -0.401868,-0.004 -0.803721,-0.0094 -1.205592,-0.01302 -0.481539,-0.010779 -0.963163,-0.025053 -1.444865,-0.01453 -0.490494,0.00856 -0.9807745,0.030251 -1.4694372,0.074822 -0.4384326,0.03671 -0.877683,0.06058 -1.3164431,0.093 -0.4016801,0.01969 -0.8033652,0.01157 -1.2053792,0.01852 -0.413099,0.01506 -0.8260675,0.03516 -1.2394708,0.04 -0.5273095,-8.73e-4 -1.0550832,-0.0095 -1.5809981,-0.05085 -0.2247717,-0.02173 -0.4495734,-0.04292 -0.6715037,-0.08627 -0.041506,-0.0081 -0.0826,-0.01829 -0.1235081,-0.02902 -0.023715,-0.0062 -0.045825,-0.01966 -0.070249,-0.02177 -0.00563,-4.76e-4 0.00344,0.01076 0.00516,0.01613 -0.5437526,-0.4531369 -1.1845857,0.315845 -0.640833,0.768983 z" />
    <path
       style="fill:#000000;stroke-width:0.264583"
       id="path671"
       d="m 2.0208119,8.5877161 c 0.021804,0.5209505 0.030403,1.0423157 0.045309,1.5635019 0.016223,0.606125 0.046013,1.211767 0.061417,1.817905 -0.00148,0.151063 0.01423,0.303404 -0.00172,0.454114 -0.057928,0.705439 0.9397141,0.787362 0.997642,0.08192 v 0 c 0.013592,-0.186984 0.010435,-0.374174 0.00475,-0.561516 C 3.1127234,11.336446 3.0831097,10.72974 3.0667089,10.12256 3.0518923,9.6060222 3.0436346,9.0892912 3.021702,8.5729976 3.0112933,7.8652602 2.0104026,7.8799787 2.0208103,8.5877163 Z" />
    <path
       style="fill:#000000;stroke-width:0.264583"
       id="path673"
       d="m 18.145349,8.7268687 c 0.0037,0.5321591 0.03906,1.0632019 0.07266,1.5940893 0.03811,0.592007 0.06707,1.184898 0.06765,1.778232 -0.0027,0.04916 -0.0055,0.09832 -0.0082,0.147475 -0.03614,0.70689 0.963551,0.758004 0.999694,0.05111 v 0 c 0.0032,-0.06667 0.0064,-0.133334 0.0095,-0.200001 -0.0011,-0.613959 -0.02977,-1.227475 -0.06965,-1.840062 -0.03245,-0.5124574 -0.06699,-1.025039 -0.07069,-1.538728 -0.0056,-0.7077919 -1.006543,-0.6999105 -1.000969,0.00788 z" />
    <path
       style="fill:#000000;stroke-width:0.264583"
       id="path675"
       d="m 2.75312,4.4610385 c 0.2600851,-0.035503 0.5216916,-0.013922 0.7807476,0.017632 0.2701678,0.046071 0.5451258,0.084077 0.8046976,0.1761553 0.1481614,0.052557 0.3004037,0.1258099 0.4425297,0.1902013 0.470083,0.2217267 0.9215969,0.4803728 1.3681281,0.7456789 0.4198315,0.2277835 0.7649659,0.5526265 1.1013268,0.8859457 0.3463147,0.3349548 0.5647298,0.7065182 0.7803202,1.1308381 0.2505324,0.475298 0.4303821,0.9792436 0.575959,1.4950305 0.1389944,0.5176634 0.1331524,1.0556187 0.1005917,1.5861217 -0.076211,0.533895 -0.1955673,1.064945 -0.3729902,1.574932 -0.038724,0.111307 -0.084029,0.220214 -0.1260436,0.330321 -0.2050505,0.526595 -0.52593,1.001804 -0.9138242,1.411338 -0.058696,0.06197 -0.1218348,0.119578 -0.1827522,0.179368 -0.4584782,0.37562 -0.9822625,0.656662 -1.5088833,0.922949 -0.505478,0.244046 -1.0219444,0.464208 -1.5323521,0.697593 -0.3846565,0.183907 -0.7800737,0.342116 -1.1796887,0.489939 -0.1815743,0.06192 -0.09476,0.03417 -0.2601374,0.0842 -0.677017,0.206515 -0.384961,1.163962 0.292056,0.957447 v 0 C 3.1280211,17.273719 3.022798,17.307809 3.2382753,17.233868 3.6611644,17.07733 4.0796069,16.909672 4.4868766,16.715467 5.0093099,16.476521 5.5381858,16.2516 6.0550525,16.000624 6.6740264,15.686918 7.288505,15.352354 7.8161231,14.895897 7.8924301,14.819807 7.9714531,14.746352 8.045044,14.667634 8.5126805,14.167422 8.8955284,13.587353 9.1445026,12.94842 9.192984,12.819575 9.2450207,12.692013 9.2899467,12.561885 9.4926482,11.974761 9.6281813,11.363074 9.7066832,10.747595 9.7433153,10.104751 9.7427946,9.4549411 9.5697377,8.82901 9.4047039,8.251182 9.203271,7.6856515 8.922545,7.1526074 8.8217625,6.9557343 8.7669157,6.8396743 8.6527991,6.6513844 8.4569312,6.3282067 8.2200005,6.034062 7.954742,5.7652332 7.8166777,5.6287116 7.6726816,5.4827302 7.5273886,5.3539659 7.2599811,5.1169794 6.969027,4.9098996 6.6604329,4.7300856 6.1814601,4.4456418 5.6968352,4.1688866 5.1920788,3.9322864 4.9729112,3.8341141 4.8495955,3.7726598 4.6239379,3.6953647 4.3092018,3.5875573 3.978253,3.5372167 3.6511023,3.4845582 3.3092072,3.4452647 2.9643056,3.4207053 2.6216044,3.4687155 1.9199262,3.5617113 2.0514418,4.5540339 2.75312,4.4610385 Z" />
    <path
       style="fill:#000000;stroke-width:0.264583"
       id="path677"
       d="m 17.795972,2.6850403 c -0.306025,0.1300038 -0.61865,0.2425862 -0.932532,0.351899 -0.63186,0.217024 -1.247998,0.4775576 -1.84377,0.7793882 -0.463521,0.2506694 -0.897712,0.5552712 -1.291249,0.9058515 -0.09027,0.08042 -0.176523,0.1652453 -0.264784,0.2478678 -0.394312,0.3970634 -0.750357,0.8343386 -1.041475,1.3130106 -0.05555,0.091344 -0.106471,0.1854288 -0.159707,0.2781433 -0.299046,0.5633188 -0.518271,1.1647508 -0.696216,1.775906 -0.20467,0.8073647 -0.171463,1.6433509 -0.120791,2.4669273 0.02752,0.40555 0.07903,0.808349 0.177872,1.203097 0.09785,0.390789 0.235084,0.768684 0.373749,1.146228 0.178867,0.447462 0.394617,0.88643 0.682837,1.274766 0.04873,0.06565 0.101953,0.127848 0.15293,0.191772 0.260336,0.301056 0.570719,0.55172 0.876592,0.804153 0.307704,0.256312 0.644833,0.469722 0.996794,0.658895 0.334377,0.182498 0.686495,0.324213 1.049485,0.437529 0.333696,0.08674 0.658104,0.19724 0.974105,0.334496 0.30807,0.133815 0.612607,0.276256 0.926706,0.395599 0.136089,0.05234 0.277413,0.08735 0.421091,0.110505 0.699405,0.10878 0.853243,-0.880328 0.153838,-0.989108 v 0 c -0.07587,-0.01071 -0.149879,-0.03038 -0.221486,-0.05792 C 17.710063,16.201901 17.421571,16.06165 17.127182,15.936223 16.778108,15.785787 16.421033,15.65997 16.05273,15.564557 15.749997,15.471026 15.457014,15.352735 15.178497,15.20036 14.884231,15.043752 14.603381,14.865613 14.346518,14.651963 14.092727,14.442581 13.833966,14.236221 13.612327,13.991888 13.322655,13.637447 13.101133,13.234757 12.936483,12.80767 12.684987,12.125644 12.471327,11.476784 12.444514,10.741854 12.399853,10.033077 12.362463,9.3124421 12.527826,8.6152269 12.681535,8.0795854 12.874499,7.5532024 13.131551,7.0578633 13.41243,6.5635703 13.741967,6.099567 14.148989,5.6996319 14.551776,5.319737 14.9807,4.9673692 15.473406,4.7085858 16.028034,4.4253271 16.604199,4.1855924 17.19286,3.9821818 17.513045,3.8705231 17.832565,3.7567539 18.144514,3.6234004 18.808034,3.3769445 18.459493,2.4385843 17.795972,2.6850403 Z" />
  </g>
</svg>
