<?xml version="1.0" encoding="UTF-8" standalone="no"?>
<!-- Created with Inkscape (http://www.inkscape.org/) -->

<svg
   width="80"
   height="80"
   viewBox="0 0 21.166666 21.166666"
   version="1.1"
   id="svg5"
   inkscape:version="1.2.2 (732a01da63, 2022-12-09)"
   sodipodi:docname="17.svg"
   xmlns:inkscape="http://www.inkscape.org/namespaces/inkscape"
   xmlns:sodipodi="http://sodipodi.sourceforge.net/DTD/sodipodi-0.dtd"
   xmlns="http://www.w3.org/2000/svg"
   xmlns:svg="http://www.w3.org/2000/svg">
  <sodipodi:namedview
     id="namedview7"
     pagecolor="#ffffff"
     bordercolor="#000000"
     borderopacity="0.25"
     inkscape:showpageshadow="2"
     inkscape:pageopacity="0.0"
     inkscape:pagecheckerboard="0"
     inkscape:deskcolor="#d1d1d1"
     inkscape:document-units="mm"
     showgrid="true"
     inkscape:zoom="5.6050184"
     inkscape:cx="84.923896"
     inkscape:cy="51.025702"
     inkscape:window-width="1258"
     inkscape:window-height="1290"
     inkscape:window-x="-11"
     inkscape:window-y="-11"
     inkscape:window-maximized="1"
     inkscape:current-layer="layer1">
    <inkscape:grid
       type="xygrid"
       id="grid175" />
  </sodipodi:namedview>
  <defs
     id="defs2" />
  <g
     inkscape:label="Layer 1"
     inkscape:groupmode="layer"
     id="layer1">
    <path
       style="fill:#000000;stroke-width:0.264583"
       id="path691"
       d="M 3.6721203,17.251422 C 3.740141,16.954085 3.8377907,16.662788 3.9255909,16.370523 4.097293,15.779804 4.3602835,15.222838 4.6557218,14.685268 4.9035498,14.285252 5.183402,13.9052 5.4661146,13.529218 5.6758188,13.264958 5.9028181,13.011193 6.1558389,12.787254 6.3264113,12.636287 6.4236171,12.569767 6.60685,12.432971 7.0900686,12.093119 7.601378,11.796908 8.1249791,11.52444 c 0.3125748,-0.171503 0.6463372,-0.291286 0.9887297,-0.386061 0.2203381,-0.06832 0.4461941,-0.106451 0.6755336,-0.124659 0.4106256,-0.01984 0.8209416,0.0233 1.2289176,0.06491 0.415484,0.03908 0.822756,0.122937 1.222807,0.239447 0.352322,0.106396 0.693681,0.243378 1.025121,0.4026 0.331892,0.157216 0.635486,0.362248 0.931386,0.577776 0.2705,0.206124 0.538834,0.415313 0.796936,0.636839 0.209628,0.178147 0.404987,0.371121 0.58335,0.580386 0.180112,0.227467 0.347174,0.464906 0.518343,0.699105 0.175919,0.239627 0.353782,0.477871 0.517447,0.726111 0.146095,0.230314 0.284238,0.465745 0.415933,0.704572 0.12488,0.220314 0.215783,0.457159 0.306222,0.693011 0.08674,0.224928 0.145782,0.458949 0.212036,0.690347 0.05751,0.178765 0.100683,0.360785 0.124535,0.546973 0.0099,0.115534 0.02183,0.230887 0.03033,0.346537 0.05223,0.705884 1.050501,0.63202 0.998271,-0.07386 v 0 c -0.01004,-0.134794 -0.02327,-0.269337 -0.03623,-0.403873 -0.03168,-0.234756 -0.08221,-0.465773 -0.154637,-0.691545 -0.0744,-0.259353 -0.141493,-0.521373 -0.239732,-0.77316 -0.107047,-0.278832 -0.216924,-0.557707 -0.364455,-0.818201 -0.144756,-0.261954 -0.296108,-0.520453 -0.457182,-0.772733 -0.172871,-0.261007 -0.358513,-0.512967 -0.544372,-0.764833 -0.186399,-0.255037 -0.367905,-0.513994 -0.566447,-0.75984 -0.212809,-0.247251 -0.442819,-0.478083 -0.691998,-0.689037 -0.278594,-0.238472 -0.567238,-0.46484 -0.859509,-0.686285 -0.345471,-0.251003 -0.701193,-0.487937 -1.088224,-0.671269 -0.381476,-0.181865 -0.773503,-0.340178 -1.178898,-0.461174 -0.458213,-0.131846 -0.924213,-0.22917 -1.3997,-0.273747 -0.469012,-0.04762 -0.940862,-0.094705 -1.4127565,-0.06664 -0.2918909,0.02487 -0.5802381,0.07199 -0.8610819,0.157812 -0.4094321,0.114194 -0.8086871,0.259296 -1.1832704,0.462807 -0.5715317,0.298232 -1.129997,0.621969 -1.656194,0.995474 -0.2336702,0.175992 -0.3219786,0.234945 -0.5412478,0.430703 -0.2930356,0.261616 -0.5561428,0.557021 -0.7990843,0.864979 -0.3110928,0.41429 -0.6197012,0.832739 -0.8879607,1.27631 -0.3277407,0.599583 -0.6197488,1.220268 -0.8109764,1.878315 -0.1067729,0.355426 -0.2320621,0.709443 -0.2915137,1.076418 -0.065391,0.704786 0.931328,0.797264 0.996719,0.09248 z" />
    <path
       style="fill:#000000;stroke-width:0.264583"
       id="path693"
       d="m 2.2705895,3.2792944 c 0.1658978,0.4380558 0.340266,0.8720556 0.5396787,1.2959532 0.2899254,0.6134545 0.6475386,1.1889656 1.0385907,1.7420516 0.3590462,0.5220097 0.7405737,1.0280004 1.1596804,1.5032172 0.2759202,0.3097978 0.543964,0.6271403 0.8391755,0.9191263 0.1618353,0.1600671 0.2315834,0.2180172 0.3981161,0.3655383 0.3193365,0.2820455 0.689038,0.4912733 1.0674927,0.6815736 0.2712249,0.142895 0.556959,0.2526064 0.8422119,0.3632674 0.2394606,0.09401 0.4747556,0.198114 0.709518,0.303193 0.3361182,0.14607 0.6885382,0.250221 1.0431372,0.340401 0.4564153,0.11332 0.9244903,0.140354 1.3925553,0.150993 0.429591,0.0068 0.857274,-0.02884 1.280288,-0.101493 0.306957,-0.06353 0.61462,-0.146456 0.897175,-0.285362 0.07181,-0.0353 0.141004,-0.0757 0.211506,-0.113548 0.313052,-0.177667 0.612666,-0.377324 0.903959,-0.5884184 0.242293,-0.1646265 0.453169,-0.3655958 0.654518,-0.5769283 0.319032,-0.3390689 0.586228,-0.7208081 0.839513,-1.1100253 0.284784,-0.4754374 0.551624,-0.9609796 0.837684,-1.4357016 0.241731,-0.3876831 0.46784,-0.783984 0.656307,-1.2002616 0.121717,-0.2827901 0.223747,-0.5734566 0.326397,-0.8635447 0.06749,-0.1893052 0.129526,-0.3804682 0.195827,-0.5701843 0.08698,-0.2121378 0.11274,-0.4383272 0.128914,-0.6648881 0.0083,-0.1386797 0.011,-0.2775939 0.01191,-0.4164883 0.0045,-0.7077996 -0.99648,-0.7141633 -1.00098,-0.00636 v 0 c -7.14e-4,0.1179044 -0.0029,0.2358245 -0.0095,0.3535659 -0.0092,0.138571 -0.01765,0.2752003 -0.07531,0.4040439 -0.06582,0.1884672 -0.127582,0.3783031 -0.194495,0.5663922 -0.09338,0.2638938 -0.18585,0.5284226 -0.29534,0.7861839 -0.170652,0.3807913 -0.381675,0.7403013 -0.601096,1.0949446 -0.280269,0.4652047 -0.543205,0.9401161 -0.819951,1.407352 -0.218883,0.3382973 -0.449838,0.6702602 -0.725532,0.9654905 -0.158731,0.1676345 -0.323608,0.3274798 -0.51661,0.4561504 -0.256513,0.1862892 -0.520388,0.3624017 -0.795668,0.5199885 -0.250346,0.1399691 -0.516887,0.2407253 -0.800386,0.2913483 -0.358971,0.06313 -0.722255,0.09157 -1.086965,0.08699 -0.392823,-0.0084 -0.785833,-0.02683 -1.169346,-0.120704 C 9.8547169,9.7481446 9.5576919,9.6608009 9.2739972,9.5395609 9.0237659,9.4275609 8.7728293,9.3168783 8.5175503,9.2167777 8.2619398,9.1176301 8.0052646,9.020972 7.7625139,8.8922006 7.4610095,8.7410392 7.1637075,8.5794245 6.9087624,8.3551682 6.7697676,8.2326216 6.699077,8.1735317 6.5648613,8.0412885 6.280522,7.7611281 6.0241696,7.4547932 5.7584272,7.1574436 5.3619014,6.7103446 5.0053169,6.2304413 4.665829,5.7388902 4.3078284,5.2339826 3.9807682,4.7084233 3.7155123,4.1480125 3.5270668,3.7502054 3.3655982,3.3414114 3.2087493,2.9302193 2.9619155,2.2668389 2.0237539,2.6159144 2.2705876,3.2792949 Z" />
  </g>
</svg>
