<?xml version="1.0" encoding="UTF-8" standalone="no"?>
<!-- Created with Inkscape (http://www.inkscape.org/) -->

<svg
   width="80"
   height="80"
   viewBox="0 0 21.166666 21.166666"
   version="1.1"
   id="svg5"
   inkscape:version="1.2.2 (732a01da63, 2022-12-09)"
   sodipodi:docname="18.svg"
   xmlns:inkscape="http://www.inkscape.org/namespaces/inkscape"
   xmlns:sodipodi="http://sodipodi.sourceforge.net/DTD/sodipodi-0.dtd"
   xmlns="http://www.w3.org/2000/svg"
   xmlns:svg="http://www.w3.org/2000/svg">
  <sodipodi:namedview
     id="namedview7"
     pagecolor="#ffffff"
     bordercolor="#000000"
     borderopacity="0.25"
     inkscape:showpageshadow="2"
     inkscape:pageopacity="0.0"
     inkscape:pagecheckerboard="0"
     inkscape:deskcolor="#d1d1d1"
     inkscape:document-units="mm"
     showgrid="true"
     inkscape:zoom="5.6050184"
     inkscape:cx="84.923896"
     inkscape:cy="50.579673"
     inkscape:window-width="1258"
     inkscape:window-height="1290"
     inkscape:window-x="-11"
     inkscape:window-y="-11"
     inkscape:window-maximized="1"
     inkscape:current-layer="layer1">
    <inkscape:grid
       type="xygrid"
       id="grid175" />
  </sodipodi:namedview>
  <defs
     id="defs2" />
  <g
     inkscape:label="Layer 1"
     inkscape:groupmode="layer"
     id="layer1">
    <path
       style="fill:#000000;stroke-width:0.264583"
       id="path704"
       d="m 4.046007,17.42971 c 0.3499495,-0.343105 0.7111161,-0.674271 1.0628174,-1.01562 0.1041943,-0.104292 0.2089378,-0.208039 0.312583,-0.312876 0.2433622,-0.246163 0.34852,-0.352421 0.5778847,-0.610875 C 6.2607687,15.1957 6.5087764,14.888981 6.7660162,14.590635 6.8702144,14.467297 6.9741284,14.343718 7.0786111,14.220621 7.2879142,13.974028 7.6957824,13.498884 7.8960172,13.255694 8.3789524,12.669159 8.8417698,12.066146 9.3095113,11.467541 10.17243,10.356623 11.072375,9.2752504 11.99985,8.2178267 12.614164,7.5183338 13.299321,6.8869612 13.972936,6.24607 14.554563,5.6915772 15.148234,5.1499597 15.730844,4.596521 16.092065,4.2605586 16.415581,3.8883907 16.74654,3.5235689 16.884607,3.37543 16.817812,3.4463005 16.94675,3.3107934 17.434564,2.7979206 16.709252,2.1080482 16.221439,2.620921 v 0 c -0.139117,0.1463182 -0.06694,0.069671 -0.216328,0.2301284 -0.314249,0.3464946 -0.62075,0.7006016 -0.963705,1.0197468 -0.58275,0.553653 -1.176743,1.0952935 -1.75845,1.6500644 C 12.587502,6.1825322 11.880925,6.8351344 11.24726,7.5578194 10.30747,8.6295898 9.3952236,9.7253228 8.5207506,10.851216 8.0606108,11.440094 7.6056034,12.033628 7.130552,12.610664 6.9320115,12.851827 6.5206392,13.331112 6.313925,13.574667 6.2115948,13.695235 6.1098405,13.81629 6.0077982,13.937101 c -0.250843,0.291117 -0.4928656,0.59032 -0.7475358,0.878081 -0.2183823,0.24676 -0.3123176,0.341055 -0.5470956,0.578645 -0.1000101,0.101208 -0.2010725,0.201371 -0.3016086,0.302056 -0.357278,0.346965 -0.7248636,0.682889 -1.0796646,1.032369 -0.4960056,0.504954 0.2181075,1.206412 0.7141134,0.701458 z" />
    <path
       style="fill:#000000;stroke-width:0.264583"
       id="path706"
       d="m 2.1797053,17.816029 c 0.3978672,-0.05476 0.8012358,-0.04917 1.2019977,-0.05944 0.6012797,-5.56e-4 1.1994915,-0.04592 1.7964661,-0.113081 0.2911178,-0.03338 0.5821172,-0.06802 0.8739899,-0.09423 0.029793,-0.0027 0.059633,-0.0053 0.089556,-0.0058 0.7075297,-0.02006 0.6791624,-1.020656 -0.028367,-1.000598 v 0 c -0.050372,0.0016 -0.1006843,0.0045 -0.1508538,0.0094 -0.2993136,0.02696 -0.5977765,0.0621 -0.8963083,0.09649 -0.5683046,0.06403 -1.137671,0.10731 -1.7101381,0.107126 -0.4326347,0.01109 -0.8678355,0.0068 -1.2973133,0.06645 -0.7026262,0.08554 -0.5816558,1.079202 0.1209704,0.993663 z" />
    <path
       style="fill:#000000;stroke-width:0.264583"
       id="path710"
       d="m 13.99411,3.3609719 c 0.350522,-0.015264 0.698916,-0.054132 1.046737,-0.098673 0.50296,-0.056428 1.008988,-0.079324 1.513605,-0.1175731 0.421017,-0.029498 0.841576,-0.066891 1.26386,-0.068655 0.162848,0.00153 0.324611,0.022744 0.486143,0.041493 0.703096,0.081591 0.818483,-0.9127362 0.115387,-0.9943273 v 0 c -0.201557,-0.023385 -0.403521,-0.048055 -0.606776,-0.048151 -0.445789,0.00274 -0.889872,0.039064 -1.334288,0.071506 -0.52189,0.039577 -1.04528,0.062963 -1.565329,0.1228487 -0.334006,0.042949 -0.668528,0.079464 -1.005131,0.094217 -0.70521,0.060665 -0.619417,1.0579813 0.08579,0.9973166 z" />
    <path
       style="fill:#000000;stroke-width:0.264583"
       id="path714"
       d="M 2.9520877,4.8944 C 3.0284502,4.7239724 3.1122556,4.6089678 3.2516479,4.4859056 3.5309794,4.3159031 3.8618313,4.2622451 4.1803865,4.2158322 c 0.051193,0.003 0.1029173,0.00106 0.1535787,0.009 0.2704758,0.042423 0.6122961,0.1831342 0.8458215,0.3234618 0.058616,0.035223 0.1130525,0.076974 0.1695786,0.1154602 0.3724651,0.3021568 0.6456567,0.7009816 0.9220341,1.0876471 0.4600559,0.6439955 0.7895473,1.367586 1.1274911,2.0798668 0.2230626,0.5236432 0.4767329,1.0332545 0.7139332,1.5504152 0.1383244,0.3015842 0.2719527,0.6073899 0.405889,0.9109347 0.4479177,1.046577 0.9730418,2.058154 1.5022853,3.065372 0.37117,0.69374 0.825174,1.343803 1.342354,1.936689 0.101406,0.11625 0.208167,0.227718 0.312251,0.341577 0.506822,0.493409 1.024064,0.989285 1.611589,1.387659 0.09032,0.06124 0.184471,0.116619 0.276707,0.174929 0.392203,0.228034 0.809698,0.422121 1.251549,0.532026 0.0797,0.01983 0.160812,0.03348 0.241218,0.05022 0.420445,0.05112 0.876657,0.02982 1.259864,-0.172525 0.08511,-0.04494 0.161702,-0.104448 0.242553,-0.156672 0.280134,-0.230522 0.488423,-0.529771 0.56819,-0.886429 0.01283,-0.05738 0.01757,-0.116271 0.02635,-0.174406 0.03585,-0.390679 -0.124241,-0.750613 -0.312064,-1.082007 -0.180552,-0.293215 -0.410671,-0.551407 -0.646087,-0.801102 -0.205723,-0.214191 -0.426552,-0.412281 -0.662595,-0.592269 -0.100273,-0.07674 -0.205883,-0.145921 -0.313019,-0.212557 -0.602017,-0.372258 -1.128469,0.479123 -0.526452,0.851381 v 0 c 0.08022,0.04916 0.158801,0.101059 0.233712,0.15808 0.193238,0.146293 0.37258,0.308957 0.541131,0.483223 0.182241,0.191912 0.361054,0.389973 0.50566,0.612428 0.04289,0.07277 0.06572,0.10721 0.100925,0.183743 0.09324,0.202686 -0.01179,-0.01259 0.06837,0.183334 0.0039,0.0095 0.01516,0.01543 0.01729,0.02547 0.0041,0.01939 4.76e-4,0.03963 7.14e-4,0.05945 -0.0026,0.03427 6.88e-4,0.06957 -0.0081,0.102796 -0.02758,0.104008 -0.09459,0.194298 -0.168795,0.269338 -0.01966,0.01827 -0.03631,0.04044 -0.05898,0.05481 -0.196203,0.124347 -0.448254,0.128143 -0.670496,0.112723 -0.410533,-0.07921 -0.799246,-0.234334 -1.158603,-0.448774 -0.0748,-0.04658 -0.151225,-0.09065 -0.224399,-0.139741 -0.532551,-0.357313 -0.997156,-0.809216 -1.45816,-1.251344 -0.09408,-0.102424 -0.190559,-0.202685 -0.282227,-0.30726 C 11.65956,14.114445 11.245066,13.523442 10.907099,12.892338 10.388373,11.905329 9.8732834,10.9142 9.4345132,9.8884972 9.0668053,9.0552645 8.6752985,8.2333953 8.3032554,7.402165 7.9398129,6.6362108 7.5818253,5.8604454 7.0855257,5.168988 6.7376746,4.6831255 6.386845,4.1893053 5.9017077,3.8289325 5.8152101,3.77279 5.7315425,3.7120253 5.6422146,3.6605045 5.266006,3.4435237 4.7827736,3.2625863 4.3490001,3.2239399 c -0.105201,-0.00937 -0.2112314,0.0013 -0.316847,0.00193 C 3.5141397,3.3050644 2.9886402,3.4174308 2.5698041,3.7530442 2.5209593,3.7996807 2.4696614,3.8438764 2.4232695,3.8929537 2.2725363,4.0524123 2.1585529,4.2391367 2.0625744,4.4353096 1.7379463,5.0642906 2.6274598,5.5233839 2.9520877,4.8944029 Z" />
  </g>
</svg>
