<?xml version="1.0" encoding="UTF-8" standalone="no"?>
<!-- Created with Inkscape (http://www.inkscape.org/) -->

<svg
   width="80"
   height="80"
   viewBox="0 0 21.166666 21.166666"
   version="1.1"
   id="svg5"
   inkscape:version="1.2.2 (732a01da63, 2022-12-09)"
   sodipodi:docname="19.svg"
   xmlns:inkscape="http://www.inkscape.org/namespaces/inkscape"
   xmlns:sodipodi="http://sodipodi.sourceforge.net/DTD/sodipodi-0.dtd"
   xmlns="http://www.w3.org/2000/svg"
   xmlns:svg="http://www.w3.org/2000/svg">
  <sodipodi:namedview
     id="namedview7"
     pagecolor="#ffffff"
     bordercolor="#000000"
     borderopacity="0.25"
     inkscape:showpageshadow="2"
     inkscape:pageopacity="0.0"
     inkscape:pagecheckerboard="0"
     inkscape:deskcolor="#d1d1d1"
     inkscape:document-units="mm"
     showgrid="true"
     inkscape:zoom="5.6050184"
     inkscape:cx="84.923896"
     inkscape:cy="50.758085"
     inkscape:window-width="1258"
     inkscape:window-height="1290"
     inkscape:window-x="-11"
     inkscape:window-y="-11"
     inkscape:window-maximized="1"
     inkscape:current-layer="layer1">
    <inkscape:grid
       type="xygrid"
       id="grid175" />
  </sodipodi:namedview>
  <defs
     id="defs2" />
  <g
     inkscape:label="Layer 1"
     inkscape:groupmode="layer"
     id="layer1">
    <path
       style="fill:#000000;stroke-width:0.264583"
       id="path759"
       d="M 4.1643702,4.7767904 C 4.5403206,4.6986854 4.9245832,4.6654743 5.3066177,4.6327332 6.4103802,4.557297 7.5153445,4.5034879 8.6192877,4.4302582 10.02776,4.3258652 11.437508,4.2416687 12.849909,4.2252929 c 0.816556,-0.013227 1.630662,0.045363 2.442598,0.1241956 0.376343,0.046448 0.752987,0.076048 1.132142,0.070898 0.107541,-0.0019 0.215333,-0.00695 0.322922,-0.00343 0.01389,4.498e-4 0.05505,0.00675 0.04156,0.00342 -0.04662,-0.011499 -0.109537,0.008 -0.141289,-0.028017 -0.120677,-0.1368804 -0.194523,-0.3088013 -0.291784,-0.4632018 0.01146,-0.051856 0.03869,-0.1026351 0.03439,-0.1555684 -0.0016,-0.020034 -0.02899,0.027849 -0.04366,0.041597 -0.03273,0.030692 -0.06445,0.062535 -0.09853,0.091723 -0.17967,0.1538711 -0.376484,0.2874621 -0.569256,0.423871 -0.639261,0.456198 -1.288464,0.898118 -1.932768,1.347122 C 12.885949,6.259087 12.03285,6.8505305 11.183608,7.4477141 10.379221,8.0271939 9.5502821,8.5714125 8.7489664,9.1550515 8.1478606,9.6109289 7.5543824,10.077286 6.9742864,10.559672 6.6010048,10.88665 6.212837,11.194401 5.8106473,11.484788 c -0.314779,0.224322 -0.6235689,0.45685 -0.9417465,0.676374 -0.1535319,0.09703 -0.3013223,0.205107 -0.4620448,0.290341 -0.4220355,0.232101 -0.20139,0.434297 0.096984,0.963098 0.018055,0.032 0.4690057,0.01912 0.508744,0.01832 0.6497134,-0.02636 1.2975449,-0.08497 1.9459027,-0.13272 0.7907014,-0.0562 1.5817704,-0.105902 2.3739382,-0.135416 0.7494701,-0.02188 1.4988121,-0.04763 2.2481131,-0.0746 0.759174,-0.03109 1.51909,-0.02266 2.278605,-0.01386 0.629054,0.01172 1.257947,0.02547 1.887135,0.02139 0.457258,-0.0059 0.914233,-0.02367 1.371326,-0.0363 0.707543,-0.01956 0.679882,-1.020177 -0.02766,-1.000618 v 0 c -0.450066,0.01245 -0.900016,0.02994 -1.350241,0.03594 -0.623135,0.0041 -1.245973,-0.01 -1.868978,-0.02134 -0.77538,-0.009 -1.551161,-0.01726 -2.32619,0.01445 -0.749748,0.02698 -1.499539,0.05272 -2.2494551,0.07465 -0.8042341,0.03008 -1.6073752,0.08024 -2.4101191,0.137423 -0.631126,0.04649 -1.2617344,0.103316 -1.8941121,0.130251 -0.052861,0.0012 -0.105713,0.003 -0.1585847,0.0037 -0.032962,4.24e-4 -0.066255,-0.005 -0.098893,-3.7e-4 -0.00888,0.0013 0.021789,0.0024 0.024596,0.01091 0.085542,0.259626 0.2089512,0.513039 0.2376085,0.784888 0.00407,0.03862 -0.2252376,0.163012 -0.112478,0.100671 0.1914522,-0.104618 0.3722631,-0.227423 0.5545079,-0.347034 0.3239206,-0.223757 0.6388605,-0.459923 0.959213,-0.688711 0.420488,-0.303911 0.8271102,-0.625105 1.217604,-0.966974 0.563513,-0.468888 1.1404415,-0.921689 1.7240803,-1.3652038 0.7964533,-0.5807295 1.6214953,-1.1207464 2.4209003,-1.6974995 0.848083,-0.596375 1.700076,-1.1869266 2.559148,-1.7673801 0.646431,-0.4504888 1.297772,-0.8938794 1.939136,-1.3515967 0.231984,-0.1645481 0.467292,-0.3263757 0.680536,-0.5154242 0.0547,-0.048491 0.239055,-0.2254851 0.27909,-0.294372 0.05527,-0.095104 0.08934,-0.2010436 0.134003,-0.3015654 -0.09408,-0.183964 -0.15207,-0.3914294 -0.282246,-0.551892 -0.04735,-0.058367 -0.143081,-0.04693 -0.21652,-0.062916 -0.03175,-0.00691 -0.06484,-0.0044 -0.09732,-0.0054 -0.114946,-0.00353 -0.230088,0.00122 -0.34499,0.0035 -0.342079,0.00525 -0.681453,-0.025067 -1.021045,-0.066321 -0.84798,-0.08225 -1.698299,-0.1423858 -2.551056,-0.1288068 -1.430574,0.017055 -2.85852,0.100943 -4.2851139,0.207092 C 7.4424618,3.5051539 6.3308425,3.5588868 5.2205035,3.6354559 4.7948603,3.6724629 4.367004,3.7105216 3.9484223,3.7993732 3.2572756,3.9520719 3.473224,4.9295007 4.1643707,4.7768023 Z" />
    <path
       style="fill:#000000;stroke-width:0.264583"
       id="path761"
       d="m 3.0036143,2.353845 c -0.00693,0.5085193 0.030297,1.017162 0.05457,1.5250376 0.027324,0.5278049 0.085952,1.0531954 0.1264516,1.5800094 0.014481,0.1650587 0.017753,0.3307093 0.019365,0.4962848 0.00722,0.707777 1.0081628,0.6975739 1.0009481,-0.010202 v 0 C 4.2029641,5.7571639 4.1988075,5.5692886 4.1826812,5.382052 4.1428101,4.864917 4.0856812,4.3491483 4.0580418,3.8310936 4.0345283,3.3391718 3.997425,2.8463592 4.0046134,2.3538458 c 0,-0.7078139 -1.0009999,-0.7078139 -1.0009999,0 z" />
    <path
       style="fill:#000000;stroke-width:0.264583"
       id="path763"
       d="m 16.606767,10.506948 c 0.07752,0.371131 0.129829,0.74711 0.178667,1.122916 0.07339,0.55248 0.140122,1.105813 0.200552,1.659851 0.03338,0.36617 0.09291,0.728802 0.150319,1.091681 0.01844,0.131041 0.03816,0.262492 0.04425,0.394838 0.03859,0.706761 1.038103,0.652184 0.999511,-0.05458 v 0 c -0.0098,-0.166422 -0.02978,-0.332067 -0.05508,-0.496824 -0.05498,-0.346917 -0.112286,-0.69355 -0.143902,-1.04367 -0.0612,-0.560951 -0.128736,-1.121193 -0.203031,-1.680569 -0.05789,-0.443667 -0.114427,-0.89062 -0.22648,-1.324321 -0.233822,-0.6680781 -1.178626,-0.3374039 -0.944805,0.330674 z" />
    <path
       style="fill:#000000;stroke-width:0.264583"
       id="path765"
       d="m 9.9197357,13.037803 c 0.047244,0.434615 0.088814,0.86985 0.1289003,1.305183 0.05476,0.599358 0.115527,1.198295 0.161286,1.798429 0.03247,0.471987 0.06235,0.944149 0.09104,1.41638 0.01367,0.347868 0.04594,0.694829 0.05289,1.042941 0.01491,0.707657 1.015688,0.686572 1.000778,-0.02108 v 0 C 11.34673,18.218324 11.31544,17.858133 11.30012,17.497087 11.27111,17.019664 11.24091,16.542308 11.20801,16.065136 11.16164,15.459841 11.100864,14.8557 11.045416,14.25119 11.002096,13.780921 10.960816,13.309977 10.901297,12.8415 10.762486,12.147431 9.780924,12.343739 9.9197347,13.037808 Z" />
    <path
       style="fill:#000000;stroke-width:0.264583"
       id="path767"
       d="m 9.3141794,19.716551 c 0.4356081,0.08899 0.8857566,0.06521 1.3274826,0.04934 0.501233,-0.01478 1.000537,-0.06429 1.498439,-0.121494 0.149385,-0.01761 0.298644,-0.03626 0.448508,-0.04936 0.705091,-0.06202 0.617382,-1.05917 -0.08771,-0.99715 v 0 c -0.158735,0.01403 -0.316915,0.03313 -0.475129,0.05206 -0.472,0.0543 -0.945313,0.101751 -1.420494,0.115605 -0.330955,0.0122 -0.6630237,0.02248 -0.9935451,-0.0048 -0.6758194,-0.210401 -0.9733717,0.745352 -0.2975525,0.955753 z" />
  </g>
</svg>
