<?xml version="1.0" encoding="UTF-8" standalone="no"?>
<!-- Created with Inkscape (http://www.inkscape.org/) -->

<svg
   width="80"
   height="80"
   viewBox="0 0 21.166666 21.166666"
   version="1.1"
   id="svg5"
   inkscape:version="1.2.2 (732a01da63, 2022-12-09)"
   sodipodi:docname="v.svg"
   xmlns:inkscape="http://www.inkscape.org/namespaces/inkscape"
   xmlns:sodipodi="http://sodipodi.sourceforge.net/DTD/sodipodi-0.dtd"
   xmlns="http://www.w3.org/2000/svg"
   xmlns:svg="http://www.w3.org/2000/svg">
  <sodipodi:namedview
     id="namedview7"
     pagecolor="#ffffff"
     bordercolor="#000000"
     borderopacity="0.25"
     inkscape:showpageshadow="2"
     inkscape:pageopacity="0.0"
     inkscape:pagecheckerboard="0"
     inkscape:deskcolor="#d1d1d1"
     inkscape:document-units="mm"
     showgrid="true"
     inkscape:zoom="5.6050184"
     inkscape:cx="85.191514"
     inkscape:cy="51.29332"
     inkscape:window-width="1258"
     inkscape:window-height="1290"
     inkscape:window-x="-11"
     inkscape:window-y="-11"
     inkscape:window-maximized="1"
     inkscape:current-layer="layer1">
    <inkscape:grid
       type="xygrid"
       id="grid175" />
  </sodipodi:namedview>
  <defs
     id="defs2" />
  <g
     inkscape:label="Layer 1"
     inkscape:groupmode="layer"
     id="layer1">
    <path
       style="fill:#000000;stroke-width:0.264583"
       id="path883"
       d="m 5.254277,5.6599899 c 0.3684201,0.5620723 0.6869512,1.1555719 1.0124636,1.743057 0.5834126,1.0949641 1.1173862,2.2153266 1.6523898,3.3344671 0.3793609,0.827036 0.7637481,1.651309 1.1672541,2.466873 0.2798212,0.575459 0.6227191,1.11666 0.9171605,1.684212 0.114876,0.231501 0.220403,0.467389 0.317152,0.706975 0.265827,0.656 1.193552,0.280064 0.927725,-0.375937 v 0 C 11.139258,14.951035 11.021528,14.686028 10.891615,14.426721 10.59916,13.865653 10.263034,13.32854 9.9835691,12.760472 9.5820231,11.948969 9.1999135,11.128617 8.8222361,10.305772 8.2785608,9.1685649 7.7358983,8.0301215 7.1422971,6.9178648 6.8404266,6.3731719 6.9127904,6.4997649 6.6148746,5.9771658 6.4500561,5.6880434 6.2892344,5.3900075 6.0945611,5.1189575 6.0542159,5.0627835 6.0088528,5.0103894 5.9659985,4.9561054 5.468277,4.4528425 4.7565555,5.156727 5.254277,5.6599899 Z" />
    <path
       style="fill:#000000;stroke-width:0.264583"
       id="path885"
       d="m 11.267971,15.813986 c 0.386954,-0.712676 0.79136,-1.415431 1.170668,-2.132257 0.362534,-0.738594 0.698925,-1.489723 1.060373,-2.228845 0.225546,-0.461216 0.289797,-0.575681 0.524372,-1.021579 0.08111,-0.15389 0.163415,-0.307157 0.24333,-0.461671 0.290194,-0.5610817 0.162423,-0.3381314 0.46581,-0.8995142 0.21807,-0.4035129 0.451056,-0.7982609 0.681651,-1.1946491 0.304492,-0.5301123 0.56621,-1.082885 0.832321,-1.6327797 0.106241,-0.2065972 0.202908,-0.4170286 0.286267,-0.6337845 0.251411,-0.6616594 -0.684316,-1.0172081 -0.935727,-0.3555487 v 0 c -0.07099,0.190231 -0.160384,0.3719669 -0.251579,0.5532946 -0.255038,0.5270174 -0.505328,1.0570702 -0.796525,1.5654742 -0.237444,0.4081661 -0.477037,0.8147979 -0.701465,1.2303659 -0.318474,0.5897097 -0.171046,0.3295933 -0.466282,0.9004102 -0.08006,0.1547939 -0.162515,0.3083396 -0.243772,0.4625091 -0.244595,0.4653222 -0.306484,0.5751272 -0.541784,1.0563122 -0.35539,0.726766 -0.686874,1.464992 -1.041827,2.191962 -0.367943,0.695854 -0.761883,1.377068 -1.134924,2.070167 -0.374861,0.6004 0.474233,1.130533 0.849093,0.530133 z" />
  </g>
</svg>
