<?xml version="1.0" encoding="UTF-8" standalone="no"?>
<!-- Created with Inkscape (http://www.inkscape.org/) -->

<svg
   width="80"
   height="80"
   viewBox="0 0 21.166666 21.166666"
   version="1.1"
   id="svg5"
   inkscape:version="1.2.2 (732a01da63, 2022-12-09)"
   sodipodi:docname="w.svg"
   xmlns:inkscape="http://www.inkscape.org/namespaces/inkscape"
   xmlns:sodipodi="http://sodipodi.sourceforge.net/DTD/sodipodi-0.dtd"
   xmlns="http://www.w3.org/2000/svg"
   xmlns:svg="http://www.w3.org/2000/svg">
  <sodipodi:namedview
     id="namedview7"
     pagecolor="#ffffff"
     bordercolor="#000000"
     borderopacity="0.25"
     inkscape:showpageshadow="2"
     inkscape:pageopacity="0.0"
     inkscape:pagecheckerboard="0"
     inkscape:deskcolor="#d1d1d1"
     inkscape:document-units="mm"
     showgrid="true"
     inkscape:zoom="5.6050184"
     inkscape:cx="85.369925"
     inkscape:cy="51.29332"
     inkscape:window-width="1258"
     inkscape:window-height="1290"
     inkscape:window-x="-11"
     inkscape:window-y="-11"
     inkscape:window-maximized="1"
     inkscape:current-layer="layer1">
    <inkscape:grid
       type="xygrid"
       id="grid175" />
  </sodipodi:namedview>
  <defs
     id="defs2" />
  <g
     inkscape:label="Layer 1"
     inkscape:groupmode="layer"
     id="layer1">
    <path
       style="fill:#000000;stroke-width:0.264583"
       id="path952"
       d="m 3.48083,5.506775 c 0.643474,1.4113163 1.0942886,2.9010784 1.5601756,4.3775066 0.5856415,1.8303744 1.1119641,3.6786224 1.6129752,5.5336794 0.074816,0.280374 0.1493885,0.560827 0.2206855,0.842122 0.009,0.0355 0.017288,0.07118 0.026596,0.106606 0.00663,0.02521 0.00826,0.05265 0.021196,0.07529 0.049822,0.08717 0.1104167,0.16773 0.1656252,0.251595 0.2508205,-0.03459 0.511928,-0.02471 0.7524612,-0.103776 0.060026,-0.01973 0.057923,-0.112454 0.082476,-0.170674 0.00904,-0.02144 0.048764,-0.163912 0.055262,-0.18593 0.037108,-0.125738 0.039839,-0.129983 0.086058,-0.271167 0.024934,-0.06674 0.048521,-0.134006 0.074805,-0.20023 0.1747967,-0.440421 0.3768923,-0.870457 0.5653257,-1.305063 0.4779385,-1.102325 0.098523,-0.247188 0.6236078,-1.416303 0.5758487,-1.25502 1.1949888,-2.489415 1.7971288,-3.7318454 0.115523,-0.2407034 0.232236,-0.4808453 0.351635,-0.7196521 0.01793,-0.035868 0.03495,-0.072221 0.05418,-0.1074113 0.0052,-0.00958 0.02812,-0.032687 0.01905,-0.026621 -0.108065,0.072266 -0.21176,0.1508627 -0.317639,0.2262941 -0.115115,-0.026487 -0.230231,-0.052975 -0.345346,-0.079463 -0.0088,0.00212 -0.02861,-0.00241 -0.0264,0.00636 0.01757,0.069877 0.05331,0.1338934 0.07863,0.2013482 0.04244,0.113031 0.08353,0.2265645 0.124655,0.3400813 0.134217,0.3704966 0.266485,0.7416967 0.399673,1.1125642 0.548704,1.440587 1.145639,2.862607 1.741108,4.284401 0.339612,0.780685 0.6248,1.583621 0.952343,2.369116 0.21618,0.42908 0.401774,0.478921 0.938237,0.234771 0.152922,-0.0696 0.191936,-0.595504 0.208594,-0.727267 0.147647,-1.133642 0.383568,-2.252305 0.637346,-3.36609 0.303477,-1.220528 0.542157,-2.455755 0.828555,-3.6802051 0.06112,-0.2612943 0.126397,-0.5215972 0.189595,-0.7823959 0.294175,-1.1249642 0.599739,-2.2468967 0.896451,-3.3712086 0.02526,-0.097926 0.05053,-0.1958518 0.07579,-0.2937775 C 18.108474,4.2440468 17.139204,3.994015 16.962404,4.6793927 v 0 c -0.02479,0.096129 -0.04959,0.1922577 -0.07438,0.2883863 -0.298441,1.1308797 -0.605979,2.259316 -0.90145,3.3909616 -0.0644,0.2659412 -0.130894,0.5313847 -0.193203,0.7978241 -0.286191,1.2237773 -0.524827,2.4582893 -0.828089,3.6781453 -0.260932,1.146031 -0.503047,2.297176 -0.654539,3.463647 -0.01029,0.08257 -0.02296,0.164871 -0.03088,0.247698 -8.47e-4,0.0088 -0.0017,0.03217 0.0047,0.02608 0.03414,-0.03241 0.04016,-0.100986 0.0859,-0.112079 0.192824,-0.04676 0.396936,-0.08351 0.592916,-0.05253 0.05332,0.0084 0.208756,0.275835 0.117419,0.122295 C 14.752192,15.744434 14.46893,14.94029 14.128068,14.159779 13.539223,12.753955 12.949123,11.347847 12.405744,9.9237508 12.271729,9.5505809 12.138903,9.176981 12.003565,8.8042889 11.963067,8.6927662 11.808406,8.2596283 11.742471,8.1343076 11.693703,8.041614 11.656459,7.9316555 11.571132,7.8709122 c -0.13369,-0.095173 -0.3045,-0.1224899 -0.45675,-0.1837349 -0.137817,0.079224 -0.284452,0.1447798 -0.413451,0.2376737 -0.02147,0.015462 -0.110334,0.1982716 -0.120479,0.2185641 -0.12087,0.2417958 -0.23907,0.484918 -0.356038,0.7286222 C 9.6180769,10.123263 8.9944611,11.366325 8.4149191,12.630379 7.8805608,13.82061 8.2662323,12.95109 7.7872914,14.055755 7.5913625,14.50766 7.3811317,14.954708 7.2007933,15.413233 c -0.030964,0.07873 -0.058666,0.1587 -0.087998,0.23805 -0.054098,0.16602 -0.053719,0.160303 -0.096943,0.306723 -0.00808,0.02737 -0.015758,0.05485 -0.023503,0.08232 -0.00343,0.01217 -0.018944,0.04555 -0.010017,0.03659 0.2851301,-0.286104 -0.8708337,0.0023 0.7680343,-0.133933 0.044885,0.07475 0.08595,0.151942 0.1346547,0.224267 0.00833,0.01237 -0.00878,-0.02851 -0.012547,-0.04294 -0.00977,-0.03736 -0.018568,-0.07496 -0.028059,-0.112393 C 7.7720147,15.726336 7.6963256,15.4416 7.6203539,15.156954 7.1156623,13.288407 6.5854389,11.426729 5.9955953,9.5830169 5.6532192,8.4983142 5.3142104,7.4146864 4.9123618,6.350129 4.7949138,6.0389917 4.5797152,5.483149 4.419165,5.1517422 4.3770129,5.0647322 4.323988,4.9834225 4.2763992,4.8992625 3.8468236,4.3367102 3.0512543,4.9442221 3.48083,5.506775 Z" />
  </g>
</svg>
