<?xml version="1.0" encoding="UTF-8" standalone="no"?>
<!-- Created with Inkscape (http://www.inkscape.org/) -->

<svg
   width="80"
   height="80"
   viewBox="0 0 21.166666 21.166666"
   version="1.1"
   id="svg5"
   inkscape:version="1.2.2 (732a01da63, 2022-12-09)"
   sodipodi:docname="20.svg"
   xmlns:inkscape="http://www.inkscape.org/namespaces/inkscape"
   xmlns:sodipodi="http://sodipodi.sourceforge.net/DTD/sodipodi-0.dtd"
   xmlns="http://www.w3.org/2000/svg"
   xmlns:svg="http://www.w3.org/2000/svg">
  <sodipodi:namedview
     id="namedview7"
     pagecolor="#ffffff"
     bordercolor="#000000"
     borderopacity="0.25"
     inkscape:showpageshadow="2"
     inkscape:pageopacity="0.0"
     inkscape:pagecheckerboard="0"
     inkscape:deskcolor="#d1d1d1"
     inkscape:document-units="mm"
     showgrid="true"
     inkscape:zoom="5.6050184"
     inkscape:cx="84.923896"
     inkscape:cy="50.936497"
     inkscape:window-width="1258"
     inkscape:window-height="1290"
     inkscape:window-x="-11"
     inkscape:window-y="-11"
     inkscape:window-maximized="1"
     inkscape:current-layer="layer1">
    <inkscape:grid
       type="xygrid"
       id="grid175" />
  </sodipodi:namedview>
  <defs
     id="defs2" />
  <g
     inkscape:label="Layer 1"
     inkscape:groupmode="layer"
     id="layer1">
    <path
       style="fill:#000000;stroke-width:0.264583"
       id="path781"
       d="m 2.6368355,4.5007884 c 0.4868686,-0.046206 0.9745584,-0.078287 1.4636886,-0.079397 0.057694,0.00185 0.2332199,0.00526 0.3020729,0.014616 0.017558,0.00238 0.068357,0.012091 0.050922,0.015245 -0.098883,0.017883 -0.1421493,-0.092278 -0.1319723,0.00589 0.1018436,0.5818608 0.118002,1.1768164 0.1441624,1.7660572 0.041232,1.0156034 0.071341,2.0316584 0.101341,3.0476534 0.03359,0.833183 0.057287,1.666722 0.088579,2.499979 0.02907,0.549068 0.070116,1.097308 0.085045,1.647029 0.00415,0.187035 0.00463,0.37412 0.00446,0.561191 -6.086e-4,0.707814 1.0004041,0.708656 1.0009994,8.47e-4 v 0 C 5.7462943,13.783426 5.7457397,13.586937 5.7413,13.390503 5.7260733,12.837374 5.6861289,12.285664 5.6559224,11.733237 5.6246693,10.902667 5.6011772,10.071807 5.567614,9.2413113 5.5374584,8.2203024 5.5072049,7.1992328 5.4657156,6.1786192 5.4476948,5.7761084 5.4277254,5.3737708 5.3953793,4.9720902 5.3781655,4.7583169 5.362013,4.5499078 5.3165602,4.3399799 5.2959835,4.2449493 5.2653675,4.152374 5.2397712,4.058571 5.1429856,3.8609812 5.1142272,3.7509267 4.9252584,3.6059596 4.682451,3.4196906 4.3846829,3.4268198 4.0972057,3.4203991 3.5426311,3.4227539 2.9881867,3.4548394 2.4373232,3.5198751 1.7437111,3.6609517 1.9432239,4.6418674 2.636836,4.5007908 Z" />
    <path
       style="fill:#000000;stroke-width:0.264583"
       id="path783"
       d="M 5.3226363,7.0657169 C 5.6404062,6.8729102 5.9310986,6.6400883 6.2228311,6.4108856 6.6638304,6.080544 7.1125672,5.7612118 7.5447564,5.4192275 7.8780549,5.14059 8.2103708,4.861697 8.5567688,4.5994147 8.6921611,4.4998769 8.8289629,4.4017059 8.9746105,4.3175745 8.8449088,4.3773465 8.7880739,4.4205741 8.6062419,4.3557658 8.5152123,4.3233212 8.4582705,4.2295825 8.3741172,4.1820718 c -0.011443,-0.00646 -0.00739,0.025723 -0.00672,0.038847 0.00287,0.056589 0.012875,0.1126138 0.017283,0.1691037 0.00692,0.088713 0.011128,0.1776179 0.016695,0.2664269 0.027686,0.9748139 0.059488,1.9494161 0.098486,2.9238657 0.031192,0.8724005 0.083766,1.7438073 0.1276842,2.6156079 0.034536,0.669889 0.069142,1.339769 0.1059924,2.009534 0.026149,0.432064 0.056818,0.863872 0.088516,1.295564 0.017452,0.221199 0.045179,0.441384 0.067697,0.662089 0.071917,0.704151 1.0677369,0.602445 0.9958197,-0.101706 v 0 C 9.8639687,13.850143 9.8376136,13.63936 9.8203595,13.427675 9.7890739,13.0021 9.758899,12.576403 9.7330227,12.150464 9.6962557,11.482239 9.6617326,10.813898 9.6272738,10.145549 9.5835109,9.2771951 9.5311549,8.4092324 9.5000571,7.5402812 9.4607178,6.5575534 9.4293845,5.5746549 9.4002689,4.5916005 9.3899634,4.4374077 9.3783509,4.1768757 9.347606,4.0179656 9.3301356,3.9276633 9.3267119,3.8288229 9.2775785,3.7510696 9.073617,3.4283049 8.9842516,3.3717068 8.6326217,3.3915289 8.5752158,3.3947647 8.5250167,3.432085 8.4712142,3.4523629 8.2910684,3.5576353 8.1196827,3.6768143 7.9524298,3.8014346 7.6003477,4.068137 7.2615125,4.350463 6.9233284,4.6344821 6.4923878,4.9760203 6.0433494,5.2928744 5.6043636,5.6238047 5.3522265,5.8219583 5.1016587,6.0236631 4.8297033,6.1945017 4.2136612,6.5430598 4.7065967,7.4142747 5.3226387,7.0657169 Z" />
    <path
       style="fill:#000000;stroke-width:0.264583"
       id="path785"
       d="M 9.4169806,6.9528798 C 9.6603451,6.7695693 9.8604722,6.5352612 10.070557,6.3160369 c 0.367351,-0.3477228 0.719495,-0.7093817 1.062696,-1.0808496 0.332739,-0.3598614 0.690981,-0.6948974 1.056859,-1.0205902 0.0278,-0.031449 0.202362,-0.1677422 0.138713,-0.1205487 -0.08007,0.028924 -0.158245,0.063782 -0.240219,0.086773 -0.02268,0.00636 -0.04711,9.79e-5 -0.07066,4.233e-4 -0.0012,1.67e-5 0.0024,3.704e-4 0.0036,5.027e-4 0.0099,9.525e-4 0.01988,0.00193 0.02984,0.00268 0.07133,0.00532 0.01035,-3.44e-4 0.06509,0.00501 0.188235,0.036657 0.371467,0.095831 0.557691,0.1419178 0.595727,0.1365649 1.208946,0.1618218 1.817284,0.188527 0.52116,0.016645 1.042506,0.027192 1.563803,0.038692 0.707642,0.01561 0.729719,-0.9851462 0.02208,-1.0007566 v 0 c -0.514089,-0.01134 -1.028224,-0.021791 -1.542185,-0.037982 -0.542631,-0.02359 -1.090101,-0.042875 -1.622282,-0.160605 -0.23542,-0.057238 -0.465959,-0.1390687 -0.7076,-0.1668484 -0.161356,-0.013695 -0.285825,-0.019307 -0.445341,0.078043 -0.08293,0.059995 -0.158098,0.1298289 -0.235505,0.1966034 -0.390052,0.3474418 -0.771678,0.7051026 -1.126433,1.088913 C 10.058934,4.9229864 9.7101341,5.2792357 9.3478367,5.6234586 9.1803838,5.7981966 9.0208295,5.9850919 8.8340035,6.1391693 8.2586168,6.551396 8.8415944,7.3651154 9.4169798,6.952889 Z" />
    <path
       style="fill:#000000;stroke-width:0.264583"
       id="path787"
       d="m 12.028498,4.0350897 c 0.101467,0.7142022 0.207634,1.4278173 0.310091,2.1419129 0.234568,1.7536422 0.513225,3.5009259 0.762683,5.2524854 0.190032,1.457862 0.373268,2.916837 0.516079,4.380169 0.05062,0.596717 0.104884,1.193155 0.149946,1.790337 0.01531,0.21629 0.0091,0.115914 0.01936,0.301084 0.03949,0.706711 1.038928,0.650869 0.999442,-0.05584 v 0 c -0.01134,-0.20158 -0.0046,-0.0947 -0.02064,-0.320589 C 14.719809,16.920156 14.66496,16.316408 14.613616,15.712392 14.469258,14.234406 14.284482,12.760778 14.092271,11.288341 13.842736,9.5364439 13.564092,7.7888109 13.329442,6.0348328 13.229274,5.3367302 13.126839,4.6389266 13.025074,3.9410751 12.958596,3.2363902 11.96202,3.3304046 12.028498,4.0350897 Z" />
    <path
       style="fill:#000000;stroke-width:0.264583"
       id="path789"
       d="m 12.252125,19.138816 c 0.421746,-0.08826 0.854054,-0.116728 1.282854,-0.150319 0.724578,-0.05942 1.450362,-0.102578 2.174791,-0.163776 0.380959,-0.0361 0.762683,-0.06285 1.144293,-0.09084 0.705917,-0.05178 0.632688,-1.050099 -0.07323,-0.998318 v 0 c -0.385322,0.02826 -0.770756,0.05532 -1.155424,0.09172 -0.722446,0.06118 -1.446291,0.103812 -2.168881,0.163294 -0.533479,0.04208 -1.08949,0.06743 -1.602213,0.229682 -0.649519,0.281294 -0.251709,1.199852 0.397809,0.918558 z" />
  </g>
</svg>
