<?xml version="1.0" encoding="UTF-8" standalone="no"?>
<!-- Created with Inkscape (http://www.inkscape.org/) -->

<svg
   width="80"
   height="80"
   viewBox="0 0 21.166666 21.166666"
   version="1.1"
   id="svg5"
   inkscape:version="1.2.2 (732a01da63, 2022-12-09)"
   sodipodi:docname="21.svg"
   xmlns:inkscape="http://www.inkscape.org/namespaces/inkscape"
   xmlns:sodipodi="http://sodipodi.sourceforge.net/DTD/sodipodi-0.dtd"
   xmlns="http://www.w3.org/2000/svg"
   xmlns:svg="http://www.w3.org/2000/svg">
  <sodipodi:namedview
     id="namedview7"
     pagecolor="#ffffff"
     bordercolor="#000000"
     borderopacity="0.25"
     inkscape:showpageshadow="2"
     inkscape:pageopacity="0.0"
     inkscape:pagecheckerboard="0"
     inkscape:deskcolor="#d1d1d1"
     inkscape:document-units="mm"
     showgrid="true"
     inkscape:zoom="5.6050184"
     inkscape:cx="84.923896"
     inkscape:cy="50.936497"
     inkscape:window-width="1258"
     inkscape:window-height="1290"
     inkscape:window-x="-11"
     inkscape:window-y="-11"
     inkscape:window-maximized="1"
     inkscape:current-layer="layer1">
    <inkscape:grid
       type="xygrid"
       id="grid175" />
  </sodipodi:namedview>
  <defs
     id="defs2" />
  <g
     inkscape:label="Layer 1"
     inkscape:groupmode="layer"
     id="layer1">
    <path
       style="fill:#000000;stroke-width:0.264583"
       id="path803"
       d="m 3.22581,3.1263785 c -0.00663,0.6809338 0.042588,1.3613696 0.077066,2.0411419 0.092764,1.3509971 0.1917692,2.7015575 0.2658192,4.05375 0.023656,0.4381698 0.044709,0.8764716 0.065367,1.3147906 0.033325,0.707029 1.0332151,0.6599 0.99989,-0.04713 v 0 C 4.613171,10.048067 4.5919942,9.6072191 4.5681958,9.1665043 4.4941378,7.8156704 4.3957136,6.4664288 4.3025909,5.1168141 4.2700757,4.4757567 4.2260017,3.8344104 4.2246343,3.1923373 4.2712743,2.4860616 3.2724497,2.420103 3.22581,3.1263785 Z" />
    <path
       style="fill:#000000;stroke-width:0.264583"
       id="path811"
       d="m 4.2258736,11.199114 c 0.2905961,0.07384 0.5952091,0.05012 0.8914323,0.03691 0.2750262,-0.01227 0.438099,-0.02368 0.7177638,-0.041 0.7997544,-0.0647 1.6011617,-0.103013 2.4025166,-0.141055 0.6958672,-0.02998 1.3900216,-0.08699 2.0860527,-0.113494 0.599067,-0.01952 1.198532,-0.02076 1.797856,-0.02253 0.562634,0.0036 1.125292,0.01464 1.68793,0.0083 0.435732,-0.01659 0.870842,-0.03802 1.306965,-0.02967 0.455648,0.01317 0.911563,0.01181 1.367355,0.01197 0.210046,-5.03e-4 0.420082,0.0016 0.630113,0.0037 0.707779,0.007 0.717713,-0.9939259 0.0099,-1.0009501 v 0 c -0.21322,-0.00212 -0.426445,-0.00425 -0.63968,-0.00375 -0.449795,-1.641e-4 -0.899712,0.00127 -1.349364,-0.011803 -0.446104,-0.00787 -0.891256,0.010798 -1.336916,0.029571 -0.559754,0.00665 -1.119542,-0.00531 -1.679295,-0.00835 -0.611103,0.00183 -1.222349,0.00315 -1.833184,0.023254 -0.6990861,0.026892 -1.396336,0.083195 -2.0952366,0.1138871 -0.8061819,0.03828 -1.6124239,0.07681 -2.4169988,0.141848 -0.2917616,0.01811 -0.409942,0.02671 -0.6938415,0.0398 -0.171047,0.0079 -0.3621805,0.02905 -0.5346973,0.0093 -0.017759,-0.002 -0.035003,-0.0073 -0.052504,-0.01091 -0.6823263,-0.188232 -0.9485267,0.776723 -0.2662007,0.964956 z" />
    <path
       style="fill:#000000;stroke-width:0.264583"
       id="path813"
       d="m 16.629038,10.319806 c -0.02163,0.517237 -0.0023,1.034493 0.01399,1.551564 0.01459,0.570552 0.03581,1.140903 0.06305,1.710983 0.02013,0.359419 0.01937,0.719291 0.01669,1.0791 0.0037,0.259105 0.0017,0.5187 0.02502,0.776959 0.02107,0.315167 0.02144,0.631609 0.03549,0.947325 0.01257,0.240258 0.02347,0.480578 0.02817,0.721126 0.0029,0.220744 0.0029,0.441515 0.0029,0.662275 -3e-5,0.122167 -1.72e-4,0.244335 -2.58e-4,0.366503 -3.1e-5,0.0473 -4.5e-5,0.09461 -5.7e-5,0.141911 -1.69e-4,0.707814 1.000831,0.708054 1.001,2.4e-4 v 0 c 1.2e-5,-0.04715 2.6e-5,-0.0943 5.7e-5,-0.141446 8.6e-5,-0.122438 2.29e-4,-0.244876 2.58e-4,-0.367314 -2.4e-5,-0.227304 6.1e-5,-0.45462 -0.0031,-0.681907 -0.005,-0.248835 -0.01585,-0.497452 -0.02897,-0.745987 -0.01485,-0.33235 -0.01422,-0.665468 -0.03897,-0.997175 -0.0229,-0.224055 -0.01389,-0.450263 -0.02059,-0.67508 0.0028,-0.378219 0.0031,-0.756506 -0.0178,-1.134317 -0.02699,-0.564664 -0.04797,-1.129597 -0.06241,-1.694728 -0.01568,-0.497383 -0.03512,-0.994945 -0.01387,-1.492492 0.01947,-0.7075461 -0.981147,-0.7350855 -1.000621,-0.02754 z" />
    <path
       style="fill:#000000;stroke-width:0.264583"
       id="path817"
       d="m 10.548369,18.716429 c 0.38795,-0.401982 0.741676,-0.834815 1.106645,-1.257252 0.42517,-0.483761 0.831496,-0.983535 1.245723,-1.476591 0.394161,-0.44633 0.806259,-0.876079 1.198084,-1.324525 0.273223,-0.313651 0.558215,-0.616741 0.840507,-0.922181 0.247944,-0.266344 0.47834,-0.548199 0.709153,-0.829305 0.186639,-0.240367 0.402054,-0.455049 0.610199,-0.676211 0.178561,-0.180289 0.31888,-0.392111 0.477154,-0.589171 0.09394,-0.119347 0.197708,-0.23026 0.29901,-0.343231 0.01084,-0.01205 0.02168,-0.0241 0.03252,-0.03614 0.473439,-0.526171 -0.270679,-1.195715 -0.744118,-0.669545 v 0 c -0.0114,0.01267 -0.0228,0.02534 -0.0342,0.03801 -0.113494,0.127034 -0.22989,0.251636 -0.335078,0.385854 -0.140807,0.176766 -0.266895,0.365492 -0.424436,0.528404 -0.22339,0.237659 -0.453935,0.468977 -0.654695,0.72683 -0.218402,0.266015 -0.436078,0.533029 -0.670651,0.785115 -0.288626,0.312327 -0.579979,0.622279 -0.859266,0.94306 -0.395906,0.453399 -0.813663,0.886706 -1.210617,1.339154 -0.411274,0.489563 -0.814697,0.985804 -1.236825,1.466147 -0.350641,0.406041 -0.690584,0.821952 -1.0623432,1.209224 -0.4966396,0.504331 0.2165922,1.206685 0.7132322,0.702354 z" />
    <path
       style="fill:#000000;stroke-width:0.264583"
       id="path819"
       d="M 2.489522,3.3421918 C 3.0621329,3.285632 3.6330046,3.2123663 4.2045966,3.1463527 4.5147663,3.1107597 4.8251739,3.0774354 5.1359522,3.0476425 5.840532,2.9800573 5.7449521,1.983631 5.0403722,2.0512161 v 0 C 4.7231675,2.0816606 4.4063295,2.1156051 4.0897455,2.1519634 3.511809,2.2187195 2.9345977,2.2924545 2.3556762,2.3501805 1.6542183,2.4448238 1.7880641,3.4368351 2.489522,3.3421918 Z" />
    <path
       style="fill:#000000;stroke-width:0.264583"
       id="path821"
       d="m 8.8025207,19.271017 c 0.279128,-0.04822 0.5651915,-0.04447 0.847535,-0.04605 0.5404613,0.01427 1.0800503,-0.01591 1.6195683,-0.04192 0.259853,-0.01149 0.519841,-0.02001 0.779902,-0.02492 0.04482,-6.61e-4 0.02489,-4.23e-4 0.05979,-7.93e-4 0.707773,-0.0075 0.697125,-1.008473 -0.01065,-1.000944 v 0 c -0.04066,4.5e-4 -0.01797,1.55e-4 -0.06807,9.26e-4 -0.269833,0.0051 -0.53959,0.01393 -0.809206,0.0259 -0.525498,0.02537 -1.051035,0.05515 -1.5774648,0.04078 -0.3558368,0.0024 -0.7161908,8.2e-4 -1.0664888,0.07167 -0.6896867,0.159162 -0.4645975,1.134527 0.2250892,0.975365 z" />
    <path
       style="fill:#000000;stroke-width:0.264583"
       id="path823"
       d="m 16.161178,19.239999 c 0.181316,0.01289 0.362711,0.02235 0.54445,0.02823 0.451303,0.01246 0.902883,-0.0047 1.353443,-0.02994 0.314958,-0.01939 0.629198,-0.05073 0.941783,-0.09385 0.01546,-0.0022 0.03093,-0.0044 0.0464,-0.0066 0.700822,-0.09924 0.560471,-1.090355 -0.140351,-0.991112 v 0 c -0.0144,0.002 -0.02881,0.0041 -0.04321,0.0061 -0.285746,0.03965 -0.573085,0.06802 -0.861003,0.086 -0.421059,0.02395 -0.84312,0.03998 -1.264894,0.02887 -0.188102,-0.006 -0.375639,-0.01775 -0.563443,-0.02866 -0.707752,-0.0093 -0.720923,0.9916 -0.01317,1.000913 z" />
  </g>
</svg>
