<?xml version="1.0" encoding="UTF-8" standalone="no"?>
<!-- Created with Inkscape (http://www.inkscape.org/) -->

<svg
   width="80"
   height="80"
   viewBox="0 0 21.166666 21.166666"
   version="1.1"
   id="svg5"
   inkscape:version="1.2.2 (732a01da63, 2022-12-09)"
   sodipodi:docname="22.svg"
   xmlns:inkscape="http://www.inkscape.org/namespaces/inkscape"
   xmlns:sodipodi="http://sodipodi.sourceforge.net/DTD/sodipodi-0.dtd"
   xmlns="http://www.w3.org/2000/svg"
   xmlns:svg="http://www.w3.org/2000/svg">
  <sodipodi:namedview
     id="namedview7"
     pagecolor="#ffffff"
     bordercolor="#000000"
     borderopacity="0.25"
     inkscape:showpageshadow="2"
     inkscape:pageopacity="0.0"
     inkscape:pagecheckerboard="0"
     inkscape:deskcolor="#d1d1d1"
     inkscape:document-units="mm"
     showgrid="true"
     inkscape:zoom="5.6050184"
     inkscape:cx="84.923896"
     inkscape:cy="51.114908"
     inkscape:window-width="1258"
     inkscape:window-height="1290"
     inkscape:window-x="-11"
     inkscape:window-y="-11"
     inkscape:window-maximized="1"
     inkscape:current-layer="layer1">
    <inkscape:grid
       type="xygrid"
       id="grid175" />
  </sodipodi:namedview>
  <defs
     id="defs2" />
  <g
     inkscape:label="Layer 1"
     inkscape:groupmode="layer"
     id="layer1">
    <path
       style="fill:#000000;stroke-width:0.264583"
       id="path839"
       d="m 3.5748727,4.1476837 c 0.034847,0.4972296 0.040658,0.9956768 0.044082,1.4939084 0.00143,0.7354099 -0.02246,1.4705655 -0.033215,2.2058677 -0.018135,0.6854243 -0.011282,1.3710849 -0.01419,2.0566491 -0.0085,0.6100961 -0.030549,1.2197921 -0.056758,1.8293391 -0.020971,0.476216 -0.022794,0.953603 -0.067332,1.428475 -0.065306,0.704795 0.9314238,0.797152 0.9967301,0.09236 v 0 c 0.045066,-0.491404 0.050826,-0.985009 0.070678,-1.477837 0.026757,-0.622458 0.049207,-1.245076 0.057673,-1.8680976 0.00288,-0.6821003 -0.00396,-1.3642959 0.014092,-2.0462568 C 4.5974777,7.11959 4.6216945,6.3772396 4.6199303,5.634628 4.6160726,5.086701 4.6120695,4.5377465 4.563624,3.9915684 4.4532338,3.2924157 3.4644827,3.448531 3.5748727,4.1476837 Z" />
    <path
       style="fill:#000000;stroke-width:0.264583"
       id="path843"
       d="M 4.5706537,13.998148 C 5.1468834,13.599425 5.7247906,13.203211 6.3022749,12.806269 7.4177265,12.030246 8.5539441,11.284882 9.6832477,10.529362 10.268399,10.11586 10.881198,9.7442484 11.480067,9.3517028 11.733624,9.1855019 12.146603,8.8995418 12.394692,8.7290009 13.14815,8.2178701 13.894456,7.6973297 14.62757,7.1574641 c 0.529442,-0.3901395 1.049691,-0.7924086 1.580946,-1.180088 0.247731,-0.1765763 0.487056,-0.3645162 0.716254,-0.5645055 0.1004,-0.090612 0.05258,-0.046482 0.143666,-0.132158 0.514962,-0.485607 -0.17179,-1.2138737 -0.686752,-0.7282664 v 0 c -0.0714,0.067554 -0.03294,0.031858 -0.115697,0.1067628 C 16.059236,4.8403195 15.842173,5.0091472 15.618434,5.1687938 15.086026,5.5573464 14.56447,5.9602777 14.033991,6.3514456 13.309631,6.884912 12.572094,7.3990652 11.827616,7.9041219 11.611603,8.0526352 11.16784,8.3596236 10.943405,8.5067208 10.337878,8.9035884 9.7184185,9.2795197 9.1266371,9.6973854 7.9938561,10.455249 6.8541423,11.202929 5.7352519,11.981354 5.1269076,12.399516 4.5142004,12.81199 3.9144276,13.242259 3.3799332,13.706281 4.0361594,14.46217 4.5706537,13.998148 Z" />
    <path
       style="fill:#000000;stroke-width:0.264583"
       id="path845"
       d="m 16.28458,5.2323997 c 0.0117,0.062796 0.0232,0.1170903 0.02866,0.1815113 0.03715,0.4379738 0.04222,0.8795247 0.05122,1.3186261 0.0065,1.0249445 -0.0023,2.0498221 0.01578,3.0746888 0.0225,0.8070451 0.03519,1.6143521 0.07325,2.4208581 0.02721,0.461307 0.04153,0.923104 0.04597,1.385137 -0.0011,0.171437 0.0046,0.342799 0.0093,0.514142 0.01936,0.707549 1.01998,0.680179 1.000626,-0.02737 v 0 c -0.0045,-0.165452 -0.01019,-0.330919 -0.009,-0.496465 -0.0046,-0.474565 -0.01917,-0.948898 -0.04704,-1.422721 -0.03774,-0.796646 -0.04981,-1.594109 -0.07229,-2.3912854 -0.01822,-1.025852 -0.0087,-2.0517226 -0.01584,-3.0776513 -0.01,-0.4784519 -0.01479,-0.960133 -0.06071,-1.4369823 C 17.29653,5.1917113 17.282009,5.1208249 17.267,5.0404365 17.131262,4.34576 16.148841,4.5377229 16.28458,5.2323997 Z" />
    <path
       style="fill:#000000;stroke-width:0.264583"
       id="path847"
       d="M 2.7540251,4.5466124 C 3.3446794,4.5194645 3.9338308,4.4584077 4.5211534,4.3909106 4.8146871,4.354495 5.1076071,4.3131541 5.3995891,4.2658911 6.0982923,4.1526901 5.9382022,3.1645748 5.239499,3.2777755 v 0 C 4.9626993,3.3226652 4.6849805,3.3617471 4.4067243,3.3964726 3.8642668,3.4589754 3.3204142,3.5130001 2.7753188,3.5458389 2.067665,3.5307815 2.0463714,4.5315555 2.7540251,4.5466124 Z" />
    <path
       style="fill:#000000;stroke-width:0.264583"
       id="path849"
       d="m 15.96683,15.152136 c 0.160405,-0.01972 0.322796,-0.02219 0.484204,-0.02956 0.324279,-0.0049 0.648547,0.0014 0.972858,-0.0035 0.341814,0.0013 0.681815,-0.02565 1.020442,-0.06978 0.107297,-0.01647 0.215455,-0.02539 0.323585,-0.03396 0.705544,-0.05664 0.625447,-1.054427 -0.0801,-0.99779 v 0 c -0.124781,0.01013 -0.249583,0.02074 -0.373479,0.03922 -0.300623,0.03959 -0.602372,0.06318 -0.905911,0.06143 -0.334433,0.0053 -0.668851,-0.0028 -1.003237,0.0044 -0.206373,0.0095 -0.414153,0.0122 -0.61849,0.04485 -0.69626,0.127368 -0.516135,1.112028 0.180125,0.98466 z" />
    <path
       style="fill:#000000;stroke-width:0.264583"
       id="path851"
       d="m 10.002986,4.2548833 c 0.07063,1.1092487 0.119967,2.2195258 0.15834,3.3303006 0.03411,1.2190492 0.02936,2.4387041 0.04599,3.6580501 0.01783,0.812913 0.01145,1.626009 0.0085,2.439032 -8.46e-4,0.599097 -0.0077,1.198149 -0.0073,1.797247 -0.0057,0.631184 0.01292,1.262137 0.01869,1.893216 0.0014,0.231757 1.74e-4,0.463516 -0.0021,0.695263 -0.0068,0.707781 0.994126,0.717437 1.000954,0.0097 v 0 c 0.0023,-0.238048 0.0036,-0.476109 0.0021,-0.714167 -0.0059,-0.628229 -0.02427,-1.256331 -0.01865,-1.884664 -4.23e-4,-0.597674 0.0065,-1.195302 0.0073,-1.792975 0.0029,-0.818769 0.0093,-1.637611 -0.0086,-2.45627 C 11.19146,10.0033 11.19638,8.7766695 11.16171,7.550657 11.12273,6.4225384 11.07272,5.29494 11.000244,4.1684572 10.939131,3.4632865 9.9418686,3.549714 10.002982,4.2548847 Z" />
    <path
       style="fill:#000000;stroke-width:0.264583"
       id="path853"
       d="m 9.3517968,18.900094 c 0.5488762,0.03673 1.0986452,0.01354 1.6476002,-0.0063 0.36955,-0.01284 0.739069,-0.02723 1.108805,-0.03342 0.152341,-0.0057 0.302443,-0.0316 0.452212,-0.05778 0.696999,-0.123258 0.522685,-1.108964 -0.174314,-0.985706 v 0 c -0.09772,0.01754 -0.19552,0.0358 -0.294748,0.04263 -0.376165,0.0064 -0.752116,0.02076 -1.128091,0.03393 -0.506547,0.0183 -1.0136723,0.04081 -1.5202878,0.0098 -0.7048717,-0.06447 -0.7960479,0.932367 -0.091176,0.996838 z" />
    <path
       style="fill:#000000;stroke-width:0.264583"
       id="path855"
       d="m 9.0487999,4.5923956 c 0.1750369,-0.022812 0.3524123,-0.017867 0.5283425,-0.011202 0.4088386,0.026196 0.8179466,-0.00201 1.2258696,-0.029199 0.288227,-0.020161 0.576846,-0.033641 0.865673,-0.040824 0.152669,0.00376 0.303635,-0.012052 0.454324,-0.034484 0.05511,-0.00798 0.0289,-0.00423 0.07862,-0.011279 0.700792,-0.099451 0.560147,-1.0905212 -0.140646,-0.9910702 v 0 c -0.05393,0.00766 -0.02542,0.00357 -0.08552,0.012282 -0.11031,0.01646 -0.219675,0.029165 -0.331791,0.023863 -0.302694,0.0076 -0.605176,0.021606 -0.907244,0.042728 -0.373752,0.024932 -0.7485786,0.052547 -1.1231862,0.027634 C 9.3665719,3.5722975 9.1179064,3.5681806 8.8732967,3.6068997 8.176447,3.7309991 8.3519498,4.7164939 9.0487999,4.5923956 Z" />
  </g>
</svg>
