<?xml version="1.0" encoding="UTF-8" standalone="no"?>
<svg
   version="1.1"
   width="46.400002"
   height="42"
   id="svg368"
   sodipodi:docname="AW.svg"
   inkscape:version="1.1 (c68e22c387, 2021-05-23)"
   inkscape:export-filename="G:\Occult Library\Pez_ESDSol_w.png"
   inkscape:export-xdpi="800.01001"
   inkscape:export-ydpi="800.01001"
   xmlns:inkscape="http://www.inkscape.org/namespaces/inkscape"
   xmlns:sodipodi="http://sodipodi.sourceforge.net/DTD/sodipodi-0.dtd"
   xmlns="http://www.w3.org/2000/svg"
   xmlns:svg="http://www.w3.org/2000/svg">
  <defs
     id="defs372">
    <filter
       id="mask-powermask-path-effect1604_inverse"
       inkscape:label="filtermask-powermask-path-effect1604"
       style="color-interpolation-filters:sRGB"
       height="100"
       width="100"
       x="-50"
       y="-50">
      <feColorMatrix
         id="mask-powermask-path-effect1604_primitive1"
         values="1"
         type="saturate"
         result="fbSourceGraphic" />
      <feColorMatrix
         id="mask-powermask-path-effect1604_primitive2"
         values="-1 0 0 0 1 0 -1 0 0 1 0 0 -1 0 1 0 0 0 1 0 "
         in="fbSourceGraphic" />
    </filter>
  </defs>
  <sodipodi:namedview
     id="namedview370"
     pagecolor="#ffffff"
     bordercolor="#666666"
     borderopacity="1.0"
     inkscape:pageshadow="2"
     inkscape:pageopacity="0.0"
     inkscape:pagecheckerboard="0"
     showgrid="false"
     inkscape:zoom="4.12"
     inkscape:cx="-30.461165"
     inkscape:cy="-29.004854"
     inkscape:window-width="2560"
     inkscape:window-height="1009"
     inkscape:window-x="-8"
     inkscape:window-y="-8"
     inkscape:window-maximized="1"
     inkscape:current-layer="svg368" />
  <rect
     style="fill:none;fill-opacity:1;stroke:none;stroke-width:3.77953;stroke-linecap:round;stroke-linejoin:round;paint-order:markers fill stroke"
     id="rect14056-2-7-5-6-6-0"
     width="46.400002"
     height="42"
     x="0"
     y="0" />
  <circle
     style="fill:#0191b4;fill-opacity:1;stroke:none;stroke-width:3.77953;stroke-linecap:round;stroke-linejoin:round;paint-order:markers fill stroke"
     id="path8544-1"
     cx="23.684906"
     cy="21.872467"
     r="15.291263" />
  <path
     id="path1448-12-4"
     style="fill:#a9b5bd;fill-opacity:1;stroke-width:1.3337;stroke-linecap:round;stroke-linejoin:round;paint-order:markers fill stroke"
     d="m 18.376342,16.50916 a 6.7073807,6.7225213 0 0 0 -1.32328,3.99811 6.7073807,6.7225213 0 0 0 6.70738,6.72255 6.7073807,6.7225213 0 0 0 6.7074,-6.72255 6.7073807,6.7225213 0 0 0 -1.2392,-3.89128 5.4658341,5.0873134 0 0 1 0.0276,0.49968 5.4658341,5.0873134 0 0 1 -5.46613,5.08705 5.4658341,5.0873134 0 0 1 -5.46544,-5.08705 5.4658341,5.0873134 0 0 1 0.0517,-0.60651 z" />
</svg>
