<?xml version="1.0" encoding="UTF-8" standalone="no"?>
<svg
   version="1.1"
   width="46.400002"
   height="42"
   id="svg368"
   sodipodi:docname="SS.svg"
   inkscape:version="1.1 (c68e22c387, 2021-05-23)"
   inkscape:export-filename="G:\Occult Library\Pez_ESDSol_w.png"
   inkscape:export-xdpi="800.01001"
   inkscape:export-ydpi="800.01001"
   xmlns:inkscape="http://www.inkscape.org/namespaces/inkscape"
   xmlns:sodipodi="http://sodipodi.sourceforge.net/DTD/sodipodi-0.dtd"
   xmlns="http://www.w3.org/2000/svg"
   xmlns:svg="http://www.w3.org/2000/svg">
  <defs
     id="defs372">
    <filter
       id="mask-powermask-path-effect1604_inverse"
       inkscape:label="filtermask-powermask-path-effect1604"
       style="color-interpolation-filters:sRGB"
       height="100"
       width="100"
       x="-50"
       y="-50">
      <feColorMatrix
         id="mask-powermask-path-effect1604_primitive1"
         values="1"
         type="saturate"
         result="fbSourceGraphic" />
      <feColorMatrix
         id="mask-powermask-path-effect1604_primitive2"
         values="-1 0 0 0 1 0 -1 0 0 1 0 0 -1 0 1 0 0 0 1 0 "
         in="fbSourceGraphic" />
    </filter>
  </defs>
  <sodipodi:namedview
     id="namedview370"
     pagecolor="#ffffff"
     bordercolor="#666666"
     borderopacity="1.0"
     inkscape:pageshadow="2"
     inkscape:pageopacity="0.0"
     inkscape:pagecheckerboard="0"
     showgrid="false"
     inkscape:zoom="2.9132799"
     inkscape:cx="-68.479516"
     inkscape:cy="47.884173"
     inkscape:window-width="2560"
     inkscape:window-height="1009"
     inkscape:window-x="-8"
     inkscape:window-y="-8"
     inkscape:window-maximized="1"
     inkscape:current-layer="svg368" />
  <rect
     style="fill:none;fill-opacity:1;stroke:none;stroke-width:3.77953;stroke-linecap:round;stroke-linejoin:round;paint-order:markers fill stroke"
     id="rect14056-2-7-5-6-7"
     width="46.400002"
     height="42"
     x="0"
     y="0" />
  <path
     d="m 23.036234,3.0737798 c -1.32331,0.183795 -2.78579,0.837578 -4.06973,1.822187 -0.47261,0.359713 -0.78243,0.63803 -1.31281,1.168407 -0.53826,0.538255 -0.9006,0.958355 -1.34957,1.551748 -2.12413,2.8199242 -3.74679,6.7898792 -4.78128,11.6971792 -1.04237,4.936184 -0.55926,8.872 1.4546,11.875729 1.69091,2.52585 4.58435,4.34805 8.16834,5.14623 1.08963,0.24419 1.93509,0.34396 2.48122,0.2967 1.16578,-0.10503 2.44971,-0.39384 3.57085,-0.80869 1.77756,-0.65904 3.20327,-1.54913 4.42681,-2.76479 0.61703,-0.6144 0.92423,-0.97936 1.36796,-1.62789 2.08475,-3.043113 2.75691,-7.220486 2.00073,-12.445492 -0.2468,-1.709283 -1.16577,-4.718256 -2.14514,-7.02356 -1.43622,-3.3896862 -3.28466,-5.9785592 -5.29064,-7.4121552 -0.94261,-0.677409 -1.96134,-1.13952 -2.95646,-1.344321 -0.58815,-0.123405 -1.23405,-0.175915 -1.56488,-0.131282 z"
     id="path11594"
     style="fill:#56458d;fill-opacity:1;stroke:none;stroke-width:0.00262563" />
</svg>
