<?xml version="1.0" encoding="UTF-8" standalone="no"?>
<svg
   version="1.1"
   width="46.400002"
   height="42"
   id="svg368"
   sodipodi:docname="tattva.svg"
   inkscape:version="1.1 (c68e22c387, 2021-05-23)"
   inkscape:export-filename="G:\Occult Library\Pez_ESDSol_w.png"
   inkscape:export-xdpi="800.01001"
   inkscape:export-ydpi="800.01001"
   xmlns:inkscape="http://www.inkscape.org/namespaces/inkscape"
   xmlns:sodipodi="http://sodipodi.sourceforge.net/DTD/sodipodi-0.dtd"
   xmlns="http://www.w3.org/2000/svg"
   xmlns:svg="http://www.w3.org/2000/svg">
  <defs
     id="defs372">
    <filter
       id="mask-powermask-path-effect1604_inverse"
       inkscape:label="filtermask-powermask-path-effect1604"
       style="color-interpolation-filters:sRGB"
       height="100"
       width="100"
       x="-50"
       y="-50">
      <feColorMatrix
         id="mask-powermask-path-effect1604_primitive1"
         values="1"
         type="saturate"
         result="fbSourceGraphic" />
      <feColorMatrix
         id="mask-powermask-path-effect1604_primitive2"
         values="-1 0 0 0 1 0 -1 0 0 1 0 0 -1 0 1 0 0 0 1 0 "
         in="fbSourceGraphic" />
    </filter>
  </defs>
  <sodipodi:namedview
     id="namedview370"
     pagecolor="#ffffff"
     bordercolor="#666666"
     borderopacity="1.0"
     inkscape:pageshadow="2"
     inkscape:pageopacity="0.0"
     inkscape:pagecheckerboard="0"
     showgrid="false"
     inkscape:zoom="2.06"
     inkscape:cx="-105.58252"
     inkscape:cy="-75"
     inkscape:window-width="2560"
     inkscape:window-height="1009"
     inkscape:window-x="-8"
     inkscape:window-y="-8"
     inkscape:window-maximized="1"
     inkscape:current-layer="svg368" />
  <rect
     style="fill:#cccccc;fill-opacity:1;stroke:none;stroke-width:4.08866;stroke-linecap:round;stroke-linejoin:round;paint-order:markers fill stroke"
     id="rect14056-3"
     width="251.96872"
     height="226.99886"
     x="-195.12534"
     y="-176.58139" />
  <rect
     style="opacity:1;fill:#ffffff;fill-opacity:1;stroke:none;stroke-width:3.77953;stroke-linecap:round;stroke-linejoin:round;paint-order:markers fill stroke"
     id="rect14056"
     width="232"
     height="210"
     x="-185.59999"
     y="-168" />
  <rect
     style="fill:#000000;fill-opacity:1;stroke:none;stroke-width:3.77953;stroke-linecap:round;stroke-linejoin:round;paint-order:markers fill stroke"
     id="rect14056-2"
     width="46.400002"
     height="42"
     x="-185.59999"
     y="-168"
     inkscape:export-filename="G:\tattva\0.svg"
     inkscape:export-xdpi="800.01001"
     inkscape:export-ydpi="800.01001" />
  <rect
     style="fill:#ffffff;fill-opacity:1;stroke:none;stroke-width:3.77953;stroke-linecap:round;stroke-linejoin:round;paint-order:markers fill stroke"
     id="rect14056-2-7"
     width="46.400002"
     height="42"
     x="-139.19998"
     y="-168" />
  <rect
     style="fill:#000000;fill-opacity:1;stroke:none;stroke-width:3.77953;stroke-linecap:round;stroke-linejoin:round;paint-order:markers fill stroke"
     id="rect14056-2-7-5"
     width="46.400002"
     height="42"
     x="-92.799988"
     y="-168" />
  <rect
     style="fill:#ffffff;fill-opacity:1;stroke:none;stroke-width:3.77953;stroke-linecap:round;stroke-linejoin:round;paint-order:markers fill stroke"
     id="rect14056-2-7-5-6"
     width="46.400002"
     height="42"
     x="-46.399994"
     y="-168" />
  <rect
     style="fill:#000000;fill-opacity:1;stroke:none;stroke-width:3.77953;stroke-linecap:round;stroke-linejoin:round;paint-order:markers fill stroke"
     id="rect14056-2-9"
     width="46.400002"
     height="42"
     x="-139.2"
     y="-126" />
  <rect
     style="fill:#ffffff;fill-opacity:1;stroke:none;stroke-width:3.77953;stroke-linecap:round;stroke-linejoin:round;paint-order:markers fill stroke"
     id="rect14056-2-7-6"
     width="46.400002"
     height="42"
     x="-92.799995"
     y="-126" />
  <rect
     style="fill:#000000;fill-opacity:1;stroke:none;stroke-width:3.77953;stroke-linecap:round;stroke-linejoin:round;paint-order:markers fill stroke"
     id="rect14056-2-7-5-3"
     width="46.400002"
     height="42"
     x="-46.399994"
     y="-126" />
  <rect
     style="fill:#ffffff;fill-opacity:1;stroke:none;stroke-width:3.77953;stroke-linecap:round;stroke-linejoin:round;paint-order:markers fill stroke"
     id="rect14056-2-7-5-6-3"
     width="46.400002"
     height="42"
     x="0"
     y="-126" />
  <rect
     style="fill:#ffffff;fill-opacity:1;stroke:none;stroke-width:3.77953;stroke-linecap:round;stroke-linejoin:round;paint-order:markers fill stroke"
     id="rect14056-2-7-5-6-3-0"
     width="46.400002"
     height="42"
     x="-185.59999"
     y="-126" />
  <rect
     style="fill:#000000;fill-opacity:1;stroke:none;stroke-width:3.77953;stroke-linecap:round;stroke-linejoin:round;paint-order:markers fill stroke"
     id="rect14056-2-7-5-6-7"
     width="46.400002"
     height="42"
     x="0"
     y="-168" />
  <rect
     style="fill:#000000;fill-opacity:1;stroke:none;stroke-width:3.77953;stroke-linecap:round;stroke-linejoin:round;paint-order:markers fill stroke"
     id="rect14056-2-8"
     width="46.400002"
     height="42"
     x="-185.60001"
     y="-84" />
  <rect
     style="fill:#ffffff;fill-opacity:1;stroke:none;stroke-width:3.77953;stroke-linecap:round;stroke-linejoin:round;paint-order:markers fill stroke"
     id="rect14056-2-7-66"
     width="46.400002"
     height="42"
     x="-139.2"
     y="-84" />
  <rect
     style="fill:#000000;fill-opacity:1;stroke:none;stroke-width:3.77953;stroke-linecap:round;stroke-linejoin:round;paint-order:markers fill stroke"
     id="rect14056-2-7-5-9"
     width="46.400002"
     height="42"
     x="-92.799995"
     y="-84" />
  <rect
     style="fill:#ffffff;fill-opacity:1;stroke:none;stroke-width:3.77953;stroke-linecap:round;stroke-linejoin:round;paint-order:markers fill stroke"
     id="rect14056-2-7-5-6-6"
     width="46.400002"
     height="42"
     x="-46.400009"
     y="-84" />
  <rect
     style="fill:#000000;fill-opacity:1;stroke:none;stroke-width:3.77953;stroke-linecap:round;stroke-linejoin:round;paint-order:markers fill stroke"
     id="rect14056-2-9-8"
     width="46.400002"
     height="42"
     x="-139.20001"
     y="-42" />
  <rect
     style="fill:#ffffff;fill-opacity:1;stroke:none;stroke-width:3.77953;stroke-linecap:round;stroke-linejoin:round;paint-order:markers fill stroke"
     id="rect14056-2-7-6-9"
     width="46.400002"
     height="42"
     x="-92.800003"
     y="-42" />
  <rect
     style="fill:#000000;fill-opacity:1;stroke:none;stroke-width:3.77953;stroke-linecap:round;stroke-linejoin:round;paint-order:markers fill stroke"
     id="rect14056-2-7-5-3-8"
     width="46.400002"
     height="42"
     x="-46.400009"
     y="-42" />
  <rect
     style="fill:#ffffff;fill-opacity:1;stroke:none;stroke-width:3.77953;stroke-linecap:round;stroke-linejoin:round;paint-order:markers fill stroke"
     id="rect14056-2-7-5-6-3-2"
     width="46.400002"
     height="42"
     x="0"
     y="-42" />
  <rect
     style="fill:#ffffff;fill-opacity:1;stroke:none;stroke-width:3.77953;stroke-linecap:round;stroke-linejoin:round;paint-order:markers fill stroke"
     id="rect14056-2-7-5-6-3-0-6"
     width="46.400002"
     height="42"
     x="-185.60001"
     y="-42" />
  <rect
     style="fill:#000000;fill-opacity:1;stroke:none;stroke-width:3.77953;stroke-linecap:round;stroke-linejoin:round;paint-order:markers fill stroke"
     id="rect14056-2-7-5-6-7-3"
     width="46.400002"
     height="42"
     x="0"
     y="-84" />
  <rect
     style="fill:#000000;fill-opacity:1;stroke:none;stroke-width:3.77953;stroke-linecap:round;stroke-linejoin:round;paint-order:markers fill stroke"
     id="rect14056-2-8-7"
     width="46.400002"
     height="42"
     x="-185.59999"
     y="0" />
  <rect
     style="fill:#ffffff;fill-opacity:1;stroke:none;stroke-width:3.77953;stroke-linecap:round;stroke-linejoin:round;paint-order:markers fill stroke"
     id="rect14056-2-7-66-1"
     width="46.400002"
     height="42"
     x="-139.2"
     y="0" />
  <rect
     style="fill:#000000;fill-opacity:1;stroke:none;stroke-width:3.77953;stroke-linecap:round;stroke-linejoin:round;paint-order:markers fill stroke"
     id="rect14056-2-7-5-9-3"
     width="46.400002"
     height="42"
     x="-92.799995"
     y="0" />
  <rect
     style="fill:#ffffff;fill-opacity:1;stroke:none;stroke-width:3.77953;stroke-linecap:round;stroke-linejoin:round;paint-order:markers fill stroke"
     id="rect14056-2-7-5-6-6-0"
     width="46.400002"
     height="42"
     x="-46.400009"
     y="0" />
  <rect
     style="fill:#000000;fill-opacity:1;stroke:none;stroke-width:3.77953;stroke-linecap:round;stroke-linejoin:round;paint-order:markers fill stroke"
     id="rect14056-2-7-5-6-7-3-2"
     width="46.400002"
     height="42"
     x="0"
     y="0" />
  <path
     style="fill:#cf2a17;fill-opacity:1;stroke:none;stroke-width:1px;stroke-linecap:butt;stroke-linejoin:miter;stroke-opacity:1"
     d="m -163.26988,7.12734 15.29127,29.91504 -29.73303,-0.18204 z"
     id="path1424-4" />
  <rect
     style="fill:#fade01;fill-opacity:1;stroke:none;stroke-width:3.77953;stroke-linecap:round;stroke-linejoin:round;paint-order:markers fill stroke"
     id="rect6897-6"
     width="30.163597"
     height="30.120689"
     x="-131.3989"
     y="6.9479523" />
  <circle
     style="fill:#0191b4;fill-opacity:1;stroke:none;stroke-width:3.77953;stroke-linecap:round;stroke-linejoin:round;paint-order:markers fill stroke"
     id="path8544-1"
     cx="-22.715103"
     cy="21.872467"
     r="15.291263" />
  <path
     d="m 22.718015,5.10104 c -1.32331,0.1838 -2.78579,0.83758 -4.06973,1.82219 -0.47261,0.35971 -0.78243,0.63803 -1.31281,1.16841 -0.53826,0.53825 -0.9006,0.95835 -1.34957,1.55175 -2.12413,2.81992 -3.74679,6.78988 -4.78128,11.69718 -1.04237,4.93618 -0.55926,8.872 1.4546,11.87572 1.69091,2.52585 4.58435,4.34805 8.16834,5.14623 1.08963,0.24419 1.93509,0.34396 2.48122,0.2967 1.16578,-0.10503 2.44971,-0.39384 3.57085,-0.80869 1.77756,-0.65904 3.20327,-1.54913 4.42681,-2.76479 0.61703,-0.6144 0.92423,-0.97936 1.36796,-1.62789 2.08475,-3.04311 2.75691,-7.22048 2.00073,-12.44549 -0.2468,-1.70928 -1.16577,-4.71825 -2.14514,-7.02356 -1.43622,-3.38968 -3.28466,-5.97856 -5.29064,-7.41215 -0.94261,-0.67741 -1.96134,-1.13952 -2.95646,-1.34432 -0.58815,-0.12341 -1.23405,-0.17592 -1.56488,-0.13129 z"
     id="path11594-4"
     style="fill:#56458d;fill-opacity:1;stroke:none;stroke-width:0.00262563" />
  <path
     id="path1448-6"
     style="fill:#a9b5bd;fill-opacity:1;stroke-width:3.77953;stroke-linecap:round;stroke-linejoin:round;paint-order:markers fill stroke"
     d="m -84.826861,8.36168 a 19.007786,19.050692 0 0 0 -3.750005,11.33007 19.007786,19.050692 0 0 0 19.007805,19.05078 19.007786,19.050692 0 0 0 19.00782,-19.05078 19.007786,19.050692 0 0 0 -3.51172,-11.02734 15.489415,14.41674 0 0 1 0.0781,1.41602 15.489415,14.41674 0 0 1 -15.49025,14.41601 15.489415,14.41674 0 0 1 -15.48827,-14.41601 15.489415,14.41674 0 0 1 0.14649,-1.71875 z" />
  <path
     style="fill:#cf2a17;fill-opacity:1;stroke:none;stroke-width:1px;stroke-linecap:butt;stroke-linejoin:miter;stroke-opacity:1"
     d="m -162.95165,-162.89992 15.29127,29.91504 -29.73302,-0.18204 z"
     id="path1424" />
  <rect
     style="fill:#fade01;fill-opacity:1;stroke:none;stroke-width:3.77953;stroke-linecap:round;stroke-linejoin:round;paint-order:markers fill stroke"
     id="rect6897"
     width="30.163597"
     height="30.120689"
     x="-131.08066"
     y="-163.07932" />
  <circle
     style="fill:#0191b4;fill-opacity:1;stroke:none;stroke-width:3.77953;stroke-linecap:round;stroke-linejoin:round;paint-order:markers fill stroke"
     id="path8544"
     cx="-22.396866"
     cy="-148.15479"
     r="15.291263" />
  <path
     d="m 23.036245,-164.92622 c -1.32331,0.1838 -2.78579,0.83758 -4.06973,1.82219 -0.47261,0.35971 -0.78243,0.63803 -1.31281,1.1684 -0.53826,0.53826 -0.9006,0.95836 -1.34957,1.55175 -2.12413,2.81993 -3.74679,6.78988 -4.78128,11.69718 -1.04237,4.93619 -0.55926,8.872 1.4546,11.87573 1.69091,2.52585 4.58435,4.34805 8.16834,5.14623 1.08963,0.24419 1.93509,0.34396 2.48122,0.2967 1.16578,-0.10503 2.44971,-0.39384 3.57085,-0.80869 1.77756,-0.65904 3.20327,-1.54913 4.42681,-2.76479 0.61703,-0.6144 0.92423,-0.97936 1.36796,-1.62789 2.08475,-3.04311 2.75691,-7.22049 2.00073,-12.44549 -0.2468,-1.70928 -1.16577,-4.71826 -2.14514,-7.02356 -1.43622,-3.38969 -3.28466,-5.97856 -5.29064,-7.41216 -0.94261,-0.67741 -1.96134,-1.13952 -2.95646,-1.34432 -0.58815,-0.1234 -1.23405,-0.17591 -1.56488,-0.13128 z"
     id="path11594"
     style="fill:#56458d;fill-opacity:1;stroke:none;stroke-width:0.00262563" />
  <path
     id="path1448"
     style="fill:#a9b5bd;fill-opacity:1;stroke-width:3.77953;stroke-linecap:round;stroke-linejoin:round;paint-order:markers fill stroke"
     d="m -84.508631,-161.66559 a 19.007786,19.050692 0 0 0 -3.750005,11.33008 19.007786,19.050692 0 0 0 19.007805,19.05078 19.007786,19.050692 0 0 0 19.00782,-19.05078 19.007786,19.050692 0 0 0 -3.51172,-11.02734 15.489415,14.41674 0 0 1 0.0781,1.41601 15.489415,14.41674 0 0 1 -15.49025,14.41602 15.489415,14.41674 0 0 1 -15.48827,-14.41602 15.489415,14.41674 0 0 1 0.14649,-1.71875 z" />
  <path
     style="fill:#cf2a17;fill-opacity:1;stroke:none;stroke-width:1px;stroke-linecap:butt;stroke-linejoin:miter;stroke-opacity:1"
     d="m -163.02806,-120.58512 15.29127,29.91505 -29.73302,-0.18204 z"
     id="path1424-5" />
  <rect
     style="fill:#fade01;fill-opacity:1;stroke:none;stroke-width:3.77953;stroke-linecap:round;stroke-linejoin:round;paint-order:markers fill stroke"
     id="rect6897-7"
     width="30.163597"
     height="30.120689"
     x="-131.15707"
     y="-120.76452" />
  <circle
     style="fill:#0191b4;fill-opacity:1;stroke:none;stroke-width:3.77953;stroke-linecap:round;stroke-linejoin:round;paint-order:markers fill stroke"
     id="path8544-5"
     cx="-22.473244"
     cy="-105.83997"
     r="15.291263" />
  <path
     d="m 22.959835,-122.61142 c -1.32331,0.1838 -2.78579,0.83758 -4.06973,1.82219 -0.47261,0.35971 -0.78243,0.63803 -1.31281,1.16841 -0.53826,0.53825 -0.9006,0.95835 -1.34957,1.55174 -2.12413,2.81993 -3.74679,6.78988 -4.78128,11.69718 -1.04237,4.93619 -0.55926,8.87201 1.4546,11.87574 1.69091,2.52585 4.58435,4.34805 8.16834,5.14623 1.08963,0.24419 1.93509,0.34396 2.48122,0.2967 1.16578,-0.10503 2.44971,-0.39384 3.57085,-0.80869 1.77756,-0.65904 3.20327,-1.54913 4.42681,-2.76479 0.61703,-0.6144 0.92423,-0.97936 1.36796,-1.62789 2.08475,-3.04312 2.75691,-7.22049 2.00073,-12.4455 -0.2468,-1.70928 -1.16577,-4.71826 -2.14514,-7.02356 -1.43622,-3.38969 -3.28466,-5.97856 -5.29064,-7.41216 -0.94261,-0.6774 -1.96134,-1.13952 -2.95646,-1.34432 -0.58815,-0.1234 -1.23405,-0.17591 -1.56488,-0.13128 z"
     id="path11594-3"
     style="fill:#56458d;fill-opacity:1;stroke:none;stroke-width:0.00262563" />
  <path
     id="path1448-0"
     style="fill:#a9b5bd;fill-opacity:1;stroke-width:3.77953;stroke-linecap:round;stroke-linejoin:round;paint-order:markers fill stroke"
     d="m -84.585041,-119.35079 a 19.007786,19.050692 0 0 0 -3.750005,11.33008 19.007786,19.050692 0 0 0 19.007805,19.05079 19.007786,19.050692 0 0 0 19.00782,-19.05079 19.007786,19.050692 0 0 0 -3.51172,-11.02734 15.489415,14.41674 0 0 1 0.0781,1.41601 15.489415,14.41674 0 0 1 -15.49025,14.41602 15.489415,14.41674 0 0 1 -15.48827,-14.41602 15.489415,14.41674 0 0 1 0.14649,-1.71875 z" />
  <path
     style="fill:#cf2a17;fill-opacity:1;stroke:none;stroke-width:1px;stroke-linecap:butt;stroke-linejoin:miter;stroke-opacity:1"
     d="m -163.02806,-77.84979 15.29127,29.91505 -29.73302,-0.18204 z"
     id="path1424-7" />
  <rect
     style="fill:#fade01;fill-opacity:1;stroke:none;stroke-width:3.77953;stroke-linecap:round;stroke-linejoin:round;paint-order:markers fill stroke"
     id="rect6897-9"
     width="30.163597"
     height="30.120689"
     x="-131.15707"
     y="-78.029175" />
  <circle
     style="fill:#0191b4;fill-opacity:1;stroke:none;stroke-width:3.77953;stroke-linecap:round;stroke-linejoin:round;paint-order:markers fill stroke"
     id="path8544-2"
     cx="-22.473244"
     cy="-63.104637"
     r="15.291263" />
  <path
     d="m 22.959835,-79.87608 c -1.32331,0.18379 -2.78579,0.83757 -4.06973,1.82218 -0.47261,0.35972 -0.78243,0.63803 -1.31281,1.16841 -0.53826,0.538257 -0.9006,0.958357 -1.34957,1.551747 -2.12413,2.81992 -3.74679,6.78988 -4.78128,11.697183 -1.04237,4.93618 -0.55926,8.872 1.4546,11.87573 1.69091,2.52585 4.58435,4.34805 8.16834,5.14623 1.08963,0.24419 1.93509,0.34396 2.48122,0.2967 1.16578,-0.10503 2.44971,-0.39384 3.57085,-0.80869 1.77756,-0.65904 3.20327,-1.54913 4.42681,-2.76479 0.61703,-0.6144 0.92423,-0.97936 1.36796,-1.62789 2.08475,-3.04312 2.75691,-7.22049 2.00073,-12.44549 -0.2468,-1.70929 -1.16577,-4.718263 -2.14514,-7.023563 -1.43622,-3.38969 -3.28466,-5.978557 -5.29064,-7.412157 -0.94261,-0.67741 -1.96134,-1.13952 -2.95646,-1.34432 -0.58815,-0.12341 -1.23405,-0.17592 -1.56488,-0.13128 z"
     id="path11594-5"
     style="fill:#56458d;fill-opacity:1;stroke:none;stroke-width:0.00262563" />
  <path
     id="path1448-1"
     style="fill:#a9b5bd;fill-opacity:1;stroke-width:3.77953;stroke-linecap:round;stroke-linejoin:round;paint-order:markers fill stroke"
     d="m -84.585041,-76.61545 a 19.007786,19.050692 0 0 0 -3.750005,11.33008 19.007786,19.050692 0 0 0 19.007805,19.05078 19.007786,19.050692 0 0 0 19.00782,-19.05078 19.007786,19.050692 0 0 0 -3.51172,-11.027353 15.489415,14.41674 0 0 1 0.0781,1.41602 15.489415,14.41674 0 0 1 -15.49025,14.416013 15.489415,14.41674 0 0 1 -15.48827,-14.416013 15.489415,14.41674 0 0 1 0.14649,-1.718747 z" />
  <path
     style="fill:#cf2a17;fill-opacity:1;stroke:none;stroke-width:1px;stroke-linecap:butt;stroke-linejoin:miter;stroke-opacity:1"
     d="m -162.68481,-35.45771 15.29127,29.91505 -29.73302,-0.18204 z"
     id="path1424-8" />
  <rect
     style="fill:#fade01;fill-opacity:1;stroke:none;stroke-width:3.77953;stroke-linecap:round;stroke-linejoin:round;paint-order:markers fill stroke"
     id="rect6897-2"
     width="30.163597"
     height="30.120689"
     x="-130.81381"
     y="-35.6371" />
  <circle
     style="fill:#0191b4;fill-opacity:1;stroke:none;stroke-width:3.77953;stroke-linecap:round;stroke-linejoin:round;paint-order:markers fill stroke"
     id="path8544-6"
     cx="-22.13002"
     cy="-20.712547"
     r="15.291263" />
  <path
     d="m 23.303095,-37.484 c -1.32331,0.18379 -2.78579,0.83758 -4.06973,1.82219 -0.47261,0.35971 -0.78243,0.63803 -1.31281,1.1684 -0.53826,0.53826 -0.9006,0.95836 -1.34957,1.55175 -2.12413,2.81993 -3.74679,6.78988 -4.78128,11.69718 -1.04237,4.93619 -0.55926,8.872 1.4546,11.87573 1.69091,2.52585 4.58435,4.34805 8.16834,5.14623 1.08963,0.24419 1.93509,0.34396 2.48122,0.2967 1.16578,-0.10503 2.44971,-0.39384 3.57085,-0.80869 1.77756,-0.65904 3.20327,-1.54913 4.42681,-2.76479 0.61703,-0.6144 0.92423,-0.97936 1.36796,-1.62789 2.08475,-3.04311 2.75691,-7.22048 2.00073,-12.44549 -0.2468,-1.70928 -1.16577,-4.71826 -2.14514,-7.02356 -1.43622,-3.38969 -3.28466,-5.97856 -5.29064,-7.41216 -0.94261,-0.67741 -1.96134,-1.13952 -2.95646,-1.34432 -0.58815,-0.1234 -1.23405,-0.17591 -1.56488,-0.13128 z"
     id="path11594-7"
     style="fill:#56458d;fill-opacity:1;stroke:none;stroke-width:0.00262563" />
  <path
     id="path1448-9"
     style="fill:#a9b5bd;fill-opacity:1;stroke-width:3.77953;stroke-linecap:round;stroke-linejoin:round;paint-order:markers fill stroke"
     d="m -84.241781,-34.22337 a 19.007786,19.050692 0 0 0 -3.750005,11.33008 19.007786,19.050692 0 0 0 19.007805,19.05078 19.007786,19.050692 0 0 0 19.00782,-19.05078 19.007786,19.050692 0 0 0 -3.51172,-11.02734 15.489415,14.41674 0 0 1 0.0781,1.41601 15.489415,14.41674 0 0 1 -15.49025,14.41602 15.489415,14.41674 0 0 1 -15.48827,-14.41602 15.489415,14.41674 0 0 1 0.14649,-1.71875 z" />
  <rect
     style="fill:#fade01;fill-opacity:1;stroke:none;stroke-width:1.45367;stroke-linecap:round;stroke-linejoin:round;paint-order:markers fill stroke"
     id="rect6897-4"
     width="11.601383"
     height="11.584881"
     x="-168.77759"
     y="-104.967" />
  <rect
     style="fill:#fade01;fill-opacity:1;stroke:none;stroke-width:1.45367;stroke-linecap:round;stroke-linejoin:round;paint-order:markers fill stroke"
     id="rect6897-4-1"
     width="11.601383"
     height="11.584881"
     x="17.374603"
     y="-68.388977" />
  <rect
     style="fill:#fade01;fill-opacity:1;stroke:none;stroke-width:1.45367;stroke-linecap:round;stroke-linejoin:round;paint-order:markers fill stroke"
     id="rect6897-4-1-9"
     width="11.601383"
     height="11.584881"
     x="-27.954834"
     y="-26.884125" />
  <rect
     style="fill:#fade01;fill-opacity:1;stroke:none;stroke-width:1.45367;stroke-linecap:round;stroke-linejoin:round;paint-order:markers fill stroke"
     id="rect6897-4-1-9-3"
     width="11.601383"
     height="11.584881"
     x="-75.027489"
     y="25.329803" />
  <path
     id="path1448-12"
     style="fill:#a9b5bd;fill-opacity:1;stroke-width:1.3337;stroke-linecap:round;stroke-linejoin:round;paint-order:markers fill stroke"
     d="m -121.55273,-110.87309 a 6.7073807,6.7225213 0 0 0 -1.32328,3.99811 6.7073807,6.7225213 0 0 0 6.70738,6.72255 6.7073807,6.7225213 0 0 0 6.7074,-6.72255 6.7073807,6.7225213 0 0 0 -1.2392,-3.89128 5.4658341,5.0873134 0 0 1 0.0276,0.49968 5.4658341,5.0873134 0 0 1 -5.46613,5.08705 5.4658341,5.0873134 0 0 1 -5.46544,-5.08705 5.4658341,5.0873134 0 0 1 0.0517,-0.60651 z" />
  <path
     id="path1448-12-1"
     style="fill:#a9b5bd;fill-opacity:1;stroke-width:1.3337;stroke-linecap:round;stroke-linejoin:round;paint-order:markers fill stroke"
     d="m -168.45711,-61.16074 a 6.7073807,6.7225213 0 0 0 -1.32328,3.99811 6.7073807,6.7225213 0 0 0 6.70738,6.72255 6.7073807,6.7225213 0 0 0 6.7074,-6.72255 6.7073807,6.7225213 0 0 0 -1.2392,-3.89128 5.4658341,5.0873134 0 0 1 0.0276,0.49968 5.4658341,5.0873134 0 0 1 -5.46613,5.08705 5.4658341,5.0873134 0 0 1 -5.46544,-5.08705 5.4658341,5.0873134 0 0 1 0.0517,-0.60651 z" />
  <path
     id="path1448-12-3"
     style="fill:#a9b5bd;fill-opacity:1;stroke-width:1.3337;stroke-linecap:round;stroke-linejoin:round;paint-order:markers fill stroke"
     d="m 18.033935,-24.26754 a 6.7073807,6.7225213 0 0 0 -1.32328,3.99811 6.7073807,6.7225213 0 0 0 6.70738,6.72255 6.7073807,6.7225213 0 0 0 6.7074,-6.72255 6.7073807,6.7225213 0 0 0 -1.2392,-3.89128 5.4658341,5.0873134 0 0 1 0.0276,0.49968 5.4658341,5.0873134 0 0 1 -5.46613,5.08705 5.4658341,5.0873134 0 0 1 -5.46544,-5.08705 5.4658341,5.0873134 0 0 1 0.0517,-0.6065 z" />
  <path
     id="path1448-12-4"
     style="fill:#a9b5bd;fill-opacity:1;stroke-width:1.3337;stroke-linecap:round;stroke-linejoin:round;paint-order:markers fill stroke"
     d="m -28.023667,16.50916 a 6.7073807,6.7225213 0 0 0 -1.32328,3.99811 6.7073807,6.7225213 0 0 0 6.70738,6.72255 6.7073807,6.7225213 0 0 0 6.7074,-6.72255 6.7073807,6.7225213 0 0 0 -1.2392,-3.89128 5.4658341,5.0873134 0 0 1 0.0276,0.49968 5.4658341,5.0873134 0 0 1 -5.46613,5.08705 5.4658341,5.0873134 0 0 1 -5.46544,-5.08705 5.4658341,5.0873134 0 0 1 0.0517,-0.60651 z" />
  <circle
     style="fill:#0191b4;fill-opacity:1;stroke:none;stroke-width:1.28984;stroke-linecap:round;stroke-linejoin:round;paint-order:markers fill stroke"
     id="path8544-3"
     cx="-115.98066"
     cy="-63.038567"
     r="5.2184472" />
  <circle
     style="fill:#0191b4;fill-opacity:1;stroke:none;stroke-width:1.28984;stroke-linecap:round;stroke-linejoin:round;paint-order:markers fill stroke"
     id="path8544-3-3"
     cx="-69.666878"
     cy="-96.312302"
     r="5.2184472" />
  <circle
     style="fill:#0191b4;fill-opacity:1;stroke:none;stroke-width:1.28984;stroke-linecap:round;stroke-linejoin:round;paint-order:markers fill stroke"
     id="path8544-3-2"
     cx="-162.93362"
     cy="-15.822632"
     r="5.2184472" />
  <circle
     style="fill:#0191b4;fill-opacity:1;stroke:none;stroke-width:1.28984;stroke-linecap:round;stroke-linejoin:round;paint-order:markers fill stroke"
     id="path8544-3-4"
     cx="22.932587"
     cy="22.354919"
     r="5.2184472" />
  <path
     d="m -22.834237,-110.80466 c -0.49129,0.0682 -1.03425,0.31095 -1.51092,0.6765 -0.17546,0.13354 -0.29049,0.23687 -0.48739,0.43378 -0.19984,0.19983 -0.33436,0.35579 -0.50104,0.5761 -0.7886,1.04691 -1.39103,2.52079 -1.77509,4.34267 -0.38699,1.83259 -0.20763,3.29379 0.54003,4.40895 0.62777,0.93774 1.70198,1.61425 3.03256,1.91058 0.40454,0.0907 0.71842,0.1277 0.92117,0.11015 0.43281,-0.039 0.90948,-0.14622 1.32571,-0.30023 0.65993,-0.24468 1.18924,-0.57513 1.64349,-1.02645 0.22907,-0.2281 0.34312,-0.3636 0.50786,-0.60437 0.77398,-1.12978 1.02353,-2.68066 0.74279,-4.62049 -0.0916,-0.63458 -0.4328,-1.75168 -0.7964,-2.60755 -0.53321,-1.25844 -1.21946,-2.21958 -1.96419,-2.75181 -0.34995,-0.2515 -0.72816,-0.42306 -1.09761,-0.49909 -0.21836,-0.0458 -0.45815,-0.0653 -0.58097,-0.0487 z"
     id="path11594-6"
     style="fill:#56458d;fill-opacity:1;stroke:none;stroke-width:0.000974785" />
  <path
     d="m -69.548201,-59.68061 c -0.49129,0.0682 -1.03425,0.31095 -1.51092,0.6765 -0.17546,0.13354 -0.29049,0.23687 -0.48739,0.43378 -0.19984,0.19983 -0.33436,0.35579 -0.50104,0.5761 -0.7886,1.04691 -1.39103,2.52079 -1.77509,4.34267 -0.38699,1.83259 -0.20763,3.29379 0.54003,4.40895 0.62777,0.93774 1.70198,1.61425 3.03256,1.91058 0.40454,0.0907 0.71842,0.1277 0.92117,0.11015 0.43281,-0.039 0.90948,-0.14622 1.32571,-0.30023 0.65993,-0.24468 1.18924,-0.57513 1.64349,-1.02645 0.22907,-0.2281 0.34312,-0.3636 0.50786,-0.60437 0.77398,-1.12978 1.02353,-2.68066 0.74279,-4.62049 -0.0916,-0.63458 -0.4328,-1.75168 -0.7964,-2.60755 -0.53321,-1.25844 -1.21946,-2.21958 -1.96419,-2.75181 -0.34995,-0.2515 -0.72816,-0.42306 -1.09761,-0.49909 -0.21836,-0.0458 -0.45815,-0.0653 -0.58097,-0.0487 z"
     id="path11594-6-7"
     style="fill:#56458d;fill-opacity:1;stroke:none;stroke-width:0.000974785" />
  <path
     d="m -116.10616,-26.10666 c -0.49129,0.0682 -1.03425,0.31095 -1.51092,0.6765 -0.17546,0.13354 -0.29049,0.23687 -0.48739,0.43378 -0.19984,0.19983 -0.33436,0.35579 -0.50104,0.5761 -0.7886,1.04691 -1.39103,2.52079 -1.77509,4.34267 -0.38699,1.83259 -0.20763,3.29379 0.54003,4.40895 0.62777,0.93774 1.70198,1.61425 3.03256,1.91058 0.40454,0.0907 0.71842,0.1277 0.92117,0.11015 0.43281,-0.039 0.90948,-0.14622 1.32571,-0.30023 0.65993,-0.24468 1.18924,-0.57513 1.64349,-1.02645 0.22907,-0.2281 0.34312,-0.3636 0.50786,-0.60437 0.77398,-1.12978 1.02353,-2.68066 0.74279,-4.62049 -0.0916,-0.63458 -0.4328,-1.75168 -0.7964,-2.60755 -0.53321,-1.25844 -1.21946,-2.21958 -1.96419,-2.75181 -0.34995,-0.2515 -0.72816,-0.42306 -1.09761,-0.49909 -0.21836,-0.0458 -0.45815,-0.0653 -0.58097,-0.0487 z"
     id="path11594-6-3"
     style="fill:#56458d;fill-opacity:1;stroke:none;stroke-width:0.000974785" />
  <path
     d="m -163.23339,20.738 c -0.49129,0.0682 -1.03425,0.31095 -1.51092,0.6765 -0.17546,0.13354 -0.29049,0.23687 -0.48739,0.43378 -0.19984,0.19983 -0.33436,0.35579 -0.50104,0.5761 -0.7886,1.04691 -1.39103,2.52079 -1.77509,4.34267 -0.38699,1.83259 -0.20763,3.29379 0.54003,4.40895 0.62777,0.93774 1.70198,1.61425 3.03256,1.91058 0.40454,0.0907 0.71842,0.1277 0.92117,0.11015 0.43281,-0.039 0.90948,-0.14622 1.32571,-0.30023 0.65993,-0.24468 1.18924,-0.57513 1.64349,-1.02645 0.22907,-0.2281 0.34312,-0.3636 0.50786,-0.60437 0.77398,-1.12978 1.02353,-2.68066 0.74279,-4.62049 -0.0916,-0.63458 -0.4328,-1.75168 -0.7964,-2.60755 -0.53321,-1.25844 -1.21946,-2.21958 -1.96419,-2.75181 -0.34995,-0.2515 -0.72816,-0.42306 -1.09761,-0.49909 -0.21836,-0.0458 -0.45815,-0.0653 -0.58097,-0.0487 z"
     id="path11594-6-9"
     style="fill:#56458d;fill-opacity:1;stroke:none;stroke-width:0.000974785" />
  <path
     style="fill:#cf2a17;fill-opacity:1;stroke:none;stroke-width:0.375254px;stroke-linecap:butt;stroke-linejoin:miter;stroke-opacity:1"
     d="m 23.072785,-110.4424 5.73811,11.22573 -11.15742,-0.0683 z"
     id="path1424-6" />
  <path
     style="fill:#cf2a17;fill-opacity:1;stroke:none;stroke-width:0.375254px;stroke-linecap:butt;stroke-linejoin:miter;stroke-opacity:1"
     d="m -22.556247,-68.209393 5.73811,11.225733 -11.15742,-0.0683 z"
     id="path1424-6-0" />
  <path
     style="fill:#cf2a17;fill-opacity:1;stroke:none;stroke-width:0.375254px;stroke-linecap:butt;stroke-linejoin:miter;stroke-opacity:1"
     d="m -69.196591,-17.1877 5.73811,11.22573 -11.15742,-0.0683 z"
     id="path1424-6-0-4" />
  <path
     style="fill:#cf2a17;fill-opacity:1;stroke:none;stroke-width:0.375254px;stroke-linecap:butt;stroke-linejoin:miter;stroke-opacity:1"
     d="m -116.30843,16.53718 5.73811,11.22573 -11.15742,-0.0683 z"
     id="path1424-6-0-6" />
</svg>
