<?xml version="1.0" encoding="UTF-8" standalone="no"?>
<svg
   version="1.1"
   width="46.400002"
   height="42"
   id="svg368"
   sodipodi:docname="WA.svg"
   inkscape:version="1.1 (c68e22c387, 2021-05-23)"
   inkscape:export-filename="G:\Occult Library\Pez_ESDSol_w.png"
   inkscape:export-xdpi="800.01001"
   inkscape:export-ydpi="800.01001"
   xmlns:inkscape="http://www.inkscape.org/namespaces/inkscape"
   xmlns:sodipodi="http://sodipodi.sourceforge.net/DTD/sodipodi-0.dtd"
   xmlns="http://www.w3.org/2000/svg"
   xmlns:svg="http://www.w3.org/2000/svg">
  <defs
     id="defs372">
    <filter
       id="mask-powermask-path-effect1604_inverse"
       inkscape:label="filtermask-powermask-path-effect1604"
       style="color-interpolation-filters:sRGB"
       height="100"
       width="100"
       x="-50"
       y="-50">
      <feColorMatrix
         id="mask-powermask-path-effect1604_primitive1"
         values="1"
         type="saturate"
         result="fbSourceGraphic" />
      <feColorMatrix
         id="mask-powermask-path-effect1604_primitive2"
         values="-1 0 0 0 1 0 -1 0 0 1 0 0 -1 0 1 0 0 0 1 0 "
         in="fbSourceGraphic" />
    </filter>
  </defs>
  <sodipodi:namedview
     id="namedview370"
     pagecolor="#ffffff"
     bordercolor="#666666"
     borderopacity="1.0"
     inkscape:pageshadow="2"
     inkscape:pageopacity="0.0"
     inkscape:pagecheckerboard="0"
     showgrid="false"
     inkscape:zoom="4.12"
     inkscape:cx="20.024272"
     inkscape:cy="13.228155"
     inkscape:window-width="2560"
     inkscape:window-height="1009"
     inkscape:window-x="-8"
     inkscape:window-y="-8"
     inkscape:window-maximized="1"
     inkscape:current-layer="svg368" />
  <rect
     style="fill:none;fill-opacity:1;stroke:none;stroke-width:3.77953;stroke-linecap:round;stroke-linejoin:round;paint-order:markers fill stroke"
     id="rect14056-2-7-6"
     width="46.400002"
     height="42"
     x="0"
     y="0" />
  <path
     id="path1448-0"
     style="fill:#a9b5bd;fill-opacity:1;stroke-width:3.77953;stroke-linecap:round;stroke-linejoin:round;paint-order:markers fill stroke"
     d="M 8.2149545,6.64921 A 19.007786,19.050692 0 0 0 4.4649495,17.97929 19.007786,19.050692 0 0 0 23.472764,37.03008 19.007786,19.050692 0 0 0 42.480574,17.97929 19.007786,19.050692 0 0 0 38.968854,6.95195 15.489415,14.41674 0 0 1 39.046954,8.36796 15.489415,14.41674 0 0 1 23.556714,22.78398 15.489415,14.41674 0 0 1 8.0684345,8.36796 15.489415,14.41674 0 0 1 8.2149245,6.64921 Z" />
  <circle
     style="fill:#0191b4;fill-opacity:1;stroke:none;stroke-width:1.28984;stroke-linecap:round;stroke-linejoin:round;paint-order:markers fill stroke"
     id="path8544-3-3"
     cx="23.133118"
     cy="29.687698"
     r="5.2184472" />
</svg>
