<?xml version="1.0" encoding="UTF-8" standalone="no"?>
<svg
   version="1.1"
   width="46.400002"
   height="42"
   id="svg368"
   sodipodi:docname="WE.svg"
   inkscape:version="1.1 (c68e22c387, 2021-05-23)"
   inkscape:export-filename="G:\Occult Library\Pez_ESDSol_w.png"
   inkscape:export-xdpi="800.01001"
   inkscape:export-ydpi="800.01001"
   xmlns:inkscape="http://www.inkscape.org/namespaces/inkscape"
   xmlns:sodipodi="http://sodipodi.sourceforge.net/DTD/sodipodi-0.dtd"
   xmlns="http://www.w3.org/2000/svg"
   xmlns:svg="http://www.w3.org/2000/svg">
  <defs
     id="defs372">
    <filter
       id="mask-powermask-path-effect1604_inverse"
       inkscape:label="filtermask-powermask-path-effect1604"
       style="color-interpolation-filters:sRGB"
       height="100"
       width="100"
       x="-50"
       y="-50">
      <feColorMatrix
         id="mask-powermask-path-effect1604_primitive1"
         values="1"
         type="saturate"
         result="fbSourceGraphic" />
      <feColorMatrix
         id="mask-powermask-path-effect1604_primitive2"
         values="-1 0 0 0 1 0 -1 0 0 1 0 0 -1 0 1 0 0 0 1 0 "
         in="fbSourceGraphic" />
    </filter>
  </defs>
  <sodipodi:namedview
     id="namedview370"
     pagecolor="#ffffff"
     bordercolor="#666666"
     borderopacity="1.0"
     inkscape:pageshadow="2"
     inkscape:pageopacity="0.0"
     inkscape:pagecheckerboard="0"
     showgrid="false"
     inkscape:zoom="4.12"
     inkscape:cx="15.898058"
     inkscape:cy="-29.004854"
     inkscape:window-width="2560"
     inkscape:window-height="1009"
     inkscape:window-x="-8"
     inkscape:window-y="-8"
     inkscape:window-maximized="1"
     inkscape:current-layer="svg368" />
  <rect
     style="fill:none;fill-opacity:1;stroke:none;stroke-width:3.77953;stroke-linecap:round;stroke-linejoin:round;paint-order:markers fill stroke"
     id="rect14056-2-7-5-9-3"
     width="46.400002"
     height="42"
     x="0"
     y="0" />
  <path
     id="path1448-6"
     style="fill:#a9b5bd;fill-opacity:1;stroke-width:3.77953;stroke-linecap:round;stroke-linejoin:round;paint-order:markers fill stroke"
     d="M 7.9731345,8.36168 A 19.007786,19.050692 0 0 0 4.2231295,19.69175 19.007786,19.050692 0 0 0 23.230934,38.74253 19.007786,19.050692 0 0 0 42.238754,19.69175 19.007786,19.050692 0 0 0 38.727034,8.66441 15.489415,14.41674 0 0 1 38.805134,10.08043 15.489415,14.41674 0 0 1 23.314884,24.49644 15.489415,14.41674 0 0 1 7.8266145,10.08043 15.489415,14.41674 0 0 1 7.9731045,8.36168 Z" />
  <rect
     style="fill:#fade01;fill-opacity:1;stroke:none;stroke-width:1.45367;stroke-linecap:round;stroke-linejoin:round;paint-order:markers fill stroke"
     id="rect6897-4-1-9-3"
     width="11.601383"
     height="11.584881"
     x="17.772507"
     y="25.329803" />
</svg>
